<?xml version="1.0" standalone="no"?>
<!DOCTYPE svg PUBLIC "-//W3C//DTD SVG 1.1//EN" "http://www.w3.org/Graphics/SVG/1.1/DTD/svg11.dtd" >
<svg xmlns="http://www.w3.org/2000/svg" xmlns:xlink="http://www.w3.org/1999/xlink" version="1.1">
<metadata>
Created by FontForge 20150715 at Mon Feb  1 04:05:30 2016
 By Jimmy Wärting
Copyright (c) 2013 by Rene Bieder. All rights reserved.
</metadata>
<defs>
<font id="Gentona-Light" horiz-adv-x="485" >
  <font-face 
    font-family="Gentona Light"
    font-weight="300"
    font-stretch="normal"
    units-per-em="1000"
    panose-1="0 0 4 0 0 0 0 0 0 0"
    ascent="800"
    descent="-200"
    x-height="467"
    cap-height="610"
    bbox="-94 -223 1165 876"
    underline-thickness="50"
    underline-position="-100"
    stemh="52"
    stemv="66"
    unicode-range="U+0020-FB02"
  />
<missing-glyph horiz-adv-x="750" 
d="M658 0h-565v610h565v-610zM133 570v-530h485v530h-485zM343 236l-5 66c74 8 109 33 109 76c0 34 -26 57 -66 57c-28 0 -70 -9 -106 -22l-11 29c40 16 85 26 117 26c61 0 104 -34 104 -90c0 -57 -49 -91 -109 -100v-42h-33zM359 179c13 0 22 -9 22 -22
c0 -15 -9 -24 -22 -24c-15 0 -23 9 -23 24c0 13 8 22 23 22z" />
    <glyph glyph-name="f_f" unicode="ff" horiz-adv-x="632" 
d="M639 660l-5 -51c-20 2 -45 3 -73 3c-68 0 -89 -35 -89 -100v-44h152v-57h-152v-411h-66v411h-248v-411h-67v411h-67v57h67v45c0 103 41 155 146 155c36 0 66 -3 88 -8l-6 -51c-20 2 -44 3 -72 3c-68 0 -89 -35 -89 -100v-44h248v45c0 103 41 155 145 155
c36 0 66 -3 88 -8z" />
    <glyph glyph-name="f_f_i" unicode="ffi" horiz-adv-x="847" 
d="M768 468v-468h-66v411h-234v-411h-66v411h-244v-411h-67v411h-67v57h67v45c0 103 41 155 146 155c36 0 66 -3 88 -8l-6 -51c-20 2 -44 3 -72 3c-68 0 -89 -34 -89 -99v-45h244v45c0 103 39 155 144 155c27 0 52 -2 104 -10l-5 -48c-50 5 -69 6 -89 6
c-68 0 -88 -38 -88 -103v-45h300zM736 565c-23 0 -42 14 -42 40c0 25 19 39 42 39s42 -14 42 -39c0 -26 -19 -40 -42 -40z" />
    <glyph glyph-name="f_f_l" unicode="ffl" horiz-adv-x="842" 
d="M765 665v-665h-66v600c-83 11 -117 12 -146 12c-68 0 -87 -34 -87 -99v-45h150v-57h-150v-411h-67v411h-241v-411h-67v411h-67v57h67v45c0 103 41 155 146 155c36 0 66 -3 88 -8l-6 -51c-20 2 -44 3 -72 3c-68 0 -89 -35 -89 -100v-44h241v45c0 103 40 155 144 155
c37 0 73 -5 156 -20v17h66z" />
    <glyph glyph-name="fi" unicode="fi" horiz-adv-x="538" 
d="M459 0h-67v411h-233v-411h-66v411h-69v57h69v45c0 103 39 155 144 155c27 0 54 -3 108 -11l-6 -51c-51 5 -72 6 -92 6c-68 0 -88 -34 -88 -99v-45h300v-468zM427 565c-23 0 -42 14 -42 39c0 26 19 40 42 40s42 -14 42 -40c0 -25 -19 -39 -42 -39z" />
    <glyph glyph-name="fl" unicode="fl" horiz-adv-x="535" 
d="M458 0h-66v600c-83 11 -117 12 -145 12c-68 0 -88 -34 -88 -99v-45h151v-57h-151v-411h-66v411h-69v57h69v45c0 103 39 155 144 155c36 0 72 -5 155 -20v17h66v-665z" />
    <glyph glyph-name=".notdef" horiz-adv-x="750" 
d="M658 0h-565v610h565v-610zM133 570v-530h485v530h-485zM343 236l-5 66c74 8 109 33 109 76c0 34 -26 57 -66 57c-28 0 -70 -9 -106 -22l-11 29c40 16 85 26 117 26c61 0 104 -34 104 -90c0 -57 -49 -91 -109 -100v-42h-33zM359 179c13 0 22 -9 22 -22
c0 -15 -9 -24 -22 -24c-15 0 -23 9 -23 24c0 13 8 22 23 22z" />
    <glyph glyph-name="A" unicode="A" horiz-adv-x="648" 
d="M159 161l-69 -161h-74l263 610h91l262 -610h-73l-70 161h-330zM463 224l-114 265c-11 29 -20 53 -25 72c-5 -19 -14 -43 -25 -72l-114 -265h278z" />
    <glyph glyph-name="Aacute" unicode="&#xc1;" horiz-adv-x="648" 
d="M448 779l-1 -14c-51 -45 -77 -68 -139 -102l-22 22l108 130zM159 161l-69 -161h-74l263 610h91l262 -610h-73l-70 161h-330zM463 224l-114 265c-11 29 -20 53 -25 72c-5 -19 -14 -43 -25 -72l-114 -265h278z" />
    <glyph glyph-name="Abreve" unicode="&#x102;" horiz-adv-x="648" 
d="M408 788h51c0 -76 -42 -119 -135 -119c-92 0 -133 43 -133 119h50c3 -42 26 -69 83 -69s80 27 84 69zM159 161l-69 -161h-74l263 610h91l262 -610h-73l-70 161h-330zM463 224l-114 265c-11 29 -20 53 -25 72c-5 -19 -14 -43 -25 -72l-114 -265h278z" />
    <glyph glyph-name="Acaron" unicode="&#x1cd;" horiz-adv-x="648" 
d="M350 666h-51l-119 112l27 27l118 -84l118 84l27 -27zM159 161l-69 -161h-74l263 610h91l262 -610h-73l-70 161h-330zM463 224l-114 265c-11 29 -20 53 -25 72c-5 -19 -14 -43 -25 -72l-114 -265h278z" />
    <glyph glyph-name="Acircumflex" unicode="&#xc2;" horiz-adv-x="648" 
d="M325 742l-118 -85l-27 27l119 112h51l120 -112l-27 -27zM159 161l-69 -161h-74l263 610h91l262 -610h-73l-70 161h-330zM463 224l-114 265c-11 29 -20 53 -25 72c-5 -19 -14 -43 -25 -72l-114 -265h278z" />
    <glyph glyph-name="Adieresis" unicode="&#xc4;" horiz-adv-x="648" 
d="M233 770c25 0 43 -16 43 -42s-18 -41 -43 -41c-22 0 -42 15 -42 41s20 42 42 42zM416 770c23 0 43 -16 43 -42s-20 -41 -43 -41c-24 0 -43 15 -43 41s19 42 43 42zM159 161l-69 -161h-74l263 610h91l262 -610h-73l-70 161h-330zM463 224l-114 265c-11 29 -20 53 -25 72
c-5 -19 -14 -43 -25 -72l-114 -265h278z" />
    <glyph glyph-name="Agrave" unicode="&#xc0;" horiz-adv-x="648" 
d="M361 678l-22 -22c-62 34 -88 56 -139 101l-1 14l55 36zM159 161l-69 -161h-74l263 610h91l262 -610h-73l-70 161h-330zM463 224l-114 265c-11 29 -20 53 -25 72c-5 -19 -14 -43 -25 -72l-114 -265h278z" />
    <glyph glyph-name="Amacron" unicode="&#x100;" horiz-adv-x="648" 
d="M442 698h-234v59h234v-59zM159 161l-69 -161h-74l263 610h91l262 -610h-73l-70 161h-330zM463 224l-114 265c-11 29 -20 53 -25 72c-5 -19 -14 -43 -25 -72l-114 -265h278z" />
    <glyph glyph-name="Aogonek" unicode="&#x104;" horiz-adv-x="648" 
d="M621 -121l9 -46c-29 -10 -58 -16 -90 -16c-66 0 -105 36 -105 91c0 42 35 83 109 110l-61 143h-331l-69 -161h-73l262 610h91l262 -610h-30c-73 -21 -102 -47 -102 -77c0 -33 22 -53 62 -53c21 0 42 5 66 9zM456 224l-114 265c-11 29 -19 53 -24 72
c-6 -19 -14 -43 -25 -72l-114 -265h277z" />
    <glyph glyph-name="Aring" unicode="&#xc5;" horiz-adv-x="648" 
d="M325 841c55 0 93 -37 93 -94c0 -52 -38 -88 -94 -88c-54 0 -92 36 -92 88c0 57 38 94 93 94zM324 699c32 0 53 19 53 48c0 33 -21 54 -52 54s-52 -21 -52 -54c0 -29 21 -48 51 -48zM159 161l-69 -161h-74l263 610h91l262 -610h-73l-70 161h-330zM463 224l-114 265
c-11 29 -20 53 -25 72c-5 -19 -14 -43 -25 -72l-114 -265h278z" />
    <glyph glyph-name="Atilde" unicode="&#xc3;" horiz-adv-x="648" 
d="M440 775l37 -10c-20 -80 -82 -101 -136 -74l-55 28c-38 19 -60 7 -76 -31l-37 10c20 77 78 96 134 68l55 -26c39 -19 61 -6 78 35zM159 161l-69 -161h-74l263 610h91l262 -610h-73l-70 161h-330zM463 224l-114 265c-11 29 -20 53 -25 72c-5 -19 -14 -43 -25 -72
l-114 -265h278z" />
    <glyph glyph-name="AE" unicode="&#xc6;" horiz-adv-x="945" 
d="M874 64v-64h-408v159h-260l-110 -159h-80l424 610h425v-64h-331v-206h290v-64h-290v-212h340zM466 223v315l-217 -315h217z" />
    <glyph glyph-name="B" unicode="B" horiz-adv-x="594" 
d="M93 610h192c157 0 227 -53 227 -167c0 -63 -34 -106 -98 -125c92 -21 138 -76 138 -153c0 -115 -83 -165 -252 -165h-207v610zM161 546v-200h158c84 0 128 33 128 92c0 74 -49 108 -162 108h-124zM161 283v-218h140c121 0 181 30 181 103s-57 115 -163 115h-158z" />
    <glyph glyph-name="C" unicode="C" horiz-adv-x="624" 
d="M554 118l28 -52c-62 -49 -146 -75 -249 -75c-178 0 -282 113 -282 314c0 202 104 315 292 315c74 0 159 -19 214 -52l-23 -52c-54 25 -126 40 -189 40c-147 0 -224 -88 -224 -252c0 -158 79 -249 215 -249c89 0 159 21 218 63z" />
    <glyph glyph-name="Cacute" unicode="&#x106;" horiz-adv-x="624" 
d="M458 781l-1 -14c-51 -45 -77 -68 -139 -101l-22 22l108 129zM554 118l28 -52c-62 -49 -146 -75 -249 -75c-178 0 -282 113 -282 314c0 202 104 315 292 315c74 0 159 -19 214 -52l-23 -52c-54 25 -126 40 -189 40c-147 0 -224 -88 -224 -252c0 -158 79 -249 215 -249
c89 0 159 21 218 63z" />
    <glyph glyph-name="Ccaron" unicode="&#x10c;" horiz-adv-x="624" 
d="M360 669h-51l-120 112l27 27l119 -84l118 84l27 -27zM554 118l28 -52c-62 -49 -146 -75 -249 -75c-178 0 -282 113 -282 314c0 202 104 315 292 315c74 0 159 -19 214 -52l-23 -52c-54 25 -126 40 -189 40c-147 0 -224 -88 -224 -252c0 -158 79 -249 215 -249
c89 0 159 21 218 63z" />
    <glyph glyph-name="Ccedilla" unicode="&#xc7;" horiz-adv-x="624" 
d="M323 -9l-2 -27c73 -1 99 -22 99 -81c0 -56 -37 -87 -97 -87c-31 0 -63 7 -90 15l9 40c25 -5 48 -8 68 -8c37 0 63 9 63 40c0 35 -20 42 -74 42h-33l15 69c-146 21 -230 130 -230 311c0 202 104 315 292 315c74 0 159 -19 214 -52l-23 -52c-54 25 -126 40 -189 40
c-147 0 -224 -88 -224 -252c0 -158 79 -249 215 -249c89 0 159 21 218 63l28 -52c-62 -49 -146 -75 -249 -75h-10z" />
    <glyph glyph-name="Cdotaccent" unicode="&#x10a;" horiz-adv-x="624" 
d="M335 778c26 0 48 -17 48 -48c0 -29 -22 -47 -48 -47c-28 0 -50 18 -50 47c0 31 22 48 50 48zM554 118l28 -52c-62 -49 -146 -75 -249 -75c-178 0 -282 113 -282 314c0 202 104 315 292 315c74 0 159 -19 214 -52l-23 -52c-54 25 -126 40 -189 40
c-147 0 -224 -88 -224 -252c0 -158 79 -249 215 -249c89 0 159 21 218 63z" />
    <glyph glyph-name="D" unicode="D" horiz-adv-x="652" 
d="M93 610h184c200 0 324 -103 324 -298c0 -207 -124 -312 -324 -312h-184v610zM161 64h116c155 0 255 83 255 248c0 154 -100 234 -255 234h-116v-482z" />
    <glyph glyph-name="Eth" unicode="&#xd0;" horiz-adv-x="653" 
d="M86 610h184c201 0 325 -103 325 -298c0 -207 -124 -312 -325 -312h-184v273h-71v56h71v281zM155 64h115c156 0 255 83 255 248c0 154 -99 234 -255 234h-115v-217h136v-56h-136v-209z" />
    <glyph glyph-name="Dcaron" unicode="&#x10e;" horiz-adv-x="653" 
d="M331 666h-50l-120 112l27 27l118 -84l119 84l27 -27zM93 610h184c200 0 324 -103 324 -298c0 -207 -124 -312 -324 -312h-184v610zM161 64h116c155 0 255 83 255 248c0 154 -100 234 -255 234h-116v-482z" />
    <glyph glyph-name="Dcroat" unicode="&#x110;" horiz-adv-x="652" 
d="M85 610h184c201 0 325 -103 325 -298c0 -207 -124 -312 -325 -312h-184v274h-70v55h70v281zM154 64h115c156 0 255 83 255 248c0 154 -99 234 -255 234h-115v-217h137v-55h-137v-210z" />
    <glyph glyph-name="E" unicode="E" horiz-adv-x="565" 
d="M501 0h-408v610h399v-64h-331v-206h290v-64h-290v-212h340v-64z" />
    <glyph glyph-name="Eacute" unicode="&#xc9;" horiz-adv-x="565" 
d="M398 779l-1 -14c-51 -45 -77 -68 -139 -102l-22 22l108 130zM501 0h-408v610h399v-64h-331v-206h290v-64h-290v-212h340v-64z" />
    <glyph glyph-name="Ecaron" unicode="&#x11a;" horiz-adv-x="565" 
d="M313 666h-50l-120 112l27 27l118 -84l119 84l27 -27zM501 0h-408v610h399v-64h-331v-206h290v-64h-290v-212h340v-64z" />
    <glyph glyph-name="Ecircumflex" unicode="&#xca;" horiz-adv-x="565" 
d="M285 745l-119 -85l-27 28l120 111h51l120 -111l-27 -28zM501 0h-408v610h399v-64h-331v-206h290v-64h-290v-212h340v-64z" />
    <glyph glyph-name="Edieresis" unicode="&#xcb;" horiz-adv-x="565" 
d="M197 770c25 0 42 -16 42 -42s-17 -41 -42 -41c-23 0 -42 15 -42 41s19 42 42 42zM379 770c23 0 43 -16 43 -42s-20 -41 -43 -41c-24 0 -42 15 -42 41s18 42 42 42zM501 0h-408v610h399v-64h-331v-206h290v-64h-290v-212h340v-64z" />
    <glyph glyph-name="Edotaccent" unicode="&#x116;" horiz-adv-x="565" 
d="M288 776c26 0 49 -18 49 -48s-23 -48 -49 -48c-28 0 -49 18 -49 48s21 48 49 48zM501 0h-408v610h399v-64h-331v-206h290v-64h-290v-212h340v-64z" />
    <glyph glyph-name="Egrave" unicode="&#xc8;" horiz-adv-x="565" 
d="M331 678l-22 -22c-62 34 -88 56 -139 101l-1 14l55 36zM501 0h-408v610h399v-64h-331v-206h290v-64h-290v-212h340v-64z" />
    <glyph glyph-name="Emacron" unicode="&#x112;" horiz-adv-x="565" 
d="M405 698h-233v59h233v-59zM501 0h-408v610h399v-64h-331v-206h290v-64h-290v-212h340v-64z" />
    <glyph glyph-name="Eogonek" unicode="&#x118;" horiz-adv-x="565" 
d="M498 -121l10 -46c-29 -10 -58 -16 -91 -16c-65 0 -105 33 -105 94c0 34 22 65 57 89h-276v610h399v-64h-331v-206h290v-64h-290v-212h340v-64h-61c-48 -17 -77 -47 -77 -77c0 -32 27 -53 70 -53c21 0 42 5 65 9z" />
    <glyph glyph-name="F" unicode="F" horiz-adv-x="521" 
d="M161 330h281v-64h-281v-266h-68v610h389v-64h-321v-216z" />
    <glyph glyph-name="G" unicode="G" horiz-adv-x="667" 
d="M605 309v-233c-87 -59 -175 -85 -280 -85c-170 0 -274 113 -274 313c0 198 106 316 290 316c77 0 166 -17 234 -49l-21 -56c-63 26 -138 41 -208 41c-145 0 -225 -91 -225 -251c0 -162 77 -250 207 -250c81 0 149 15 212 58v133h-227v63h292z" />
    <glyph glyph-name="Gbreve" unicode="&#x11e;" horiz-adv-x="667" 
d="M413 791h51c0 -76 -42 -118 -135 -118c-91 0 -133 42 -133 118h51c2 -42 25 -69 82 -69s80 27 84 69zM605 309v-233c-87 -59 -175 -85 -280 -85c-170 0 -274 113 -274 313c0 198 106 316 290 316c77 0 166 -17 234 -49l-21 -56c-63 26 -138 41 -208 41
c-145 0 -225 -91 -225 -251c0 -162 77 -250 207 -250c81 0 149 15 212 58v133h-227v63h292z" />
    <glyph glyph-name="Gcommaaccent" unicode="&#x122;" horiz-adv-x="667" 
d="M605 309v-233c-87 -59 -175 -85 -280 -85c-170 0 -274 113 -274 313c0 198 106 316 290 316c77 0 166 -17 234 -49l-21 -56c-63 26 -138 41 -208 41c-145 0 -225 -91 -225 -251c0 -162 77 -250 207 -250c81 0 149 15 212 58v133h-227v63h292zM302 -223l-14 22
c28 28 42 54 46 75c-18 5 -30 18 -30 37c0 23 15 40 40 40c23 0 38 -19 38 -43c0 -45 -27 -95 -80 -131z" />
    <glyph glyph-name="Gdotaccent" unicode="&#x120;" horiz-adv-x="667" 
d="M333 776c26 0 49 -18 49 -48s-23 -48 -49 -48c-28 0 -49 18 -49 48s21 48 49 48zM605 309v-233c-87 -59 -175 -85 -280 -85c-170 0 -274 113 -274 313c0 198 106 316 290 316c77 0 166 -17 234 -49l-21 -56c-63 26 -138 41 -208 41c-145 0 -225 -91 -225 -251
c0 -162 77 -250 207 -250c81 0 149 15 212 58v133h-227v63h292z" />
    <glyph glyph-name="H" unicode="H" horiz-adv-x="687" 
d="M594 0h-68v280h-365v-280h-68v610h68v-266h365v266h68v-610z" />
    <glyph glyph-name="Hbar" unicode="&#x126;" horiz-adv-x="676" 
d="M589 457v-457h-68v267h-365v-267h-69v457h-51v56h51v97h69v-97h365v97h68v-97h51v-56h-51zM521 457h-365v-126h365v126z" />
    <glyph glyph-name="I" unicode="I" horiz-adv-x="254" 
d="M161 0h-68v610h68v-610z" />
    <glyph glyph-name="IJ" unicode="&#x132;" horiz-adv-x="724" 
d="M161 0h-68v610h68v-610zM637 610v-409c0 -132 -69 -210 -182 -210c-72 0 -135 25 -185 51l21 55c39 -18 89 -39 151 -39c80 0 127 51 127 143v409h68z" />
    <glyph glyph-name="Iacute" unicode="&#xcd;" horiz-adv-x="254" 
d="M251 779l-1 -14c-51 -45 -77 -68 -140 -102l-22 22l109 130zM161 0h-68v610h68v-610z" />
    <glyph glyph-name="Icircumflex" unicode="&#xce;" horiz-adv-x="254" 
d="M127 742l-118 -85l-27 27l120 112h50l121 -112l-27 -27zM161 0h-68v610h68v-610z" />
    <glyph glyph-name="Idieresis" unicode="&#xcf;" horiz-adv-x="254" 
d="M36 770c25 0 42 -16 42 -42s-17 -41 -42 -41c-23 0 -42 15 -42 41s19 42 42 42zM219 770c23 0 42 -16 42 -42s-19 -41 -42 -41c-25 0 -43 15 -43 41s18 42 43 42zM161 0h-68v610h68v-610z" />
    <glyph glyph-name="Idotaccent" unicode="&#x130;" horiz-adv-x="254" 
d="M127 776c27 0 49 -18 49 -48s-22 -48 -49 -48s-49 18 -49 48s22 48 49 48zM161 0h-68v610h68v-610z" />
    <glyph glyph-name="Igrave" unicode="&#xcc;" horiz-adv-x="254" 
d="M164 678l-22 -22c-63 34 -89 56 -139 101l-1 14l54 36zM161 0h-68v610h68v-610z" />
    <glyph glyph-name="Imacron" unicode="&#x12a;" horiz-adv-x="254" 
d="M244 698h-233v59h233v-59zM161 0h-68v610h68v-610z" />
    <glyph glyph-name="Iogonek" unicode="&#x12e;" horiz-adv-x="254" 
d="M197 -121l9 -46c-28 -10 -58 -16 -91 -16c-65 0 -105 33 -105 94c0 42 32 78 83 104v595h68v-610h-23c-48 -17 -77 -47 -77 -77c0 -32 27 -53 70 -53c21 0 43 5 66 9z" />
    <glyph glyph-name="J" unicode="J" horiz-adv-x="478" 
d="M390 610v-409c1 -132 -69 -210 -182 -210c-72 0 -135 25 -184 51l20 55c40 -18 90 -39 151 -39c80 0 127 51 127 143v409h68z" />
    <glyph glyph-name="K" unicode="K" horiz-adv-x="632" 
d="M300 302l-139 -147v-155h-68v610h68v-358l343 358h81v-5l-240 -253l260 -347v-5h-76z" />
    <glyph glyph-name="Kcommaaccent" unicode="&#x136;" horiz-adv-x="632" 
d="M300 302l-139 -147v-155h-68v610h68v-358l343 358h81v-5l-240 -253l260 -347v-5h-76zM277 -223l-14 22c28 28 42 54 46 75c-18 5 -30 18 -30 37c0 23 15 40 40 40c23 0 38 -19 38 -43c0 -45 -27 -95 -80 -131z" />
    <glyph glyph-name="L" unicode="L" horiz-adv-x="502" 
d="M470 0h-377v610h68v-545h309v-65z" />
    <glyph glyph-name="Lacute" unicode="&#x139;" horiz-adv-x="502" 
d="M254 779l-1 -14c-51 -45 -77 -68 -139 -102l-22 22l108 130zM469 0h-376v610h68v-545h308v-65z" />
    <glyph glyph-name="Lcaron" unicode="&#x13d;" horiz-adv-x="502" 
d="M363 610v-13c-4 -53 -12 -105 -25 -152h-40l7 165h58zM470 0h-377v610h68v-545h309v-65z" />
    <glyph glyph-name="Lcommaaccent" unicode="&#x13b;" horiz-adv-x="502" 
d="M470 0h-377v610h68v-545h309v-65zM234 -223l-13 22c28 28 42 54 46 75c-19 5 -30 18 -30 37c0 23 15 40 39 40s39 -19 39 -43c0 -45 -28 -95 -81 -131z" />
    <glyph glyph-name="Ldot" unicode="&#x13f;" horiz-adv-x="502" 
d="M470 0h-377v610h68v-545h309v-65zM292 305c0 25 17 43 43 43s43 -18 43 -43s-17 -43 -43 -43s-43 18 -43 43z" />
    <glyph glyph-name="Lslash" unicode="&#x141;" horiz-adv-x="505" 
d="M462 65v-65h-377v270l-60 -20v55l60 20v285h69v-263l167 56v-56l-167 -55v-227h308z" />
    <glyph glyph-name="M" unicode="M" horiz-adv-x="835" 
d="M674 0l-16 451v28l-211 -479h-59l-211 479v-26l-16 -453h-69l21 610h81l210 -481c6 -12 10 -24 13 -34c3 10 8 22 13 34l211 481h81l21 -610h-69z" />
    <glyph glyph-name="N" unicode="N" horiz-adv-x="692" 
d="M599 0h-63l-375 493v-493h-68v610h62l376 -495v17v478h68v-610z" />
    <glyph glyph-name="Nacute" unicode="&#x143;" horiz-adv-x="692" 
d="M469 779l-1 -14c-50 -45 -76 -68 -139 -102l-22 22l108 130zM599 0h-63l-375 493v-493h-68v610h62l376 -495v17v478h68v-610z" />
    <glyph glyph-name="Ncaron" unicode="&#x147;" horiz-adv-x="692" 
d="M371 666h-50l-120 112l27 27l118 -84l119 84l27 -27zM599 0h-63l-375 493v-493h-68v610h62l376 -495v17v478h68v-610z" />
    <glyph glyph-name="Ncommaaccent" unicode="&#x145;" horiz-adv-x="692" 
d="M599 0h-63l-375 493v-493h-68v610h62l376 -495v17v478h68v-610zM300 -223l-14 22c28 28 42 54 46 75c-18 5 -30 18 -30 37c0 23 15 40 40 40c23 0 38 -19 38 -43c0 -45 -27 -95 -80 -131z" />
    <glyph glyph-name="Ntilde" unicode="&#xd1;" horiz-adv-x="692" 
d="M461 775l37 -10c-20 -80 -82 -101 -135 -74l-55 28c-38 19 -61 7 -77 -31l-37 10c20 77 78 96 134 68l55 -26c39 -19 62 -6 78 35zM599 0h-63l-375 493v-493h-68v610h62l376 -495v17v478h68v-610z" />
    <glyph glyph-name="O" unicode="O" horiz-adv-x="671" 
d="M336 620c180 0 284 -113 284 -316c0 -200 -104 -313 -284 -313c-181 0 -285 113 -285 313c0 203 104 316 285 316zM335 55c138 0 215 87 215 249c0 164 -77 252 -215 252c-137 0 -214 -88 -214 -252c0 -162 77 -249 214 -249z" />
    <glyph glyph-name="Oacute" unicode="&#xd3;" horiz-adv-x="671" 
d="M459 779l-1 -14c-51 -45 -77 -68 -139 -102l-22 22l108 130zM335 620c181 0 285 -113 285 -316c0 -200 -104 -313 -285 -313c-180 0 -284 113 -284 313c0 203 104 316 284 316zM335 55c138 0 215 87 215 249c0 164 -77 252 -215 252c-137 0 -214 -88 -214 -252
c0 -162 77 -249 214 -249z" />
    <glyph glyph-name="Ocircumflex" unicode="&#xd4;" horiz-adv-x="671" 
d="M336 742l-119 -85l-27 27l120 112h51l120 -112l-27 -27zM336 620c180 0 284 -113 284 -316c0 -200 -104 -313 -284 -313c-181 0 -285 113 -285 313c0 203 104 316 285 316zM335 55c138 0 215 87 215 249c0 164 -77 252 -215 252c-137 0 -214 -88 -214 -252
c0 -162 77 -249 214 -249z" />
    <glyph glyph-name="Odieresis" unicode="&#xd6;" horiz-adv-x="671" 
d="M244 770c25 0 43 -16 43 -42s-18 -41 -43 -41c-22 0 -42 15 -42 41s20 42 42 42zM427 770c23 0 42 -16 42 -42s-19 -41 -42 -41c-25 0 -43 15 -43 41s18 42 43 42zM336 620c180 0 284 -113 284 -316c0 -200 -104 -313 -284 -313c-181 0 -285 113 -285 313
c0 203 104 316 285 316zM335 55c138 0 215 87 215 249c0 164 -77 252 -215 252c-137 0 -214 -88 -214 -252c0 -162 77 -249 214 -249z" />
    <glyph glyph-name="Ograve" unicode="&#xd2;" horiz-adv-x="671" 
d="M372 678l-22 -22c-63 34 -89 56 -139 101l-1 14l54 36zM335 620c181 0 285 -113 285 -316c0 -200 -104 -313 -285 -313c-180 0 -284 113 -284 313c0 203 104 316 284 316zM335 55c138 0 215 87 215 249c0 164 -77 252 -215 252c-137 0 -214 -88 -214 -252
c0 -162 77 -249 214 -249z" />
    <glyph glyph-name="Ohungarumlaut" unicode="&#x150;" horiz-adv-x="671" 
d="M396 789l-1 -15c-44 -42 -75 -71 -122 -106l-30 16l101 131zM524 789l-1 -15c-45 -42 -76 -71 -123 -106l-29 16l101 131zM335 620c181 0 285 -113 285 -316c0 -200 -104 -313 -285 -313c-180 0 -284 113 -284 313c0 203 104 316 284 316zM335 55c138 0 215 87 215 249
c0 164 -77 252 -215 252c-137 0 -214 -88 -214 -252c0 -162 77 -249 214 -249z" />
    <glyph glyph-name="Omacron" unicode="&#x14c;" horiz-adv-x="671" 
d="M452 698h-233v59h233v-59zM336 620c180 0 284 -113 284 -316c0 -200 -104 -313 -284 -313c-181 0 -285 113 -285 313c0 203 104 316 285 316zM335 55c138 0 215 87 215 249c0 164 -77 252 -215 252c-137 0 -214 -88 -214 -252c0 -162 77 -249 214 -249z" />
    <glyph glyph-name="Oslash" unicode="&#xd8;" horiz-adv-x="671" 
d="M606 588l-56 -64c41 -53 63 -127 63 -220c0 -200 -104 -313 -284 -313c-79 0 -143 22 -191 63l-52 -60l-30 28l54 61c-43 53 -65 128 -65 221c0 203 104 316 284 316c80 0 146 -23 193 -66l54 62zM157 137l320 366c-36 35 -86 53 -148 53c-137 0 -215 -88 -215 -252
c0 -70 15 -126 43 -167zM503 471l-320 -366c36 -33 85 -50 146 -50c137 0 215 87 215 249c0 70 -14 125 -41 167z" />
    <glyph glyph-name="Otilde" unicode="&#xd5;" horiz-adv-x="671" 
d="M451 775l37 -10c-20 -80 -82 -101 -136 -74l-55 28c-38 19 -60 7 -76 -31l-37 10c20 77 78 96 134 68l55 -26c39 -19 61 -6 78 35zM336 620c180 0 284 -113 284 -316c0 -200 -104 -313 -284 -313c-181 0 -285 113 -285 313c0 203 104 316 285 316zM335 55
c138 0 215 87 215 249c0 164 -77 252 -215 252c-137 0 -214 -88 -214 -252c0 -162 77 -249 214 -249z" />
    <glyph glyph-name="OE" unicode="&#x152;" horiz-adv-x="960" 
d="M889 64v-64h-408v30c-39 -26 -88 -39 -145 -39c-181 0 -285 113 -285 313c0 203 104 316 285 316c57 0 106 -14 145 -40v30h399v-64h-331v-206h290v-64h-290v-212h340zM481 104v403c-35 33 -84 49 -146 49c-137 0 -214 -88 -214 -252c0 -162 77 -249 214 -249
c62 0 111 16 146 49z" />
    <glyph glyph-name="P" unicode="P" horiz-adv-x="571" 
d="M93 610h200c159 0 244 -73 244 -210s-84 -210 -242 -210h-134v-190h-68v610zM161 254h134c115 0 175 50 175 146c0 95 -62 146 -177 146h-132v-292z" />
    <glyph glyph-name="Thorn" unicode="&#xde;" horiz-adv-x="571" 
d="M161 503h132c167 0 244 -66 244 -207c0 -140 -77 -203 -242 -203h-134v-93h-68v610h68v-107zM161 149h134c119 0 175 48 175 147s-56 147 -178 147h-131v-294z" />
    <glyph glyph-name="Q" unicode="Q" horiz-adv-x="666" 
d="M615 305c0 -201 -102 -314 -282 -314s-282 113 -282 314c0 202 102 315 282 315s282 -113 282 -315zM121 304c0 -162 75 -249 212 -249s212 87 212 249c0 164 -75 252 -212 252s-212 -88 -212 -252zM273 -91l15 39c85 -52 163 -73 284 -73v-56c-120 0 -215 29 -299 90z
" />
    <glyph glyph-name="R" unicode="R" horiz-adv-x="594" 
d="M568 6v-6h-75l-175 208h-157v-208h-68v610h216c160 0 244 -71 244 -202c0 -99 -65 -171 -163 -193zM161 272h156c100 0 167 51 167 136c0 89 -60 137 -174 138h-149v-274z" />
    <glyph glyph-name="Racute" unicode="&#x154;" horiz-adv-x="594" 
d="M416 779l-1 -14c-51 -45 -77 -68 -139 -102l-22 22l108 130zM568 6v-6h-75l-175 208h-157v-208h-68v610h216c160 0 244 -71 244 -202c0 -99 -65 -171 -163 -193zM161 272h156c100 0 167 51 167 136c0 89 -60 137 -174 138h-149v-274z" />
    <glyph glyph-name="Rcaron" unicode="&#x158;" horiz-adv-x="594" 
d="M267 666l-119 112l27 27l118 -84l118 84l27 -27l-120 -112h-51zM568 6v-6h-75l-175 208h-157v-208h-68v610h216c160 0 244 -71 244 -202c0 -99 -65 -171 -163 -193zM161 272h156c100 0 167 51 167 136c0 89 -60 137 -174 138h-149v-274z" />
    <glyph glyph-name="Rcommaaccent" unicode="&#x156;" horiz-adv-x="594" 
d="M568 6v-6h-75l-175 208h-157v-208h-68v610h216c160 0 244 -71 244 -202c0 -99 -65 -171 -163 -193zM161 272h156c100 0 167 51 167 136c0 89 -60 137 -174 138h-149v-274zM268 -223l-14 22c28 28 42 54 46 75c-18 5 -30 18 -30 37c0 23 15 40 40 40c23 0 38 -19 38 -43
c0 -45 -27 -95 -80 -131z" />
    <glyph glyph-name="S" unicode="S" horiz-adv-x="548" 
d="M473 571l-22 -55c-68 30 -132 43 -199 43c-74 0 -118 -43 -118 -89c0 -73 47 -88 171 -129c125 -42 188 -81 188 -182c0 -119 -91 -168 -196 -168c-90 0 -191 33 -262 86l28 52c74 -48 161 -75 231 -75c82 0 129 34 129 96c0 70 -36 95 -173 138
c-114 36 -186 64 -186 176c0 92 73 156 189 156c69 0 148 -16 220 -49z" />
    <glyph glyph-name="Sacute" unicode="&#x15a;" horiz-adv-x="548" 
d="M391 779l-1 -14c-51 -45 -77 -68 -140 -102l-22 22l109 130zM473 571l-22 -55c-68 30 -132 43 -199 43c-74 0 -118 -43 -118 -89c0 -73 47 -88 171 -129c125 -42 188 -81 188 -182c0 -119 -91 -168 -196 -168c-90 0 -191 33 -262 86l28 52c74 -48 161 -75 231 -75
c82 0 129 34 129 96c0 70 -36 95 -173 138c-114 36 -186 64 -186 176c0 92 73 156 189 156c69 0 148 -16 220 -49z" />
    <glyph glyph-name="Scaron" unicode="&#x160;" horiz-adv-x="548" 
d="M293 666h-51l-120 112l27 27l118 -84l119 84l27 -27zM473 571l-22 -55c-68 30 -132 43 -199 43c-74 0 -118 -43 -118 -89c0 -73 47 -88 171 -129c125 -42 188 -81 188 -182c0 -119 -91 -168 -196 -168c-90 0 -191 33 -262 86l28 52c74 -48 161 -75 231 -75
c82 0 129 34 129 96c0 70 -36 95 -173 138c-114 36 -186 64 -186 176c0 92 73 156 189 156c69 0 148 -16 220 -49z" />
    <glyph glyph-name="Scedilla" unicode="&#x15e;" horiz-adv-x="548" 
d="M473 571l-22 -55c-68 30 -132 43 -199 43c-74 0 -118 -43 -118 -89c0 -73 47 -88 171 -129c125 -42 188 -81 188 -182c0 -119 -91 -168 -196 -168c-10 0 -20 0 -30 1l-2 -28c73 -1 99 -22 99 -81c0 -56 -37 -87 -97 -87c-31 0 -63 7 -90 15l9 40c25 -5 48 -8 68 -8
c37 0 63 9 63 40c0 35 -20 42 -74 42h-33l16 72c-69 12 -138 41 -191 80l28 52c74 -48 161 -75 231 -75c82 0 129 34 129 96c0 70 -36 95 -173 138c-114 36 -186 64 -186 176c0 92 73 156 189 156c69 0 148 -16 220 -49z" />
    <glyph glyph-name="Scommaaccent" unicode="&#x218;" horiz-adv-x="555" 
d="M473 571l-22 -55c-68 30 -132 43 -199 43c-74 0 -118 -43 -118 -89c0 -73 47 -88 171 -129c125 -42 188 -81 188 -182c0 -119 -91 -168 -196 -168c-90 0 -191 33 -262 86l28 52c74 -48 161 -75 231 -75c82 0 129 34 129 96c0 70 -36 95 -173 138
c-114 36 -186 64 -186 176c0 92 73 156 189 156c69 0 148 -16 220 -49zM227 -223l-13 22c28 28 42 54 46 75c-19 5 -30 18 -30 37c0 23 15 40 39 40s39 -19 39 -43c0 -45 -28 -95 -81 -131z" />
    <glyph glyph-name="T" unicode="T" horiz-adv-x="535" 
d="M523 546h-221v-546h-69v546h-220v64h510v-64z" />
    <glyph glyph-name="Tcaron" unicode="&#x164;" horiz-adv-x="535" 
d="M293 666h-50l-120 112l27 27l118 -84l119 84l27 -27zM523 546h-221v-546h-69v546h-220v64h510v-64z" />
    <glyph glyph-name="uni021A" unicode="&#x21a;" horiz-adv-x="535" 
d="M523 546h-221v-546h-69v546h-220v64h510v-64zM229 -223l-13 22c28 28 42 54 46 75c-18 5 -30 18 -30 37c0 23 15 40 40 40c23 0 38 -19 38 -43c0 -45 -28 -95 -81 -131z" />
    <glyph glyph-name="U" unicode="U" horiz-adv-x="664" 
d="M586 610v-337c0 -180 -92 -282 -254 -282s-254 102 -254 283v336h68v-336c0 -141 68 -218 186 -218c119 0 186 77 186 218v336h68z" />
    <glyph glyph-name="Uacute" unicode="&#xda;" horiz-adv-x="663" 
d="M445 779l-1 -14c-50 -45 -76 -68 -139 -102l-22 22l108 130zM586 610v-337c0 -180 -92 -282 -254 -282s-254 102 -254 283v336h68v-336c0 -141 68 -218 186 -218c119 0 186 77 186 218v336h68z" />
    <glyph glyph-name="Ucircumflex" unicode="&#xdb;" horiz-adv-x="664" 
d="M332 742l-118 -85l-27 27l119 112h51l120 -112l-27 -27zM586 610v-337c0 -180 -92 -282 -254 -282s-254 102 -254 283v336h68v-336c0 -141 68 -218 186 -218c119 0 186 77 186 218v336h68z" />
    <glyph glyph-name="Udieresis" unicode="&#xdc;" horiz-adv-x="664" 
d="M240 770c25 0 43 -16 43 -42s-18 -41 -43 -41c-22 0 -42 15 -42 41s20 42 42 42zM423 770c23 0 43 -16 43 -42s-20 -41 -43 -41c-24 0 -43 15 -43 41s19 42 43 42zM586 610v-337c0 -180 -92 -282 -254 -282s-254 102 -254 283v336h68v-336c0 -141 68 -218 186 -218
c119 0 186 77 186 218v336h68z" />
    <glyph glyph-name="Ugrave" unicode="&#xd9;" horiz-adv-x="663" 
d="M372 678l-22 -22c-63 34 -89 56 -139 101l-1 14l54 36zM586 610v-337c0 -180 -92 -282 -254 -282s-254 102 -254 283v336h68v-336c0 -141 68 -218 186 -218c119 0 186 77 186 218v336h68z" />
    <glyph glyph-name="Uhungarumlaut" unicode="&#x170;" horiz-adv-x="663" 
d="M379 789v-15c-45 -42 -76 -71 -123 -106l-29 16l101 131zM507 789l-1 -15c-45 -42 -75 -71 -123 -106l-29 16l102 131zM586 610v-337c0 -180 -92 -282 -254 -282s-254 102 -254 283v336h68v-336c0 -141 68 -218 186 -218c119 0 186 77 186 218v336h68z" />
    <glyph glyph-name="Umacron" unicode="&#x16a;" horiz-adv-x="664" 
d="M449 698h-234v59h234v-59zM586 610v-337c0 -180 -92 -282 -254 -282s-254 102 -254 283v336h68v-336c0 -141 68 -218 186 -218c119 0 186 77 186 218v336h68z" />
    <glyph glyph-name="Uogonek" unicode="&#x172;" horiz-adv-x="664" 
d="M586 610v-337c0 -175 -86 -276 -240 -282c-36 -17 -57 -42 -57 -68c0 -32 28 -53 71 -53c21 0 42 5 65 9l10 -46c-29 -10 -59 -16 -91 -16c-66 0 -105 33 -105 94c0 31 18 60 48 83c-134 17 -209 116 -209 280v336h68v-336c0 -141 68 -218 186 -218c119 0 186 77 186 218
v336h68z" />
    <glyph glyph-name="Uring" unicode="&#x16e;" horiz-adv-x="664" 
d="M332 841c55 0 93 -37 93 -94c0 -52 -38 -88 -94 -88c-54 0 -92 36 -92 88c0 57 38 94 93 94zM331 699c32 0 53 19 53 48c0 33 -21 54 -52 54s-52 -21 -52 -54c0 -29 21 -48 51 -48zM586 610v-337c0 -180 -92 -282 -254 -282s-254 102 -254 283v336h68v-336
c0 -141 68 -218 186 -218c119 0 186 77 186 218v336h68z" />
    <glyph glyph-name="V" unicode="V" horiz-adv-x="627" 
d="M353 0h-79l-258 610h77l196 -470c9 -24 18 -50 25 -72c6 22 15 48 24 72l199 470h74z" />
    <glyph glyph-name="W" unicode="W" horiz-adv-x="879" 
d="M683 0h-98l-131 446c-5 17 -10 40 -14 63c-4 -24 -9 -46 -14 -63l-131 -446h-98l-180 610h76l135 -470c7 -25 12 -53 16 -77c5 24 13 52 19 77l138 470h77l138 -470c7 -25 14 -52 19 -77c4 25 10 52 16 77l135 470h77z" />
    <glyph glyph-name="Wacute" unicode="&#x1e82;" horiz-adv-x="879" 
d="M563 779l-1 -14c-51 -45 -77 -68 -139 -102l-22 22l108 130zM683 0h-98l-131 446c-5 17 -10 40 -14 63c-4 -24 -9 -46 -14 -63l-131 -446h-98l-180 610h76l135 -470c7 -25 12 -53 16 -77c5 24 13 52 19 77l138 470h77l138 -470c7 -25 14 -52 19 -77c4 25 10 52 16 77
l135 470h77z" />
    <glyph glyph-name="Wcircumflex" unicode="&#x174;" horiz-adv-x="879" 
d="M440 742l-119 -85l-27 27l120 112h51l120 -112l-27 -27zM683 0h-98l-131 446c-5 17 -10 40 -14 63c-4 -24 -9 -46 -14 -63l-131 -446h-98l-180 610h76l135 -470c7 -25 12 -53 16 -77c5 24 13 52 19 77l138 470h77l138 -470c7 -25 14 -52 19 -77c4 25 10 52 16 77l135 470
h77z" />
    <glyph glyph-name="Wdieresis" unicode="&#x1e84;" horiz-adv-x="879" 
d="M348 770c25 0 43 -16 43 -42s-18 -41 -43 -41c-22 0 -42 15 -42 41s20 42 42 42zM531 770c23 0 42 -16 42 -42s-19 -41 -42 -41c-25 0 -43 15 -43 41s18 42 43 42zM683 0h-98l-131 446c-5 17 -10 40 -14 63c-4 -24 -9 -46 -14 -63l-131 -446h-98l-180 610h76l135 -470
c7 -25 12 -53 16 -77c5 24 13 52 19 77l138 470h77l138 -470c7 -25 14 -52 19 -77c4 25 10 52 16 77l135 470h77z" />
    <glyph glyph-name="Wgrave" unicode="&#x1e80;" horiz-adv-x="879" 
d="M476 678l-22 -22c-62 34 -88 56 -139 101l-1 14l55 36zM683 0h-98l-131 446c-5 17 -10 40 -14 63c-4 -24 -9 -46 -14 -63l-131 -446h-98l-180 610h76l135 -470c7 -25 12 -53 16 -77c5 24 13 52 19 77l138 470h77l138 -470c7 -25 14 -52 19 -77c4 25 10 52 16 77l135 470
h77z" />
    <glyph glyph-name="X" unicode="X" horiz-adv-x="589" 
d="M566 0h-83l-173 249c-6 8 -11 17 -16 24c-4 -7 -10 -15 -15 -23l-174 -250h-83l218 312l-210 298h84l165 -231c5 -8 11 -17 15 -25c5 8 10 16 16 25l164 231h84l-211 -298z" />
    <glyph glyph-name="Y" unicode="Y" horiz-adv-x="560" 
d="M314 210v-210h-68v210l-227 400h70l173 -294c7 -12 13 -27 18 -42c5 15 11 29 19 42l172 294h71z" />
    <glyph glyph-name="Yacute" unicode="&#xdd;" horiz-adv-x="560" 
d="M404 779l-1 -14c-51 -45 -77 -68 -140 -102l-22 22l109 130zM314 210v-210h-68v210l-227 400h70l173 -294c7 -12 13 -27 18 -42c5 15 11 29 19 42l172 294h71z" />
    <glyph glyph-name="Ycircumflex" unicode="&#x176;" horiz-adv-x="560" 
d="M281 742l-119 -85l-27 27l120 112h51l120 -112l-27 -27zM314 210v-210h-68v210l-227 400h70l173 -294c7 -12 13 -27 18 -42c5 15 11 29 19 42l172 294h71z" />
    <glyph glyph-name="Ydieresis" unicode="&#x178;" horiz-adv-x="560" 
d="M189 770c25 0 43 -16 43 -42s-18 -41 -43 -41c-22 0 -42 15 -42 41s20 42 42 42zM372 770c23 0 42 -16 42 -42s-19 -41 -42 -41c-25 0 -43 15 -43 41s18 42 43 42zM314 210v-210h-68v210l-227 400h70l173 -294c7 -12 13 -27 18 -42c5 15 11 29 19 42l172 294h71z" />
    <glyph glyph-name="Ygrave" unicode="&#x1ef2;" horiz-adv-x="560" 
d="M317 678l-22 -22c-63 34 -89 56 -139 101l-1 14l54 36zM314 210v-210h-68v210l-227 400h70l173 -294c7 -12 13 -27 18 -42c5 15 11 29 19 42l172 294h71z" />
    <glyph glyph-name="Z" unicode="Z" horiz-adv-x="582" 
d="M538 0h-486v54l394 494c-29 -1 -60 -2 -89 -2h-288v64h464v-56l-385 -492c28 1 58 2 85 2h305v-64z" />
    <glyph glyph-name="Zacute" unicode="&#x179;" horiz-adv-x="582" 
d="M414 779l-1 -14c-50 -45 -76 -68 -139 -102l-22 22l108 130zM538 0h-486v54l394 494c-29 -1 -60 -2 -89 -2h-288v64h464v-56l-385 -492c28 1 58 2 85 2h305v-64z" />
    <glyph glyph-name="Zcaron" unicode="&#x17d;" horiz-adv-x="582" 
d="M316 666h-50l-120 112l27 27l118 -84l119 84l27 -27zM538 0h-486v54l394 494c-29 -1 -60 -2 -89 -2h-288v64h464v-56l-385 -492c28 1 58 2 85 2h305v-64z" />
    <glyph glyph-name="Zdotaccent" unicode="&#x17b;" horiz-adv-x="582" 
d="M291 776c26 0 49 -18 49 -48s-23 -48 -49 -48c-28 0 -49 18 -49 48s21 48 49 48zM538 0h-486v54l394 494c-29 -1 -60 -2 -89 -2h-288v64h464v-56l-385 -492c28 1 58 2 85 2h305v-64z" />
    <glyph glyph-name="J.ss01" horiz-adv-x="262" 
d="M170 610v-544c0 -130 -36 -181 -142 -217l-24 56c71 28 97 63 97 148v557h69z" />
    <glyph glyph-name="K.ss02" horiz-adv-x="612" 
d="M161 278v-278h-68v610h68v-268h124l214 268h75v-5l-230 -293l240 -306v-6h-80l-218 278h-125z" />
    <glyph glyph-name="Kcommaaccent.ss02" horiz-adv-x="612" 
d="M161 278v-278h-68v610h68v-268h124l214 268h75v-5l-230 -293l240 -306v-6h-80l-218 278h-125zM259 -223l-14 22c28 28 42 54 46 75c-18 5 -30 18 -30 37c0 23 15 40 40 40c23 0 38 -19 38 -43c0 -45 -27 -95 -80 -131z" />
    <glyph glyph-name="Q.ss03" horiz-adv-x="666" 
d="M601 -91l-48 -40c-68 67 -100 103 -125 134c-29 -8 -60 -12 -95 -12c-180 0 -282 113 -282 314c0 202 102 315 282 315s282 -113 282 -315c0 -136 -46 -231 -132 -278c23 -26 58 -61 118 -118zM121 304c0 -162 75 -249 212 -249s212 87 212 249c0 164 -75 252 -212 252
s-212 -88 -212 -252z" />
    <glyph glyph-name="R.ss04" horiz-adv-x="626" 
d="M93 610h216c160 0 244 -68 244 -194c0 -117 -50 -164 -138 -178c92 -40 137 -167 164 -238h-78c-33 81 -84 213 -171 213h-169v-213h-68v610zM161 277h170c95 0 153 41 153 137c0 86 -60 132 -175 132h-148v-269z" />
    <glyph glyph-name="Racute.ss04" horiz-adv-x="626" 
d="M430 779l-1 -14c-51 -45 -77 -68 -139 -102l-22 22l108 130zM93 610h216c160 0 244 -68 244 -194c0 -117 -50 -164 -138 -178c92 -40 137 -167 164 -238h-78c-33 81 -84 213 -171 213h-169v-213h-68v610zM161 277h170c95 0 153 41 153 137c0 86 -60 132 -175 132h-148
v-269z" />
    <glyph glyph-name="Rcaron.ss04" horiz-adv-x="626" 
d="M281 666l-120 112l27 27l119 -84l118 84l27 -27l-120 -112h-51zM93 610h216c160 0 244 -68 244 -194c0 -117 -50 -164 -138 -178c92 -40 137 -167 164 -238h-78c-33 81 -84 213 -171 213h-169v-213h-68v610zM161 277h170c95 0 153 41 153 137c0 86 -60 132 -175 132h-148
v-269z" />
    <glyph glyph-name="Rcommaaccent.ss04" horiz-adv-x="626" 
d="M93 610h216c160 0 244 -68 244 -194c0 -117 -50 -164 -138 -178c92 -40 137 -167 164 -238h-78c-33 81 -84 213 -171 213h-169v-213h-68v610zM161 277h170c95 0 153 41 153 137c0 86 -60 132 -175 132h-148v-269zM261 -223l-14 22c28 28 42 54 46 75c-18 5 -30 18 -30 37
c0 23 15 40 40 40c23 0 38 -19 38 -43c0 -45 -27 -95 -80 -131z" />
    <glyph glyph-name="a" unicode="a" horiz-adv-x="509" 
d="M100 393l-11 54c83 23 133 30 185 30c129 0 166 -59 166 -197v-280h-67v73c-43 -46 -93 -82 -172 -82c-107 0 -160 45 -160 143c0 100 64 148 195 148c60 0 90 0 137 -1c0 104 -22 136 -109 136c-43 0 -95 -7 -164 -24zM373 233l-130 -1c-94 0 -140 -22 -140 -92
c0 -63 38 -98 116 -98c62 0 114 36 154 87v104z" />
    <glyph glyph-name="aacute" unicode="&#xe1;" horiz-adv-x="509" 
d="M350 652l-1 -14c-50 -45 -76 -68 -139 -108l-22 22l108 136zM100 393l-11 54c83 23 133 30 185 30c129 0 166 -59 166 -197v-280h-67v73c-43 -46 -93 -82 -172 -82c-107 0 -160 45 -160 143c0 100 64 148 195 148c60 0 90 0 137 -1c0 104 -22 136 -109 136
c-43 0 -95 -7 -164 -24zM373 233l-130 -1c-94 0 -140 -22 -140 -92c0 -63 38 -98 116 -98c62 0 114 36 154 87v104z" />
    <glyph glyph-name="abreve" unicode="&#x103;" horiz-adv-x="509" 
d="M338 659h51c0 -82 -42 -126 -135 -126c-92 0 -133 44 -133 125h50c3 -48 26 -76 83 -76s80 28 84 77zM100 393l-11 54c83 23 133 30 185 30c129 0 166 -59 166 -197v-280h-67v73c-43 -46 -93 -82 -172 -82c-107 0 -160 45 -160 143c0 100 64 148 195 148
c60 0 90 0 137 -1c0 104 -22 136 -109 136c-43 0 -95 -7 -164 -24zM373 233l-130 -1c-94 0 -140 -22 -140 -92c0 -63 38 -98 116 -98c62 0 114 36 154 87v104z" />
    <glyph glyph-name="acircumflex" unicode="&#xe2;" horiz-adv-x="509" 
d="M400 561l-27 -27c-43 33 -78 59 -118 91c-41 -32 -76 -58 -119 -91l-27 27l120 118h51zM100 393l-11 54c83 23 133 30 185 30c129 0 166 -59 166 -197v-280h-67v73c-43 -46 -93 -82 -172 -82c-107 0 -160 45 -160 143c0 100 64 148 195 148c60 0 90 0 137 -1
c0 104 -22 136 -109 136c-43 0 -95 -7 -164 -24zM373 233l-130 -1c-94 0 -140 -22 -140 -92c0 -63 38 -98 116 -98c62 0 114 36 154 87v104z" />
    <glyph glyph-name="adieresis" unicode="&#xe4;" horiz-adv-x="509" 
d="M163 651c25 0 43 -16 43 -42s-18 -41 -43 -41c-22 0 -42 15 -42 41s20 42 42 42zM346 651c23 0 42 -16 42 -42s-19 -41 -42 -41c-25 0 -43 15 -43 41s18 42 43 42zM100 393l-11 54c83 23 133 30 185 30c129 0 166 -59 166 -197v-280h-67v73c-43 -46 -93 -82 -172 -82
c-107 0 -160 45 -160 143c0 100 64 148 195 148c60 0 90 0 137 -1c0 104 -22 136 -109 136c-43 0 -95 -7 -164 -24zM373 233l-130 -1c-94 0 -140 -22 -140 -92c0 -63 38 -98 116 -98c62 0 114 36 154 87v104z" />
    <glyph glyph-name="agrave" unicode="&#xe0;" horiz-adv-x="509" 
d="M319 561l-22 -22c-62 41 -88 63 -139 108l-1 14l55 36zM100 393l-11 54c83 23 133 30 185 30c129 0 166 -59 166 -197v-280h-67v73c-43 -46 -93 -82 -172 -82c-107 0 -160 45 -160 143c0 100 64 148 195 148c60 0 90 0 137 -1c0 104 -22 136 -109 136
c-43 0 -95 -7 -164 -24zM373 233l-130 -1c-94 0 -140 -22 -140 -92c0 -63 38 -98 116 -98c62 0 114 36 154 87v104z" />
    <glyph glyph-name="amacron" unicode="&#x101;" horiz-adv-x="509" 
d="M371 574h-233v59h233v-59zM100 393l-11 54c83 23 133 30 185 30c129 0 166 -59 166 -197v-280h-67v73c-43 -46 -93 -82 -172 -82c-107 0 -160 45 -160 143c0 100 64 148 195 148c60 0 90 0 137 -1c0 104 -22 136 -109 136c-43 0 -95 -7 -164 -24zM373 233l-130 -1
c-94 0 -140 -22 -140 -92c0 -63 38 -98 116 -98c62 0 114 36 154 87v104z" />
    <glyph glyph-name="aogonek" unicode="&#x105;" horiz-adv-x="509" 
d="M465 -121l10 -46c-29 -10 -58 -16 -91 -16c-65 0 -105 33 -105 94c0 45 37 84 94 109v53c-43 -46 -93 -82 -172 -82c-107 0 -160 45 -160 143c0 100 64 148 195 148c60 0 90 0 137 -1c0 104 -22 136 -109 136c-43 0 -95 -7 -164 -24l-12 54c84 23 134 30 186 30
c129 0 166 -59 166 -197v-280h-33c-48 -17 -77 -47 -77 -77c0 -32 27 -53 70 -53c21 0 42 5 65 9zM373 233l-130 -1c-94 0 -140 -22 -140 -92c0 -63 38 -98 116 -98c62 0 114 36 154 87v104z" />
    <glyph glyph-name="aring" unicode="&#xe5;" horiz-adv-x="509" 
d="M255 709c54 0 93 -37 93 -93c0 -52 -39 -89 -94 -89c-54 0 -92 37 -92 89c0 56 38 93 93 93zM254 568c32 0 53 18 53 48c0 33 -21 54 -52 54c-32 0 -52 -21 -52 -54c0 -30 20 -48 51 -48zM100 393l-11 54c83 23 133 30 185 30c129 0 166 -59 166 -197v-280h-67v73
c-43 -46 -93 -82 -172 -82c-107 0 -160 45 -160 143c0 100 64 148 195 148c60 0 90 0 137 -1c0 104 -22 136 -109 136c-43 0 -95 -7 -164 -24zM373 233l-130 -1c-94 0 -140 -22 -140 -92c0 -63 38 -98 116 -98c62 0 114 36 154 87v104z" />
    <glyph glyph-name="atilde" unicode="&#xe3;" horiz-adv-x="509" 
d="M370 664l37 -10c-20 -80 -82 -101 -135 -74l-55 28c-38 19 -61 8 -77 -31l-37 10c20 77 78 96 134 69l55 -26c39 -19 62 -7 78 34zM100 393l-11 54c83 23 133 30 185 30c129 0 166 -59 166 -197v-280h-67v73c-43 -46 -93 -82 -172 -82c-107 0 -160 45 -160 143
c0 100 64 148 195 148c60 0 90 0 137 -1c0 104 -22 136 -109 136c-43 0 -95 -7 -164 -24zM373 233l-130 -1c-94 0 -140 -22 -140 -92c0 -63 38 -98 116 -98c62 0 114 36 154 87v104z" />
    <glyph glyph-name="ae" unicode="&#xe6;" horiz-adv-x="849" 
d="M100 398l-11 49c83 24 133 30 185 30c76 0 117 -30 137 -82c41 57 106 82 179 82c124 0 202 -74 206 -228c0 -10 0 -18 -2 -33h-363c5 -125 74 -171 157 -171c63 0 116 18 171 63l27 -43c-59 -53 -121 -74 -200 -74c-74 0 -138 25 -177 82c-52 -50 -110 -82 -188 -82
c-127 0 -180 48 -180 146c0 83 64 133 195 133c54 0 79 -1 131 -1c1 104 -16 152 -103 152c-43 0 -95 -6 -164 -23zM433 269h303c-6 106 -62 153 -145 153c-79 0 -147 -42 -158 -153zM367 216c-51 0 -75 1 -124 1c-96 0 -139 -22 -139 -76c0 -62 37 -96 129 -96
c60 0 109 25 155 65c-12 29 -19 64 -21 106z" />
    <glyph glyph-name="b" unicode="b" horiz-adv-x="561" 
d="M143 655v-259c46 48 112 80 183 80c113 0 189 -64 189 -241s-98 -244 -200 -244c-82 0 -125 31 -172 80v-71h-66v655h66zM143 332v-196c43 -51 92 -89 154 -89c78 0 152 50 152 188s-59 185 -142 185c-63 0 -123 -40 -164 -88z" />
    <glyph glyph-name="c" unicode="c" horiz-adv-x="495" 
d="M433 107l26 -44c-62 -54 -115 -72 -198 -72c-124 0 -215 85 -215 239c0 160 96 247 226 247c53 0 116 -14 168 -48l-24 -46c-48 28 -104 37 -143 37c-91 0 -161 -65 -161 -190c0 -120 67 -181 157 -181c62 0 108 14 164 58z" />
    <glyph glyph-name="cacute" unicode="&#x107;" horiz-adv-x="496" 
d="M362 652l-1 -14c-51 -45 -77 -68 -140 -108l-22 22l109 136zM433 107l26 -44c-62 -54 -115 -72 -198 -72c-124 0 -215 85 -215 239c0 160 96 247 226 247c53 0 116 -14 168 -48l-24 -46c-48 28 -104 37 -143 37c-91 0 -161 -65 -161 -190c0 -120 67 -181 157 -181
c62 0 108 14 164 58z" />
    <glyph glyph-name="ccaron" unicode="&#x10d;" horiz-adv-x="495" 
d="M288 533h-51l-119 118l27 28c42 -34 77 -59 118 -91c41 32 76 57 118 91l27 -28zM433 107l26 -44c-62 -54 -115 -72 -198 -72c-124 0 -215 85 -215 239c0 160 96 247 226 247c53 0 116 -14 168 -48l-24 -46c-48 28 -104 37 -143 37c-91 0 -161 -65 -161 -190
c0 -120 67 -181 157 -181c62 0 108 14 164 58z" />
    <glyph glyph-name="ccedilla" unicode="&#xe7;" horiz-adv-x="495" 
d="M260 -9l-2 -27c73 -1 99 -22 99 -81c0 -56 -37 -87 -97 -87c-31 0 -63 7 -90 15l9 40c25 -5 48 -8 68 -8c37 0 63 9 63 40c0 35 -20 42 -74 42h-33l16 70c-102 17 -173 99 -173 235c0 160 96 247 226 247c53 0 116 -14 168 -48l-24 -46c-48 28 -104 37 -143 37
c-91 0 -161 -65 -161 -190c0 -120 67 -181 157 -181c62 0 108 14 164 58l26 -44c-62 -54 -115 -72 -199 -72z" />
    <glyph glyph-name="cdotaccent" unicode="&#x10b;" horiz-adv-x="495" 
d="M263 659c26 0 49 -18 49 -48s-23 -47 -49 -47c-28 0 -49 17 -49 47s21 48 49 48zM433 107l26 -44c-62 -54 -115 -72 -198 -72c-124 0 -215 85 -215 239c0 160 96 247 226 247c53 0 116 -14 168 -48l-24 -46c-48 28 -104 37 -143 37c-91 0 -161 -65 -161 -190
c0 -120 67 -181 157 -181c62 0 108 14 164 58z" />
    <glyph glyph-name="d" unicode="d" horiz-adv-x="561" 
d="M418 0v71c-47 -49 -90 -80 -172 -80c-102 0 -200 67 -200 244s78 242 189 242c71 0 138 -31 183 -78v256h67v-655h-67zM418 136v196c-44 55 -101 88 -164 88c-83 0 -142 -47 -142 -185c0 -137 74 -188 152 -188c69 0 112 38 154 89z" />
    <glyph glyph-name="eth" unicode="&#xf0;" horiz-adv-x="556" 
d="M412 626l-83 -44c133 -108 181 -204 181 -352c0 -152 -84 -239 -233 -239c-146 0 -231 87 -231 239c0 146 80 238 313 239c-24 28 -54 55 -91 83l-128 -66l-19 41l106 56c-25 17 -53 35 -84 54v11l59 26c32 -21 61 -41 88 -61l102 54zM277 46c107 0 167 63 167 184
c0 72 -13 132 -48 188c-225 -1 -284 -61 -284 -190c0 -119 59 -182 165 -182z" />
    <glyph glyph-name="dcaron" unicode="&#x10f;" horiz-adv-x="561" 
d="M601 655v-13c-3 -53 -12 -105 -25 -152h-40l8 165h57zM418 0v71c-47 -49 -90 -80 -172 -80c-102 0 -200 67 -200 244s78 242 189 242c71 0 138 -31 183 -78v256h67v-655h-67zM418 136v196c-44 55 -101 88 -164 88c-83 0 -142 -47 -142 -185c0 -137 74 -188 152 -188
c69 0 112 38 154 89z" />
    <glyph glyph-name="dcroat" unicode="&#x111;" horiz-adv-x="562" 
d="M533 528h-55v-528h-66v71c-48 -49 -91 -80 -172 -80c-103 0 -200 67 -200 244s77 242 188 242c71 0 138 -31 184 -78v129h-136v51h136v76h66v-76h55v-51zM412 136v196c-44 55 -102 88 -165 88c-82 0 -141 -47 -141 -185c0 -137 74 -188 151 -188c69 0 112 38 155 89z" />
    <glyph glyph-name="e" unicode="e" horiz-adv-x="522" 
d="M438 108l27 -43c-59 -53 -121 -74 -200 -74c-123 0 -219 68 -219 239c0 175 99 247 223 247s202 -74 206 -228c0 -10 0 -18 -2 -33h-363c5 -125 74 -171 157 -171c63 0 116 18 171 63zM112 269h303c-6 106 -62 153 -145 153c-79 0 -147 -42 -158 -153z" />
    <glyph glyph-name="eacute" unicode="&#xe9;" horiz-adv-x="522" 
d="M359 652l-1 -14c-50 -45 -76 -68 -139 -108l-22 22l108 136zM438 108l27 -43c-59 -53 -121 -74 -200 -74c-123 0 -219 68 -219 239c0 175 99 247 223 247s202 -74 206 -228c0 -10 0 -18 -2 -33h-363c5 -125 74 -171 157 -171c63 0 116 18 171 63zM112 269h303
c-6 106 -62 153 -145 153c-79 0 -147 -42 -158 -153z" />
    <glyph glyph-name="ecaron" unicode="&#x11b;" horiz-adv-x="522" 
d="M285 533h-51l-119 118l27 28c42 -34 77 -59 118 -91c41 32 76 57 118 91l27 -28zM438 108l27 -43c-59 -53 -121 -74 -200 -74c-123 0 -219 68 -219 239c0 175 99 247 223 247s202 -74 206 -228c0 -10 0 -18 -2 -33h-363c5 -125 74 -171 157 -171c63 0 116 18 171 63z
M112 269h303c-6 106 -62 153 -145 153c-79 0 -147 -42 -158 -153z" />
    <glyph glyph-name="ecircumflex" unicode="&#xea;" horiz-adv-x="522" 
d="M405 561l-27 -27c-42 33 -77 59 -118 91c-41 -32 -76 -58 -118 -91l-27 27l119 118h51zM438 108l27 -43c-59 -53 -121 -74 -200 -74c-123 0 -219 68 -219 239c0 175 99 247 223 247s202 -74 206 -228c0 -10 0 -18 -2 -33h-363c5 -125 74 -171 157 -171
c63 0 116 18 171 63zM112 269h303c-6 106 -62 153 -145 153c-79 0 -147 -42 -158 -153z" />
    <glyph glyph-name="edieresis" unicode="&#xeb;" horiz-adv-x="522" 
d="M168 651c25 0 43 -16 43 -42s-18 -41 -43 -41c-22 0 -42 15 -42 41s20 42 42 42zM351 651c23 0 43 -16 43 -42s-20 -41 -43 -41c-24 0 -43 15 -43 41s19 42 43 42zM438 108l27 -43c-59 -53 -121 -74 -200 -74c-123 0 -219 68 -219 239c0 175 99 247 223 247
s202 -74 206 -228c0 -10 0 -18 -2 -33h-363c5 -125 74 -171 157 -171c63 0 116 18 171 63zM112 269h303c-6 106 -62 153 -145 153c-79 0 -147 -42 -158 -153z" />
    <glyph glyph-name="edotaccent" unicode="&#x117;" horiz-adv-x="522" 
d="M260 659c26 0 49 -18 49 -48s-23 -47 -49 -47c-28 0 -49 17 -49 47s21 48 49 48zM438 108l27 -43c-59 -53 -121 -74 -200 -74c-123 0 -219 68 -219 239c0 175 99 247 223 247s202 -74 206 -228c0 -10 0 -18 -2 -33h-363c5 -125 74 -171 157 -171c63 0 116 18 171 63z
M112 269h303c-6 106 -62 153 -145 153c-79 0 -147 -42 -158 -153z" />
    <glyph glyph-name="egrave" unicode="&#xe8;" horiz-adv-x="522" 
d="M315 561l-22 -22c-63 41 -89 63 -139 108l-1 14l54 36zM438 108l27 -43c-59 -53 -121 -74 -200 -74c-123 0 -219 68 -219 239c0 175 99 247 223 247s202 -74 206 -228c0 -10 0 -18 -2 -33h-363c5 -125 74 -171 157 -171c63 0 116 18 171 63zM112 269h303
c-6 106 -62 153 -145 153c-79 0 -147 -42 -158 -153z" />
    <glyph glyph-name="emacron" unicode="&#x113;" horiz-adv-x="522" 
d="M377 574h-233v59h233v-59zM438 108l27 -43c-59 -53 -121 -74 -200 -74c-123 0 -219 68 -219 239c0 175 99 247 223 247s202 -74 206 -228c0 -10 0 -18 -2 -33h-363c5 -125 74 -171 157 -171c63 0 116 18 171 63zM112 269h303c-6 106 -62 153 -145 153
c-79 0 -147 -42 -158 -153z" />
    <glyph glyph-name="eogonek" unicode="&#x119;" horiz-adv-x="522" 
d="M383 -121l10 -46c-29 -10 -58 -16 -91 -16c-65 0 -105 33 -105 94c0 30 17 58 46 81c-112 8 -197 78 -197 238c0 175 99 247 223 247s202 -74 206 -228c0 -10 0 -18 -2 -33h-363c5 -125 74 -171 157 -171c63 0 116 18 171 63l27 -43c-48 -43 -97 -65 -156 -72
c-39 -17 -61 -43 -61 -70c0 -32 27 -53 70 -53c21 0 42 5 65 9zM112 269h303c-6 106 -62 153 -145 153c-79 0 -147 -42 -158 -153z" />
    <glyph glyph-name="f" unicode="f" horiz-adv-x="317" 
d="M325 660l-6 -51c-20 2 -44 3 -72 3c-68 0 -89 -35 -89 -100v-44h152v-57h-152v-411h-67v411h-67v57h67v45c0 103 41 155 146 155c36 0 66 -3 88 -8z" />
    <glyph glyph-name="g" unicode="g" horiz-adv-x="544" 
d="M485 468v-400c0 -157 -83 -223 -206 -223c-83 0 -151 20 -207 53l20 50c51 -26 110 -43 180 -43c90 0 146 46 146 163v33c-48 -52 -93 -80 -174 -80c-106 0 -198 61 -198 216c0 175 76 240 189 240c71 0 137 -33 183 -77v68h67zM418 164v168c-48 55 -101 88 -164 88
c-83 0 -142 -45 -142 -183c0 -122 74 -162 152 -162c69 0 112 39 154 89z" />
    <glyph glyph-name="gbreve" unicode="&#x11f;" horiz-adv-x="544" 
d="M356 659h51c0 -82 -42 -126 -135 -126c-92 0 -133 44 -133 126h50c3 -49 26 -77 83 -77s80 28 84 77zM485 468v-400c0 -157 -83 -223 -206 -223c-83 0 -151 20 -207 53l20 50c51 -26 110 -43 180 -43c90 0 146 46 146 163v33c-48 -52 -93 -80 -174 -80
c-106 0 -198 61 -198 216c0 175 76 240 189 240c71 0 137 -33 183 -77v68h67zM418 164v168c-48 55 -101 88 -164 88c-83 0 -142 -45 -142 -183c0 -122 74 -162 152 -162c69 0 112 39 154 89z" />
    <glyph glyph-name="gcommaaccent" unicode="&#x123;" horiz-adv-x="544" 
d="M305 697l14 -22c-25 -25 -40 -50 -46 -72c19 -3 32 -18 32 -37c0 -23 -17 -39 -40 -39c-24 0 -40 19 -40 43c0 42 24 86 80 127zM485 468v-400c0 -157 -83 -223 -206 -223c-83 0 -151 20 -207 53l20 50c51 -26 110 -43 180 -43c90 0 146 46 146 163v33
c-48 -52 -93 -80 -174 -80c-106 0 -198 61 -198 216c0 175 76 240 189 240c71 0 137 -33 183 -77v68h67zM418 164v168c-48 55 -101 88 -164 88c-83 0 -142 -45 -142 -183c0 -122 74 -162 152 -162c69 0 112 39 154 89z" />
    <glyph glyph-name="gdotaccent" unicode="&#x121;" horiz-adv-x="544" 
d="M273 659c26 0 49 -17 49 -48c0 -29 -23 -47 -49 -47c-28 0 -49 18 -49 47c0 31 21 48 49 48zM485 468v-400c0 -157 -83 -223 -206 -223c-83 0 -151 20 -207 53l20 50c51 -26 110 -43 180 -43c90 0 146 46 146 163v33c-48 -52 -93 -80 -174 -80c-106 0 -198 61 -198 216
c0 175 76 240 189 240c71 0 137 -33 183 -77v68h67zM418 164v168c-48 55 -101 88 -164 88c-83 0 -142 -45 -142 -183c0 -122 74 -162 152 -162c69 0 112 39 154 89z" />
    <glyph glyph-name="h" unicode="h" horiz-adv-x="552" 
d="M143 655v-269c51 57 114 91 188 91c109 0 149 -59 149 -185v-292h-67v273c0 95 -19 138 -100 138c-65 0 -122 -36 -170 -97v-314h-66v655h66z" />
    <glyph glyph-name="hbar" unicode="&#x127;" horiz-adv-x="551" 
d="M136 536v-150c50 57 113 91 188 91c108 0 149 -59 149 -185v-292h-67v273c0 95 -20 138 -100 138c-65 0 -123 -36 -170 -97v-314h-67v536h-44v37h44v82h67v-82h146v-37h-146z" />
    <glyph glyph-name="i" unicode="i" horiz-adv-x="223" 
d="M70 605c0 25 19 39 42 39s42 -14 42 -39c0 -26 -19 -40 -42 -40s-42 14 -42 40zM145 0h-67v468h67v-468z" />
    <glyph glyph-name="dotlessi" unicode="&#x131;" horiz-adv-x="223" 
d="M145 0h-67v468h67v-468z" />
    <glyph glyph-name="iacute" unicode="&#xed;" horiz-adv-x="223" 
d="M217 652l-1 -14c-51 -45 -77 -68 -139 -108l-22 22l108 136zM145 0h-67v468h67v-468z" />
    <glyph glyph-name="icircumflex" unicode="&#xee;" horiz-adv-x="223" 
d="M257 561l-27 -27c-43 33 -78 59 -118 91c-41 -32 -76 -58 -119 -91l-27 27l120 118h51zM145 0h-67v468h67v-468z" />
    <glyph glyph-name="idieresis" unicode="&#xef;" horiz-adv-x="223" 
d="M20 651c25 0 43 -16 43 -42s-18 -41 -43 -41c-22 0 -42 15 -42 41s20 42 42 42zM203 651c23 0 42 -16 42 -42s-19 -41 -42 -41c-25 0 -43 15 -43 41s18 42 43 42zM145 0h-67v468h67v-468z" />
    <glyph glyph-name="igrave" unicode="&#xec;" horiz-adv-x="223" 
d="M159 561l-22 -22c-62 41 -88 63 -139 108l-1 14l55 36zM145 0h-67v468h67v-468z" />
    <glyph glyph-name="ij" unicode="&#x133;" horiz-adv-x="427" 
d="M70 605c0 25 19 39 42 39s42 -14 42 -39c0 -26 -19 -40 -42 -40s-42 14 -42 40zM314 565c-23 0 -42 14 -42 40c0 25 19 39 42 39s42 -14 42 -39c0 -26 -19 -40 -42 -40zM145 0h-67v468h67v-468zM348 468v-449c0 -107 -25 -163 -107 -186l-16 53c44 21 56 52 56 133v449
h67z" />
    <glyph glyph-name="imacron" unicode="&#x12b;" horiz-adv-x="223" 
d="M228 574h-233v59h233v-59zM145 0h-67v468h67v-468z" />
    <glyph glyph-name="iogonek" unicode="&#x12f;" horiz-adv-x="223" 
d="M112 564c-28 0 -50 17 -50 47s22 48 50 48c26 0 48 -18 48 -48s-22 -47 -48 -47zM184 -121l10 -46c-29 -10 -59 -16 -91 -16c-66 0 -105 33 -105 94c0 41 31 77 80 103v454h67v-468h-19c-49 -17 -78 -47 -78 -77c0 -32 28 -53 71 -53c21 0 42 5 65 9z" />
    <glyph glyph-name="j" unicode="j" horiz-adv-x="223" 
d="M111 565c-23 0 -42 14 -42 40c0 25 19 39 42 39s42 -14 42 -39c0 -26 -19 -40 -42 -40zM145 468v-449c0 -107 -26 -163 -108 -186l-15 53c44 21 56 52 56 133v449h67z" />
    <glyph glyph-name="k" unicode="k" horiz-adv-x="513" 
d="M476 468v-5l-188 -182l220 -276v-5h-79l-190 232l-96 -93v-139h-67v655h67v-428l251 241h82z" />
    <glyph glyph-name="kcommaaccent" unicode="&#x137;" horiz-adv-x="513" 
d="M476 468v-5l-188 -182l220 -276v-5h-79l-190 232l-96 -93v-139h-67v655h67v-428l251 241h82zM231 -223l-13 22c28 28 42 54 46 75c-18 5 -30 18 -30 37c0 23 15 40 40 40c23 0 38 -19 38 -43c0 -45 -28 -95 -81 -131z" />
    <glyph glyph-name="l" unicode="l" horiz-adv-x="219" 
d="M143 0h-67v655h67v-655z" />
    <glyph glyph-name="lacute" unicode="&#x13a;" horiz-adv-x="219" 
d="M236 840l-1 -14c-51 -45 -77 -68 -140 -108l-22 21l109 137zM143 0h-67v655h67v-655z" />
    <glyph glyph-name="lcaron" unicode="&#x13e;" horiz-adv-x="223" 
d="M254 655v-13c-3 -53 -12 -105 -25 -152h-39l7 165h57zM143 0h-67v655h67v-655z" />
    <glyph glyph-name="lcommaaccent" unicode="&#x13c;" horiz-adv-x="219" 
d="M143 0h-67v655h67v-655zM71 -223l-13 22c28 28 42 54 46 75c-19 5 -30 18 -30 37c0 23 15 40 39 40s39 -19 39 -43c0 -45 -28 -95 -81 -131z" />
    <glyph glyph-name="ldot" unicode="&#x140;" horiz-adv-x="293" 
d="M143 0h-67v655h67v-655zM197 326c0 25 17 43 43 43s42 -18 42 -43s-16 -43 -42 -43s-43 18 -43 43z" />
    <glyph glyph-name="lslash" unicode="&#x142;" horiz-adv-x="223" 
d="M203 349l-63 -27v-322h-66v293l-49 -21v56l49 21v306h66v-278l63 27v-55z" />
    <glyph glyph-name="m" unicode="m" horiz-adv-x="845" 
d="M143 468v-78c48 53 104 86 168 86c73 0 120 -30 137 -97c62 69 117 97 179 97c99 0 146 -59 146 -185v-291h-66v277c0 93 -21 137 -90 137c-51 0 -104 -31 -159 -95c1 -5 1 -9 1 -13v-306h-67v277c0 93 -22 137 -91 137c-54 0 -111 -35 -158 -95v-319h-67v468h67z" />
    <glyph glyph-name="n" unicode="n" horiz-adv-x="552" 
d="M143 468v-78c50 54 108 86 182 86c108 0 155 -58 155 -184v-292h-67v277c0 94 -19 137 -100 137c-64 0 -123 -35 -170 -95v-319h-67v468h67z" />
    <glyph glyph-name="nacute" unicode="&#x144;" horiz-adv-x="552" 
d="M379 652l-1 -14c-50 -45 -76 -68 -139 -108l-22 22l108 136zM143 468v-78c50 54 108 86 182 86c108 0 155 -58 155 -184v-292h-67v277c0 94 -19 137 -100 137c-64 0 -123 -35 -170 -95v-319h-67v468h67z" />
    <glyph glyph-name="ncaron" unicode="&#x148;" horiz-adv-x="552" 
d="M309 533h-51l-120 118l27 28c43 -34 78 -59 119 -91c40 32 75 57 118 91l27 -28zM143 468v-78c50 54 108 86 182 86c108 0 155 -58 155 -184v-292h-67v277c0 94 -19 137 -100 137c-64 0 -123 -35 -170 -95v-319h-67v468h67z" />
    <glyph glyph-name="ncommaaccent" unicode="&#x146;" horiz-adv-x="552" 
d="M143 468v-78c50 54 108 86 182 86c108 0 155 -58 155 -184v-292h-67v277c0 94 -19 137 -100 137c-64 0 -123 -35 -170 -95v-319h-67v468h67zM237 -223l-13 22c28 28 42 54 46 75c-18 5 -30 18 -30 37c0 23 15 40 40 40c23 0 38 -19 38 -43c0 -45 -28 -95 -81 -131z" />
    <glyph glyph-name="ntilde" unicode="&#xf1;" horiz-adv-x="552" 
d="M399 664l37 -10c-20 -80 -82 -101 -135 -74l-55 28c-38 19 -61 8 -77 -31l-37 10c20 77 78 96 134 69l55 -26c39 -19 62 -7 78 34zM143 468v-78c50 54 108 86 182 86c108 0 155 -58 155 -184v-292h-67v277c0 94 -19 137 -100 137c-64 0 -123 -35 -170 -95v-319h-67v468
h67z" />
    <glyph glyph-name="o" unicode="o" horiz-adv-x="556" 
d="M278 477c142 0 232 -95 232 -247c0 -146 -90 -239 -233 -239c-141 0 -231 93 -231 239c0 152 90 247 232 247zM277 49c104 0 168 70 168 182c0 116 -64 188 -167 188c-102 0 -166 -72 -166 -188c0 -112 63 -182 165 -182z" />
    <glyph glyph-name="oacute" unicode="&#xf3;" horiz-adv-x="557" 
d="M381 652l-1 -14c-51 -45 -77 -68 -140 -108l-22 22l109 136zM278 477c142 0 232 -95 232 -247c0 -146 -90 -239 -233 -239c-141 0 -231 93 -231 239c0 152 90 247 232 247zM277 49c104 0 168 70 168 182c0 116 -64 188 -167 188c-102 0 -166 -72 -166 -188
c0 -112 63 -182 165 -182z" />
    <glyph glyph-name="ocircumflex" unicode="&#xf4;" horiz-adv-x="556" 
d="M424 561l-28 -27c-42 34 -77 59 -118 91c-41 -32 -76 -57 -118 -91l-27 27l120 119h50zM278 477c142 0 232 -95 232 -247c0 -146 -90 -239 -233 -239c-141 0 -231 93 -231 239c0 152 90 247 232 247zM277 49c104 0 168 70 168 182c0 116 -64 188 -167 188
c-102 0 -166 -72 -166 -188c0 -112 63 -182 165 -182z" />
    <glyph glyph-name="odieresis" unicode="&#xf6;" horiz-adv-x="556" 
d="M187 651c25 0 42 -15 42 -42c0 -25 -17 -40 -42 -40c-23 0 -42 15 -42 40c0 27 19 42 42 42zM369 651c23 0 43 -15 43 -42c0 -25 -20 -40 -43 -40c-24 0 -42 15 -42 40c0 27 18 42 42 42zM278 477c142 0 232 -95 232 -247c0 -146 -90 -239 -233 -239
c-141 0 -231 93 -231 239c0 152 90 247 232 247zM277 49c104 0 168 70 168 182c0 116 -64 188 -167 188c-102 0 -166 -72 -166 -188c0 -112 63 -182 165 -182z" />
    <glyph glyph-name="ograve" unicode="&#xf2;" horiz-adv-x="557" 
d="M333 561l-22 -22c-63 41 -89 63 -139 108l-1 14l54 36zM278 477c142 0 232 -95 232 -247c0 -146 -90 -239 -233 -239c-141 0 -231 93 -231 239c0 152 90 247 232 247zM277 49c104 0 168 70 168 182c0 116 -64 188 -167 188c-102 0 -166 -72 -166 -188
c0 -112 63 -182 165 -182z" />
    <glyph glyph-name="ohungarumlaut" unicode="&#x151;" horiz-adv-x="556" 
d="M461 669l-1 -15c-44 -41 -75 -71 -122 -112l-30 15l102 139zM333 669v-15c-45 -42 -75 -71 -123 -113l-29 16l101 138zM278 477c142 0 232 -95 232 -247c0 -146 -90 -239 -233 -239c-141 0 -231 93 -231 239c0 152 90 247 232 247zM277 49c104 0 168 70 168 182
c0 116 -64 188 -167 188c-102 0 -166 -72 -166 -188c0 -112 63 -182 165 -182z" />
    <glyph glyph-name="omacron" unicode="&#x14d;" horiz-adv-x="556" 
d="M395 574h-233v59h233v-59zM278 477c142 0 232 -95 232 -247c0 -146 -90 -239 -233 -239c-141 0 -231 93 -231 239c0 152 90 247 232 247zM277 49c104 0 168 70 168 182c0 116 -64 188 -167 188c-102 0 -166 -72 -166 -188c0 -112 63 -182 165 -182z" />
    <glyph glyph-name="oslash" unicode="&#xf8;" horiz-adv-x="552" 
d="M476 452l-36 -41c40 -42 63 -104 63 -181c0 -146 -90 -239 -233 -239c-63 0 -115 18 -155 52l-33 -38l-23 21l34 40c-35 41 -54 97 -54 164c0 152 90 247 232 247c57 0 106 -15 144 -44l36 42zM136 115l238 272c-27 21 -62 32 -103 32c-102 0 -166 -72 -166 -188
c0 -47 11 -86 31 -116zM398 363l-241 -273c28 -27 67 -41 113 -41c104 0 168 70 168 182c0 55 -14 100 -40 132z" />
    <glyph glyph-name="otilde" unicode="&#xf5;" horiz-adv-x="556" 
d="M394 664l37 -10c-20 -80 -82 -101 -136 -74l-55 28c-38 19 -60 8 -76 -31l-37 10c20 77 78 96 134 69l55 -26c39 -19 61 -7 78 34zM278 477c142 0 232 -95 232 -247c0 -146 -90 -239 -233 -239c-141 0 -231 93 -231 239c0 152 90 247 232 247zM277 49
c104 0 168 70 168 182c0 116 -64 188 -167 188c-102 0 -166 -72 -166 -188c0 -112 63 -182 165 -182z" />
    <glyph glyph-name="oe" unicode="&#x153;" horiz-adv-x="921" 
d="M503 216v-5c7 -122 74 -166 157 -166c62 0 115 18 171 63l26 -43c-58 -53 -120 -74 -200 -74c-81 0 -151 30 -189 101c-38 -64 -107 -101 -197 -101c-142 0 -231 93 -231 239c0 152 90 247 231 247c90 0 160 -38 198 -105c39 73 110 105 193 105c123 0 201 -74 205 -228
c0 -10 0 -18 -2 -33h-362zM504 269h304c-6 106 -63 153 -146 153c-79 0 -147 -42 -158 -153zM271 49c103 0 167 70 167 182c0 116 -64 188 -166 188c-103 0 -167 -72 -167 -188c0 -112 63 -182 166 -182z" />
    <glyph glyph-name="p" unicode="p" horiz-adv-x="561" 
d="M143 468v-68c46 44 113 76 183 76c113 0 189 -64 189 -242c0 -176 -98 -243 -200 -243c-81 0 -125 30 -172 78v-234h-66v633h66zM143 333v-198c43 -50 93 -88 161 -88c77 0 145 50 145 188s-52 185 -135 185c-63 0 -130 -39 -171 -87z" />
    <glyph glyph-name="thorn" unicode="&#xfe;" horiz-adv-x="559" 
d="M143 643v-241c47 43 112 75 182 75c113 0 188 -65 188 -242s-97 -244 -200 -244c-79 0 -122 29 -170 77v-233h-67v808h67zM143 338v-208c44 -49 86 -83 153 -83c77 0 151 50 151 188s-59 185 -142 185c-61 0 -119 -36 -162 -82z" />
    <glyph glyph-name="q" unicode="q" horiz-adv-x="561" 
d="M485 -165h-67v233c-47 -48 -91 -77 -172 -77c-102 0 -200 67 -200 244s76 242 189 242c71 0 135 -29 183 -76v67h67v-633zM418 134v200c-42 50 -100 86 -164 86c-83 0 -142 -47 -142 -185s74 -188 152 -188c68 0 112 37 154 87z" />
    <glyph glyph-name="r" unicode="r" horiz-adv-x="369" 
d="M143 468v-98c23 63 81 106 146 106c17 0 33 0 60 -3l-5 -65c-24 2 -40 2 -57 2c-65 0 -118 -44 -144 -127v-283h-67v468h67z" />
    <glyph glyph-name="racute" unicode="&#x155;" horiz-adv-x="369" 
d="M279 652l-1 -14c-50 -45 -76 -68 -139 -108l-22 22l108 136zM143 468v-98c23 63 81 106 146 106c17 0 33 0 60 -3l-5 -65c-24 2 -40 2 -57 2c-65 0 -118 -44 -144 -127v-283h-67v468h67z" />
    <glyph glyph-name="rcaron" unicode="&#x159;" horiz-adv-x="369" 
d="M215 533h-51l-120 118l27 28c43 -34 78 -59 119 -91c40 32 75 57 118 91l27 -28zM143 468v-98c23 63 81 106 146 106c17 0 33 0 60 -3l-5 -65c-24 2 -40 2 -57 2c-65 0 -118 -44 -144 -127v-283h-67v468h67z" />
    <glyph glyph-name="rcommaaccent" unicode="&#x157;" horiz-adv-x="369" 
d="M143 468v-98c23 63 81 106 146 106c17 0 33 0 60 -3l-5 -65c-24 2 -40 2 -57 2c-65 0 -118 -44 -144 -127v-283h-67v468h67zM70 -223l-14 22c28 28 42 54 46 75c-18 5 -30 18 -30 37c0 23 15 40 40 40c23 0 38 -19 38 -43c0 -45 -27 -95 -80 -131z" />
    <glyph glyph-name="s" unicode="s" horiz-adv-x="439" 
d="M379 436l-18 -50c-51 21 -109 37 -155 37c-59 0 -92 -25 -92 -70c0 -46 43 -58 117 -82c119 -39 165 -65 165 -151s-68 -129 -163 -129c-72 0 -149 27 -204 73l29 47c50 -41 105 -64 174 -64c57 0 101 20 101 72c0 59 -37 70 -136 101c-100 32 -145 58 -145 131
c0 81 56 127 155 127c56 0 118 -17 172 -42z" />
    <glyph glyph-name="sacute" unicode="&#x15b;" horiz-adv-x="439" 
d="M313 653l-1 -14c-50 -45 -76 -68 -139 -108l-22 22l108 136zM379 436l-18 -50c-51 21 -109 37 -155 37c-59 0 -92 -25 -92 -70c0 -46 43 -58 117 -82c119 -39 165 -65 165 -151s-68 -129 -163 -129c-72 0 -149 27 -204 73l29 47c50 -41 105 -64 174 -64
c57 0 101 20 101 72c0 59 -37 70 -136 101c-100 32 -145 58 -145 131c0 81 56 127 155 127c56 0 118 -17 172 -42z" />
    <glyph glyph-name="scaron" unicode="&#x161;" horiz-adv-x="439" 
d="M243 534h-51l-120 118l27 28c43 -34 78 -59 119 -91c40 32 75 57 118 91l27 -28zM379 436l-18 -50c-51 21 -109 37 -155 37c-59 0 -92 -25 -92 -70c0 -46 43 -58 117 -82c119 -39 165 -65 165 -151s-68 -129 -163 -129c-72 0 -149 27 -204 73l29 47
c50 -41 105 -64 174 -64c57 0 101 20 101 72c0 59 -37 70 -136 101c-100 32 -145 58 -145 131c0 81 56 127 155 127c56 0 118 -17 172 -42z" />
    <glyph glyph-name="scedilla" unicode="&#x15f;" horiz-adv-x="439" 
d="M379 436l-18 -50c-51 21 -109 37 -155 37c-59 0 -92 -25 -92 -70c0 -46 43 -58 117 -82c119 -39 165 -65 165 -151s-68 -129 -163 -129h-10l-2 -27c73 -1 99 -22 99 -81c0 -56 -37 -87 -97 -87c-31 0 -63 7 -90 15l9 40c25 -5 48 -8 68 -8c37 0 63 9 63 40
c0 35 -20 42 -74 42h-33l16 70c-56 10 -111 34 -153 69l29 47c50 -41 105 -64 174 -64c57 0 101 20 101 72c0 59 -37 70 -136 101c-100 32 -145 58 -145 131c0 81 56 127 155 127c56 0 118 -17 172 -42z" />
    <glyph glyph-name="scommaaccent" unicode="&#x219;" horiz-adv-x="439" 
d="M379 436l-18 -50c-51 21 -109 37 -155 37c-59 0 -92 -25 -92 -70c0 -46 43 -58 117 -82c119 -39 165 -65 165 -151s-68 -129 -163 -129c-72 0 -149 27 -204 73l29 47c50 -41 105 -64 174 -64c57 0 101 20 101 72c0 59 -37 70 -136 101c-100 32 -145 58 -145 131
c0 81 56 127 155 127c56 0 118 -17 172 -42zM178 -223l-13 22c28 28 42 54 46 75c-18 5 -30 18 -30 37c0 23 15 40 40 40c23 0 38 -19 38 -43c0 -45 -28 -95 -81 -131z" />
    <glyph glyph-name="germandbls" unicode="&#xdf;" horiz-adv-x="580" 
d="M-4 468h84c19 106 107 174 229 174c110 0 190 -64 190 -160c0 -76 -46 -126 -110 -149c89 -23 141 -84 141 -175c0 -100 -75 -167 -188 -167c-39 0 -85 6 -120 15l7 50c31 -7 66 -12 105 -12c80 0 133 49 133 121c0 86 -68 138 -171 138h-57v51h57c85 0 139 48 139 122
c0 67 -52 110 -125 110c-101 0 -168 -64 -168 -163v-423h-67v413l-79 6v49z" />
    <glyph glyph-name="t" unicode="t" horiz-adv-x="352" 
d="M319 65l8 -50c-44 -13 -73 -18 -100 -18c-96 0 -134 45 -134 149v265h-73v57h73v122h66v-122h147v-57h-147v-263c0 -72 28 -89 88 -89c18 0 34 0 72 6z" />
    <glyph glyph-name="tcaron" unicode="&#x165;" horiz-adv-x="352" 
d="M278 672v-13c-4 -52 -12 -104 -25 -152h-40l7 165h58zM319 65l8 -50c-44 -13 -73 -18 -100 -18c-96 0 -134 45 -134 149v265h-73v57h73v122h66v-122h147v-57h-147v-263c0 -72 28 -89 88 -89c18 0 34 0 72 6z" />
    <glyph glyph-name="uni021B" unicode="&#x21b;" horiz-adv-x="352" 
d="M319 65l8 -50c-44 -13 -73 -18 -100 -18c-96 0 -134 45 -134 149v265h-73v57h73v122h66v-122h147v-57h-147v-263c0 -72 28 -89 88 -89c18 0 34 0 72 6zM144 -216l-14 22c28 28 42 54 46 76c-18 5 -30 18 -30 37c0 23 15 39 40 39c23 0 38 -19 38 -43
c0 -45 -27 -95 -80 -131z" />
    <glyph glyph-name="u" unicode="u" horiz-adv-x="550" 
d="M406 0v78c-50 -51 -113 -87 -185 -87c-107 0 -152 61 -152 187v290h66v-276c0 -94 26 -140 106 -140c62 0 124 43 165 99v317h67v-468h-67z" />
    <glyph glyph-name="uacute" unicode="&#xfa;" horiz-adv-x="550" 
d="M371 652l-1 -14c-51 -45 -77 -68 -140 -108l-22 22l109 136zM406 0v78c-50 -51 -113 -87 -185 -87c-107 0 -152 61 -152 187v290h66v-276c0 -94 26 -140 106 -140c62 0 124 43 165 99v317h67v-468h-67z" />
    <glyph glyph-name="ucircumflex" unicode="&#xfb;" horiz-adv-x="550" 
d="M420 561l-27 -27c-42 33 -77 59 -118 91c-41 -32 -76 -58 -118 -91l-27 27l119 118h51zM406 0v78c-50 -51 -113 -87 -185 -87c-107 0 -152 61 -152 187v290h66v-276c0 -94 26 -140 106 -140c62 0 124 43 165 99v317h67v-468h-67z" />
    <glyph glyph-name="udieresis" unicode="&#xfc;" horiz-adv-x="550" 
d="M183 651c25 0 43 -16 43 -42s-18 -41 -43 -41c-22 0 -42 15 -42 41s20 42 42 42zM366 651c23 0 43 -16 43 -42s-20 -41 -43 -41c-24 0 -43 15 -43 41s19 42 43 42zM406 0v78c-50 -51 -113 -87 -185 -87c-107 0 -152 61 -152 187v290h66v-276c0 -94 26 -140 106 -140
c62 0 124 43 165 99v317h67v-468h-67z" />
    <glyph glyph-name="ugrave" unicode="&#xf9;" horiz-adv-x="550" 
d="M340 561l-22 -22c-63 41 -89 63 -140 108l-1 14l55 36zM406 0v78c-50 -51 -113 -87 -185 -87c-107 0 -152 61 -152 187v290h66v-276c0 -94 26 -140 106 -140c62 0 124 43 165 99v317h67v-468h-67z" />
    <glyph glyph-name="uhungarumlaut" unicode="&#x171;" horiz-adv-x="550" 
d="M458 669l-1 -15c-44 -42 -75 -71 -122 -113l-30 16l102 138zM330 669v-15c-45 -42 -75 -71 -123 -113l-29 16l101 138zM406 0v78c-50 -51 -113 -87 -185 -87c-107 0 -152 61 -152 187v290h66v-276c0 -94 26 -140 106 -140c62 0 124 43 165 99v317h67v-468h-67z" />
    <glyph glyph-name="umacron" unicode="&#x16b;" horiz-adv-x="550" 
d="M392 574h-234v59h234v-59zM406 0v78c-50 -51 -113 -87 -185 -87c-107 0 -152 61 -152 187v290h66v-276c0 -94 26 -140 106 -140c62 0 124 43 165 99v317h67v-468h-67z" />
    <glyph glyph-name="uogonek" unicode="&#x173;" horiz-adv-x="550" 
d="M498 -121l10 -46c-29 -10 -58 -16 -91 -16c-65 0 -105 33 -105 94c0 45 37 84 94 109v58c-50 -51 -113 -87 -185 -87c-107 0 -152 61 -152 187v290h66v-276c0 -94 26 -140 106 -140c62 0 124 43 165 99v317h67v-468h-33c-48 -17 -77 -47 -77 -77c0 -32 27 -53 70 -53
c21 0 42 5 65 9z" />
    <glyph glyph-name="uring" unicode="&#x16f;" horiz-adv-x="550" 
d="M275 709c55 0 93 -37 93 -93c0 -52 -38 -89 -94 -89c-54 0 -92 37 -92 89c0 56 38 93 93 93zM274 568c32 0 53 18 53 48c0 33 -21 54 -52 54s-52 -21 -52 -54c0 -30 21 -48 51 -48zM406 0v78c-50 -51 -113 -87 -185 -87c-107 0 -152 61 -152 187v290h66v-276
c0 -94 26 -140 106 -140c62 0 124 43 165 99v317h67v-468h-67z" />
    <glyph glyph-name="v" unicode="v" horiz-adv-x="503" 
d="M288 0h-73l-205 468h69l146 -323c11 -24 19 -49 26 -73c9 24 17 49 27 73l147 323h68z" />
    <glyph glyph-name="w" unicode="w" horiz-adv-x="715" 
d="M547 0h-79l-110 358l-110 -358h-80l-158 468h65l114 -331c8 -23 14 -44 19 -65c5 20 10 41 18 65l100 331h64l99 -331c7 -22 12 -44 18 -65c5 20 12 41 19 65l114 331h65z" />
    <glyph glyph-name="wacute" unicode="&#x1e83;" horiz-adv-x="715" 
d="M464 652l-1 -14c-51 -45 -77 -68 -140 -108l-22 22l109 136zM547 0h-79l-110 358l-110 -358h-80l-158 468h65l114 -331c8 -23 14 -44 19 -65c5 20 10 41 18 65l100 331h64l99 -331c7 -22 12 -44 18 -65c5 20 12 41 19 65l114 331h65z" />
    <glyph glyph-name="wcircumflex" unicode="&#x175;" horiz-adv-x="715" 
d="M504 561l-28 -27c-42 33 -77 59 -118 91c-41 -32 -76 -58 -118 -91l-27 27l120 118h50zM547 0h-79l-110 358l-110 -358h-80l-158 468h65l114 -331c8 -23 14 -44 19 -65c5 20 10 41 18 65l100 331h64l99 -331c7 -22 12 -44 18 -65c5 20 12 41 19 65l114 331h65z" />
    <glyph glyph-name="wdieresis" unicode="&#x1e85;" horiz-adv-x="715" 
d="M267 651c25 0 42 -16 42 -42s-17 -41 -42 -41c-23 0 -42 15 -42 41s19 42 42 42zM449 651c23 0 43 -16 43 -42s-20 -41 -43 -41c-24 0 -42 15 -42 41s18 42 42 42zM547 0h-79l-110 358l-110 -358h-80l-158 468h65l114 -331c8 -23 14 -44 19 -65c5 20 10 41 18 65l100 331
h64l99 -331c7 -22 12 -44 18 -65c5 20 12 41 19 65l114 331h65z" />
    <glyph glyph-name="wgrave" unicode="&#x1e81;" horiz-adv-x="715" 
d="M406 561l-22 -22c-63 41 -89 63 -139 108l-1 14l54 36zM547 0h-79l-110 358l-110 -358h-80l-158 468h65l114 -331c8 -23 14 -44 19 -65c5 20 10 41 18 65l100 331h64l99 -331c7 -22 12 -44 18 -65c5 20 12 41 19 65l114 331h65z" />
    <glyph glyph-name="x" unicode="x" horiz-adv-x="468" 
d="M381 0l-115 151c-11 13 -22 27 -32 44c-10 -17 -21 -31 -32 -44l-115 -151h-74l174 236l-170 232h76l109 -147c11 -13 22 -27 32 -44c10 17 21 31 32 44l109 147h76l-170 -232l174 -236h-74z" />
    <glyph glyph-name="y" unicode="y" horiz-adv-x="495" 
d="M410 467h74c-57 -136 -113 -270 -174 -392c-53 -103 -118 -180 -210 -219l-24 57c48 25 87 54 123 100l-195 454h70l135 -315c11 -26 22 -51 31 -74c62 120 107 236 170 389z" />
    <glyph glyph-name="yacute" unicode="&#xfd;" horiz-adv-x="495" 
d="M344 652l-1 -14c-51 -45 -77 -68 -140 -108l-22 22l109 136zM410 467h74c-57 -136 -113 -270 -174 -392c-53 -103 -118 -180 -210 -219l-24 57c48 25 87 54 123 100l-195 455h70l135 -316c11 -26 22 -51 31 -74c62 120 107 236 170 389z" />
    <glyph glyph-name="ycircumflex" unicode="&#x177;" horiz-adv-x="495" 
d="M393 561l-27 -27c-42 33 -77 59 -118 91c-41 -32 -76 -58 -118 -91l-27 27l119 118h51zM410 467h74c-57 -136 -113 -270 -174 -392c-53 -103 -118 -180 -210 -219l-24 57c48 25 87 54 123 100l-195 454h70l135 -315c11 -26 22 -51 31 -74c62 120 107 236 170 389z" />
    <glyph glyph-name="ydieresis" unicode="&#xff;" horiz-adv-x="495" 
d="M156 651c25 0 43 -16 43 -42s-18 -41 -43 -41c-22 0 -42 15 -42 41s20 42 42 42zM339 651c23 0 43 -16 43 -42s-20 -41 -43 -41c-24 0 -43 15 -43 41s19 42 43 42zM410 467h74c-57 -136 -113 -270 -174 -392c-53 -103 -118 -180 -210 -219l-24 57c48 25 87 54 123 100
l-195 455h70l135 -316c11 -26 22 -51 31 -74c62 120 107 236 170 389z" />
    <glyph glyph-name="ygrave" unicode="&#x1ef3;" horiz-adv-x="495" 
d="M313 561l-22 -22c-63 41 -89 63 -140 108l-1 14l55 36zM410 467h74c-57 -136 -113 -270 -174 -392c-53 -103 -118 -180 -210 -219l-24 57c48 25 87 54 123 100l-195 454h70l135 -315c11 -26 22 -51 31 -74c62 120 107 236 170 389z" />
    <glyph glyph-name="z" unicode="z" horiz-adv-x="490" 
d="M451 0h-412v45l319 369c-20 -1 -52 -3 -84 -3h-229v57h398v-44l-313 -370c24 1 56 2 85 2h236v-56z" />
    <glyph glyph-name="zacute" unicode="&#x17a;" horiz-adv-x="490" 
d="M341 652l-1 -14c-51 -45 -77 -68 -139 -108l-22 22l108 136zM451 0h-412v45l319 369c-20 -1 -52 -3 -84 -3h-229v57h398v-44l-313 -370c24 1 56 2 85 2h236v-56z" />
    <glyph glyph-name="zcaron" unicode="&#x17e;" horiz-adv-x="490" 
d="M270 533h-51l-119 118l27 28c42 -34 77 -59 118 -91c41 32 76 57 119 91l27 -28zM451 0h-412v45l319 369c-20 -1 -52 -3 -84 -3h-229v57h398v-44l-313 -370c24 1 56 2 85 2h236v-56z" />
    <glyph glyph-name="zdotaccent" unicode="&#x17c;" horiz-adv-x="490" 
d="M245 659c26 0 49 -18 49 -48s-23 -47 -49 -47c-28 0 -49 17 -49 47s21 48 49 48zM451 0h-412v45l319 369c-20 -1 -52 -3 -84 -3h-229v57h398v-44l-313 -370c24 1 56 2 85 2h236v-56z" />
    <glyph glyph-name="k.ss02" horiz-adv-x="498" 
d="M143 218v-218h-67v655h67v-377h108l158 190h71v-5l-175 -215l188 -242v-6h-74l-170 218h-106z" />
    <glyph glyph-name="kcommaaccent.ss02" horiz-adv-x="498" 
d="M143 218v-218h-67v655h67v-377h108l158 190h71v-5l-175 -215l188 -242v-6h-74l-170 218h-106zM215 -223l-13 22c28 28 42 54 46 75c-19 5 -30 18 -30 37c0 23 15 40 39 40s39 -19 39 -43c0 -45 -28 -95 -81 -131z" />
    <glyph glyph-name="a.ss05" horiz-adv-x="561" 
d="M418 0v71c-48 -49 -90 -80 -172 -80c-102 0 -200 67 -200 244s78 242 189 242c71 0 137 -31 183 -75v66h67v-468h-67zM418 136v196c-48 57 -101 88 -164 88c-83 0 -141 -47 -141 -185s73 -188 151 -188c69 0 105 29 154 89z" />
    <glyph glyph-name="aacute.ss05" horiz-adv-x="561" 
d="M382 652l-1 -14c-51 -45 -77 -67 -139 -108l-22 22l108 136zM418 0v71c-48 -49 -90 -80 -172 -80c-102 0 -200 67 -200 244s78 242 189 242c71 0 137 -31 183 -75v66h67v-468h-67zM418 136v196c-48 57 -101 88 -164 88c-83 0 -141 -47 -141 -185s73 -188 151 -188
c69 0 105 29 154 89z" />
    <glyph glyph-name="abreve.ss05" horiz-adv-x="561" 
d="M370 659h50c0 -82 -42 -126 -135 -126c-91 0 -133 44 -133 126h51c3 -49 25 -77 82 -77c58 0 81 28 85 77zM418 0v71c-48 -49 -90 -80 -172 -80c-102 0 -200 67 -200 244s78 242 189 242c71 0 137 -31 183 -75v66h67v-468h-67zM418 136v196c-48 57 -101 88 -164 88
c-83 0 -141 -47 -141 -185s73 -188 151 -188c69 0 105 29 154 89z" />
    <glyph glyph-name="acircumflex.ss05" horiz-adv-x="561" 
d="M432 561l-28 -27c-42 33 -77 59 -118 91c-41 -32 -76 -58 -118 -91l-27 27l120 118h50zM418 0v71c-48 -49 -90 -80 -172 -80c-102 0 -200 67 -200 244s78 242 189 242c71 0 137 -31 183 -75v66h67v-468h-67zM418 136v196c-48 57 -101 88 -164 88
c-83 0 -141 -47 -141 -185s73 -188 151 -188c69 0 105 29 154 89z" />
    <glyph glyph-name="adieresis.ss05" horiz-adv-x="561" 
d="M195 651c25 0 42 -15 42 -42c0 -25 -17 -40 -42 -40c-23 0 -42 15 -42 40c0 27 19 42 42 42zM377 651c23 0 43 -15 43 -42c0 -25 -20 -40 -43 -40c-24 0 -42 15 -42 40c0 27 18 42 42 42zM418 0v71c-48 -49 -90 -80 -172 -80c-102 0 -200 67 -200 244s78 242 189 242
c71 0 137 -31 183 -75v66h67v-468h-67zM418 136v196c-48 57 -101 88 -164 88c-83 0 -141 -47 -141 -185s73 -188 151 -188c69 0 105 29 154 89z" />
    <glyph glyph-name="agrave.ss05" horiz-adv-x="561" 
d="M351 561l-22 -21c-63 40 -89 63 -140 108l-1 14l55 36zM418 0v71c-48 -49 -90 -80 -172 -80c-102 0 -200 67 -200 244s78 242 189 242c71 0 137 -31 183 -75v66h67v-468h-67zM418 136v196c-48 57 -101 88 -164 88c-83 0 -141 -47 -141 -185s73 -188 151 -188
c69 0 105 29 154 89z" />
    <glyph glyph-name="amacron.ss05" horiz-adv-x="561" 
d="M403 574h-233v59h233v-59zM418 0v71c-48 -49 -90 -80 -172 -80c-102 0 -200 67 -200 244s78 242 189 242c71 0 137 -31 183 -75v66h67v-468h-67zM418 136v196c-48 57 -101 88 -164 88c-83 0 -141 -47 -141 -185s73 -188 151 -188c69 0 105 29 154 89z" />
    <glyph glyph-name="aogonek.ss05" horiz-adv-x="561" 
d="M513 -121l9 -46c-28 -10 -58 -16 -91 -16c-65 0 -105 33 -105 94c0 44 36 83 92 108v52c-48 -49 -90 -80 -172 -80c-102 0 -200 67 -200 244s78 242 189 242c71 0 137 -31 183 -75v66h67v-468h-31c-48 -17 -77 -47 -77 -77c0 -32 27 -53 70 -53c21 0 43 5 66 9zM418 136
v196c-48 57 -101 88 -164 88c-83 0 -141 -47 -141 -185s73 -188 151 -188c69 0 105 29 154 89z" />
    <glyph glyph-name="aring.ss05" horiz-adv-x="561" 
d="M286 710c55 0 93 -37 93 -94c0 -52 -38 -89 -94 -89c-53 0 -92 37 -92 89c0 57 39 94 93 94zM285 568c33 0 53 18 53 48c0 33 -20 54 -52 54c-31 0 -52 -21 -52 -54c0 -30 21 -48 51 -48zM418 0v71c-48 -49 -90 -80 -172 -80c-102 0 -200 67 -200 244s78 242 189 242
c71 0 137 -31 183 -75v66h67v-468h-67zM418 136v196c-48 57 -101 88 -164 88c-83 0 -141 -47 -141 -185s73 -188 151 -188c69 0 105 29 154 89z" />
    <glyph glyph-name="atilde.ss05" horiz-adv-x="561" 
d="M402 664l37 -10c-20 -80 -82 -101 -136 -74l-55 28c-38 19 -60 8 -76 -31l-37 10c20 77 78 96 134 69l55 -26c39 -19 61 -7 78 34zM418 0v71c-48 -49 -90 -80 -172 -80c-102 0 -200 67 -200 244s78 242 189 242c71 0 137 -31 183 -75v66h67v-468h-67zM418 136v196
c-48 57 -101 88 -164 88c-83 0 -141 -47 -141 -185s73 -188 151 -188c69 0 105 29 154 89z" />
    <glyph glyph-name="g.ss06" horiz-adv-x="553" 
d="M529 474l-5 -47c-22 1 -35 1 -52 1c-13 0 -27 -2 -41 -6c29 -29 44 -71 44 -125c0 -113 -68 -168 -202 -168c-43 0 -81 6 -111 19c-22 -12 -33 -24 -33 -41c0 -31 11 -42 53 -42h176c104 0 155 -34 155 -114c0 -123 -82 -170 -238 -170c-187 0 -248 29 -248 130
c0 53 28 92 74 113c-20 14 -28 37 -28 68c0 32 13 57 53 75c-36 28 -55 71 -55 130c0 118 68 180 202 180c45 0 84 -8 114 -22c25 15 55 24 82 24c20 0 37 0 60 -5zM273 183c94 0 138 34 138 114c0 88 -42 128 -138 128c-94 0 -139 -42 -139 -128c0 -80 45 -114 139 -114z
M358 6h-170c-70 0 -98 -32 -98 -85c0 -65 40 -83 185 -83c110 0 174 28 174 102c0 48 -29 66 -91 66z" />
    <glyph glyph-name="gbreve.ss06" horiz-adv-x="553" 
d="M360 659h50c0 -82 -42 -126 -135 -126c-91 0 -133 44 -133 125h51c3 -48 25 -76 82 -76c58 0 81 28 85 77zM529 474l-5 -47c-22 1 -35 1 -52 1c-13 0 -27 -2 -41 -6c29 -29 44 -71 44 -125c0 -113 -68 -168 -202 -168c-43 0 -81 6 -111 19c-22 -12 -33 -24 -33 -41
c0 -31 11 -42 53 -42h176c104 0 155 -34 155 -114c0 -123 -82 -170 -238 -170c-187 0 -248 29 -248 130c0 53 28 92 74 113c-20 14 -28 37 -28 68c0 32 13 57 53 75c-36 28 -55 71 -55 130c0 118 68 180 202 180c45 0 84 -8 114 -22c25 15 55 24 82 24c20 0 36 0 60 -5z
M273 183c94 0 138 34 138 114c0 88 -42 128 -138 128c-94 0 -139 -42 -139 -128c0 -80 45 -114 139 -114zM358 6h-170c-70 0 -98 -32 -98 -85c0 -65 40 -83 185 -83c110 0 174 28 174 102c0 48 -29 66 -91 66z" />
    <glyph glyph-name="gcommaaccent.ss06" horiz-adv-x="553" 
d="M310 727l14 -22c-26 -25 -40 -50 -46 -72c18 -3 31 -18 31 -37c0 -23 -16 -39 -40 -39s-39 19 -39 43c0 42 23 86 80 127zM529 474l-5 -47c-22 1 -35 1 -52 1c-13 0 -27 -2 -41 -6c29 -29 44 -71 44 -125c0 -113 -68 -168 -202 -168c-43 0 -81 6 -111 19
c-22 -12 -33 -24 -33 -41c0 -31 11 -42 53 -42h176c104 0 155 -34 155 -114c0 -123 -82 -170 -238 -170c-187 0 -248 29 -248 130c0 53 28 92 74 113c-20 14 -28 37 -28 68c0 32 13 57 53 75c-36 28 -55 71 -55 130c0 118 68 180 202 180c45 0 84 -8 114 -22
c25 15 55 24 82 24c20 0 36 0 60 -5zM273 183c94 0 138 34 138 114c0 88 -42 128 -138 128c-94 0 -139 -42 -139 -128c0 -80 45 -114 139 -114zM358 6h-170c-70 0 -98 -32 -98 -85c0 -65 40 -83 185 -83c110 0 174 28 174 102c0 48 -29 66 -91 66z" />
    <glyph glyph-name="gdotaccent.ss06" horiz-adv-x="553" 
d="M276 659c27 0 49 -18 49 -48s-22 -47 -49 -47s-49 17 -49 47s22 48 49 48zM529 474l-5 -47c-22 1 -35 1 -52 1c-13 0 -27 -2 -41 -6c29 -29 44 -71 44 -125c0 -113 -68 -168 -202 -168c-43 0 -81 6 -111 19c-22 -12 -33 -24 -33 -41c0 -31 11 -42 53 -42h176
c104 0 155 -34 155 -114c0 -123 -82 -170 -238 -170c-187 0 -248 29 -248 130c0 53 28 92 74 113c-20 14 -28 37 -28 68c0 32 13 57 53 75c-36 28 -55 71 -55 130c0 118 68 180 202 180c45 0 84 -8 114 -22c25 15 55 24 82 24c20 0 37 0 60 -5zM273 183c94 0 138 34 138 114
c0 88 -42 128 -138 128c-94 0 -139 -42 -139 -128c0 -80 45 -114 139 -114zM358 6h-170c-70 0 -98 -32 -98 -85c0 -65 40 -83 185 -83c110 0 174 28 174 102c0 48 -29 66 -91 66z" />
    <glyph glyph-name="y.ss07" horiz-adv-x="567" 
d="M507 468v-400c0 -153 -73 -223 -206 -223c-82 0 -151 20 -207 53l21 52c55 -29 107 -45 179 -45c95 0 147 52 147 160v33c-47 -49 -93 -79 -175 -79c-110 0 -197 63 -197 218v231h66v-231c0 -122 74 -158 151 -158c63 0 105 28 155 87v302h66z" />
    <glyph glyph-name="yacute.ss07" horiz-adv-x="567" 
d="M387 652l-1 -14c-50 -45 -76 -68 -139 -108l-22 22l108 136zM507 468v-400c0 -153 -73 -223 -206 -223c-82 0 -151 20 -207 53l21 52c55 -29 107 -45 179 -45c95 0 147 52 147 160v33c-47 -49 -93 -79 -175 -79c-110 0 -197 63 -197 218v231h66v-231
c0 -122 74 -158 151 -158c63 0 105 28 155 87v302h66z" />
    <glyph glyph-name="ycircumflex.ss07" horiz-adv-x="567" 
d="M437 561l-27 -27c-43 33 -78 59 -118 91c-41 -32 -76 -58 -119 -91l-27 27l120 118h51zM507 468v-400c0 -153 -73 -223 -206 -223c-82 0 -151 20 -207 53l21 52c55 -29 107 -45 179 -45c95 0 147 52 147 160v33c-47 -49 -93 -79 -175 -79c-110 0 -197 63 -197 218v231h66
v-231c0 -122 74 -158 151 -158c63 0 105 28 155 87v302h66z" />
    <glyph glyph-name="ydieresis.ss07" horiz-adv-x="567" 
d="M200 651c25 0 43 -16 43 -42s-18 -41 -43 -41c-22 0 -42 15 -42 41s20 42 42 42zM383 651c23 0 42 -16 42 -42s-19 -41 -42 -41c-25 0 -43 15 -43 41s18 42 43 42zM507 468v-400c0 -153 -73 -223 -206 -223c-82 0 -151 20 -207 53l21 52c55 -29 107 -45 179 -45
c95 0 147 52 147 160v33c-47 -49 -93 -79 -175 -79c-110 0 -197 63 -197 218v231h66v-231c0 -122 74 -158 151 -158c63 0 105 28 155 87v302h66z" />
    <glyph glyph-name="ygrave.ss07" horiz-adv-x="567" 
d="M356 561l-22 -22c-62 41 -88 63 -139 108l-1 14l55 36zM507 468v-400c0 -153 -73 -223 -206 -223c-82 0 -151 20 -207 53l21 52c55 -29 107 -45 179 -45c95 0 147 52 147 160v33c-47 -49 -93 -79 -175 -79c-110 0 -197 63 -197 218v231h66v-231c0 -122 74 -158 151 -158
c63 0 105 28 155 87v302h66z" />
    <glyph glyph-name="uni00660062" horiz-adv-x="878" 
d="M460 665v-269c45 48 111 80 182 80c114 0 189 -64 189 -241s-98 -244 -200 -244c-82 0 -124 31 -171 80v-71h-67v599c-84 12 -118 13 -146 13c-68 0 -88 -34 -88 -99v-45h151v-57h-151v-411h-66v411h-69v57h69v45c0 103 39 155 144 155c36 0 72 -5 156 -20v17h67z
M460 332v-196c42 -51 91 -89 154 -89c77 0 152 51 152 188c0 138 -60 185 -142 185c-63 0 -124 -40 -164 -88z" />
    <glyph glyph-name="uni006600660062" horiz-adv-x="1183" 
d="M764 665v-269c46 48 112 80 183 80c114 0 189 -64 189 -241s-98 -244 -200 -244c-82 0 -125 31 -172 80v-71h-66v599c-83 12 -118 13 -146 13c-68 0 -87 -34 -87 -99v-45h150v-57h-150v-411h-67v411h-240v-411h-67v411h-67v57h67v45c0 103 41 155 146 155
c36 0 66 -3 88 -8l-6 -51c-20 2 -44 3 -72 3c-68 0 -89 -35 -89 -100v-44h240v44c0 103 40 155 144 156c16 0 71 -5 156 -20v17h66zM764 332v-196c43 -51 92 -89 154 -89c78 0 152 51 152 188c0 138 -59 185 -142 185c-63 0 -123 -40 -164 -88z" />
    <glyph glyph-name="uni006600660066" horiz-adv-x="946" 
d="M953 660l-5 -51c-20 2 -45 3 -72 3c-69 0 -89 -34 -89 -99v-45h152v-57h-152v-411h-67v411h-248v-411h-66v411h-248v-411h-67v411h-67v57h67v45c0 103 41 155 146 155c36 0 66 -3 88 -8l-6 -51c-20 2 -44 3 -72 3c-68 0 -89 -35 -89 -100v-44h248v45
c0 103 41 155 145 155c36 0 66 -3 88 -8l-5 -51c-20 2 -45 3 -73 3c-68 0 -89 -35 -89 -100v-44h248v45c0 103 41 155 145 155c37 0 67 -3 88 -8z" />
    <glyph glyph-name="uni006600660068" horiz-adv-x="1175" 
d="M767 665v-276c49 54 113 88 188 88c108 0 148 -59 148 -185v-292h-66v277c0 94 -26 137 -107 137c-65 0 -116 -33 -163 -94v-320h-67v599c-84 12 -118 13 -147 13c-68 0 -87 -34 -87 -99v-45h150v-57h-150v-411h-67v411h-241v-411h-67v411h-67v57h67v45
c0 103 41 155 146 155c36 0 66 -3 88 -8l-6 -51c-20 2 -44 3 -72 3c-68 0 -89 -35 -89 -100v-44h241v45c0 103 40 155 144 155c37 0 73 -5 157 -20v17h67z" />
    <glyph glyph-name="uni00660066006A" horiz-adv-x="845" 
d="M466 468h299v-449c0 -107 -25 -163 -106 -186l-16 53c44 21 56 52 56 133v392h-233v-411h-67v411h-241v-411h-67v411h-67v57h67v45c0 103 41 155 146 155c36 0 66 -3 88 -8l-6 -51c-20 2 -44 3 -72 3c-68 0 -89 -35 -89 -100v-44h241v45c0 103 40 155 145 155
c26 0 51 -2 104 -10l-6 -52c-49 5 -69 6 -89 6c-68 0 -87 -34 -87 -99v-45zM733 565c-23 0 -42 14 -42 39c0 26 19 40 42 40s42 -14 42 -40c0 -25 -19 -39 -42 -39z" />
    <glyph glyph-name="uni00660066006B" horiz-adv-x="1139" 
d="M1103 468l-191 -188c76 -79 158 -181 227 -280h-79c-60 85 -130 171 -194 235l-99 -97v-138h-67v600c-71 11 -118 12 -147 12c-68 0 -87 -34 -87 -99v-45h150v-57h-150v-411h-67v411h-241v-411h-67v411h-67v57h67v45c0 103 41 155 146 155c36 0 66 -3 88 -8l-6 -51
c-20 2 -44 3 -72 3c-68 0 -89 -35 -89 -100v-44h241v45c0 103 40 155 145 155c36 0 85 -5 156 -20v17h67v-439l251 242h85z" />
    <glyph glyph-name="uni006600660074" horiz-adv-x="953" 
d="M920 65l8 -50c-43 -13 -73 -18 -100 -18c-96 0 -134 45 -134 149v265h-222v-411h-66v411h-248v-411h-67v411h-67v57h67v45c0 103 41 155 146 155c36 0 66 -3 88 -8l-6 -51c-20 2 -44 3 -72 3c-68 0 -89 -35 -89 -100v-44h248v45c0 103 41 155 145 155c36 0 66 -3 88 -8
l-5 -51c-20 2 -45 3 -73 3c-68 0 -89 -35 -89 -100v-44h222v122h66v-122h147v-57h-147v-263c0 -72 28 -89 88 -89c18 0 34 0 72 6z" />
    <glyph glyph-name="uni00660068" horiz-adv-x="869" 
d="M460 665v-276c50 54 114 88 188 88c108 0 149 -59 149 -185v-292h-67v277c0 94 -26 137 -106 137c-66 0 -123 -40 -164 -94v-320h-67v599c-84 12 -118 13 -146 13c-68 0 -88 -34 -88 -99v-45h151v-57h-151v-411h-66v411h-69v57h69v45c0 103 39 155 144 155
c36 0 72 -5 156 -20v17h67z" />
    <glyph glyph-name="uni0066006A" horiz-adv-x="539" 
d="M459 468v-449c0 -107 -25 -163 -107 -186l-16 53c44 21 56 52 56 133v392h-233v-411h-66v411h-69v57h69v45c0 103 39 155 144 155c28 0 54 -3 108 -11l-6 -51c-51 5 -72 6 -92 6c-68 0 -88 -34 -88 -99v-45h300zM427 565c-23 0 -42 14 -42 39c0 26 19 40 42 40
s42 -14 42 -40c0 -25 -19 -39 -42 -39z" />
    <glyph glyph-name="uni0066006B" horiz-adv-x="832" 
d="M460 227l251 241h85l-192 -187c77 -79 159 -182 228 -281h-79c-60 86 -130 172 -194 235l-99 -96v-139h-67v599c-84 12 -118 13 -146 13c-68 0 -88 -34 -88 -99v-45h151v-57h-151v-411h-66v411h-69v57h69v45c0 103 39 155 144 155c36 0 72 -5 156 -20v17h67v-438z" />
    <glyph glyph-name="uni00660074" horiz-adv-x="646" 
d="M614 65l7 -50c-43 -13 -72 -18 -100 -18c-96 0 -134 45 -134 149v265h-229v-411h-67v411h-67v57h67v45c0 103 41 155 146 155c36 0 66 -3 88 -8l-6 -51c-20 2 -44 3 -72 3c-68 0 -89 -35 -89 -100v-44h229v122h67v-122h147v-57h-147v-263c0 -72 28 -89 87 -89
c19 0 35 0 73 6z" />
    <glyph glyph-name="uni00720066" horiz-adv-x="694" 
d="M701 658l-7 -49c-24 2 -49 3 -78 3c-68 0 -88 -34 -88 -99v-45h151v-57h-151v-411h-66v411h-64v57h64v45c0 103 40 155 144 155c39 0 70 -3 95 -10zM143 468v-98c23 63 81 106 146 106c17 0 33 0 60 -3l-5 -65c-24 2 -40 2 -57 2c-65 0 -118 -44 -144 -127v-283h-67v468
h67z" />
    <glyph glyph-name="uni00720074" horiz-adv-x="706" 
d="M674 65l7 -50c-43 -13 -73 -18 -100 -18c-96 0 -134 45 -134 149v265h-60v57h60v122h66v-122h147v-57h-147v-263c0 -72 29 -89 88 -89c18 0 35 0 73 6zM143 468v-98c23 63 81 106 146 106c17 0 33 0 60 -3l-5 -65c-24 2 -40 2 -57 2c-65 0 -118 -44 -144 -127v-283h-67
v468h67z" />
    <glyph glyph-name="ordfeminine" unicode="&#xaa;" horiz-adv-x="381" 
d="M82 559l-9 40c60 17 96 21 133 21c91 0 123 -35 123 -140v-200h-51v52c-31 -34 -68 -59 -124 -59c-77 0 -114 35 -114 105c0 71 45 103 139 103c42 0 65 0 99 -1c0 73 -19 95 -80 95c-30 0 -66 -4 -116 -16zM278 444h-94c-67 0 -96 -16 -96 -62c0 -45 23 -68 78 -68
c50 0 84 28 112 61v69z" />
    <glyph glyph-name="ordmasculine" unicode="&#xba;" horiz-adv-x="434" 
d="M217 620c106 0 166 -64 166 -176c0 -109 -61 -171 -167 -171c-105 0 -165 62 -165 171c0 112 60 176 166 176zM216 318c75 0 117 41 117 126c0 88 -42 132 -116 132s-115 -44 -115 -132c0 -85 41 -126 114 -126z" />
    <glyph glyph-name="zero" unicode="0" horiz-adv-x="611" 
d="M306 620c166 0 254 -113 254 -315c0 -201 -88 -314 -254 -314s-255 113 -255 314c0 202 89 315 255 315zM306 53c122 0 185 90 185 252c0 163 -63 253 -185 253c-123 0 -186 -90 -186 -253c0 -162 63 -252 186 -252z" />
    <glyph glyph-name="one" unicode="1" horiz-adv-x="475" 
d="M429 0h-370v59h164v471c-49 -21 -101 -37 -154 -48l-13 43c64 21 127 49 182 85h53v-551h138v-59z" />
    <glyph glyph-name="two" unicode="2" horiz-adv-x="515" 
d="M486 0h-444v50c179 148 360 266 360 381c0 82 -50 131 -135 131c-65 0 -138 -20 -208 -54l-20 50c81 39 159 62 238 62c122 0 195 -72 195 -188c0 -136 -167 -243 -341 -376c29 1 59 3 83 3h272v-59z" />
    <glyph glyph-name="three" unicode="3" horiz-adv-x="524" 
d="M59 512l-17 47c75 37 161 58 237 58c116 0 195 -67 195 -167c0 -70 -45 -117 -112 -135c84 -22 131 -69 131 -152c0 -105 -85 -172 -216 -172c-78 0 -174 20 -248 60l21 48c73 -36 160 -52 225 -52c92 0 152 45 152 117c0 82 -65 121 -171 121h-90v59h90
c101 0 154 32 154 98c0 73 -55 120 -138 120c-64 0 -144 -19 -213 -50z" />
    <glyph glyph-name="four" unicode="4" horiz-adv-x="592" 
d="M463 0h-67v144h-362l-3 53l365 413h67v-407h107v-59h-107v-144zM396 203v323c-15 -19 -34 -44 -52 -64l-174 -194c-24 -29 -46 -52 -59 -65h285z" />
    <glyph glyph-name="five" unicode="5" horiz-adv-x="536" 
d="M150 551l-17 -222c55 24 112 38 163 38c121 0 199 -71 199 -182c0 -120 -93 -194 -223 -194c-78 0 -169 21 -243 60l21 50c73 -36 150 -51 215 -51c97 0 165 54 165 137c0 79 -60 132 -151 132c-49 0 -103 -15 -154 -40l-58 9l24 322h382v-59h-323z" />
    <glyph glyph-name="six" unicode="6" horiz-adv-x="564" 
d="M501 589l-17 -50c-52 18 -94 25 -139 25c-134 -1 -223 -102 -227 -275c42 58 111 100 205 100c124 0 206 -74 206 -190c0 -133 -92 -208 -224 -208c-167 0 -254 107 -254 291c0 205 122 338 291 338c40 0 100 -5 159 -31zM305 47c90 0 160 53 160 155
c0 87 -64 140 -159 140c-89 0 -155 -50 -185 -111c13 -118 75 -184 184 -184z" />
    <glyph glyph-name="seven" unicode="7" horiz-adv-x="452" 
d="M448 610v-52c-118 -145 -222 -366 -273 -558h-79c55 190 157 408 276 551h-361v59h437z" />
    <glyph glyph-name="eight" unicode="8" horiz-adv-x="583" 
d="M380 322c113 -28 163 -81 163 -160c0 -107 -96 -171 -249 -171c-166 0 -254 64 -254 171c0 70 42 127 153 156c-82 26 -124 72 -124 142c0 98 87 160 226 160c135 0 218 -62 218 -157c0 -69 -42 -116 -133 -141zM292 573c-94 0 -157 -46 -157 -112
c0 -65 48 -103 165 -124c107 18 150 62 150 125c0 66 -63 111 -158 111zM289 45c112 0 182 45 182 120c0 69 -54 111 -202 134c-123 -22 -163 -71 -163 -133c0 -76 70 -121 183 -121z" />
    <glyph glyph-name="nine" unicode="9" horiz-adv-x="564" 
d="M72 31l20 48c55 -25 97 -31 142 -31c136 0 206 92 210 272c-40 -57 -105 -100 -203 -100c-123 0 -206 76 -206 192c0 134 92 208 231 208c158 0 244 -107 244 -291c0 -219 -98 -338 -271 -338c-62 0 -107 6 -167 40zM259 269c86 0 151 51 182 108
c-12 120 -73 187 -175 187c-97 0 -167 -53 -167 -155c0 -87 64 -140 160 -140z" />
    <glyph glyph-name="zero.osf" horiz-adv-x="591" 
d="M296 525c163 0 244 -113 244 -268c0 -153 -81 -266 -244 -266c-164 0 -245 113 -245 266c0 155 81 268 245 268zM296 53c120 0 175 90 175 204c0 116 -55 206 -175 206s-176 -90 -176 -206c0 -114 56 -204 176 -204z" />
    <glyph glyph-name="one.osf" horiz-adv-x="476" 
d="M434 0h-380v59h170v378c-54 -22 -109 -40 -173 -55l-13 44c79 26 142 56 201 89h54v-456h141v-59z" />
    <glyph glyph-name="two.osf" horiz-adv-x="515" 
d="M486 0h-444v50c179 90 360 170 360 286c0 82 -50 130 -135 130c-65 0 -138 -19 -208 -53l-20 49c81 40 159 63 238 63c122 0 195 -69 195 -181c0 -137 -161 -212 -329 -288c25 2 51 3 71 3h272v-59z" />
    <glyph glyph-name="three.osf" horiz-adv-x="516" 
d="M59 420l-17 47c75 37 160 58 236 58c115 0 195 -67 195 -167c0 -73 -48 -117 -119 -133c88 -20 137 -69 137 -153c0 -106 -85 -173 -215 -173c-79 0 -173 20 -247 60l21 48c73 -36 159 -53 224 -53c91 0 152 47 152 119c0 81 -65 121 -170 121h-90v57h90
c100 0 153 33 153 99c0 73 -55 120 -138 120c-64 0 -143 -19 -212 -50z" />
    <glyph glyph-name="four.osf" horiz-adv-x="592" 
d="M463 0v-120h-67v120h-362l-3 49l365 456h67v-450h107v-55h-107zM396 55v368c-15 -20 -31 -44 -49 -65l-185 -237c-26 -29 -47 -53 -60 -66h294z" />
    <glyph glyph-name="five.osf" horiz-adv-x="536" 
d="M147 447l-18 -228c57 27 114 43 167 43c121 0 199 -71 199 -183c0 -119 -93 -193 -223 -193c-78 0 -169 20 -243 59l21 51c73 -36 150 -53 215 -53c97 0 165 56 165 139c0 79 -60 132 -151 132c-49 0 -103 -15 -154 -40l-58 9l24 322h382v-58h-326z" />
    <glyph glyph-name="six.osf" horiz-adv-x="564" 
d="M501 589l-17 -50c-52 18 -94 25 -139 25c-134 -1 -223 -102 -227 -275c42 58 111 100 205 100c124 0 206 -74 206 -190c0 -133 -92 -208 -224 -208c-167 0 -254 107 -254 291c0 205 122 338 291 338c40 0 100 -5 159 -31zM305 47c90 0 160 53 160 155
c0 87 -64 140 -159 140c-89 0 -155 -50 -185 -111c13 -118 75 -184 184 -184z" />
    <glyph glyph-name="seven.osf" horiz-adv-x="452" 
d="M448 505v-52c-118 -145 -222 -366 -273 -558h-79c55 190 157 408 276 551h-361v59h437z" />
    <glyph glyph-name="eight.osf" horiz-adv-x="583" 
d="M380 322c113 -28 163 -81 163 -160c0 -107 -96 -171 -249 -171c-166 0 -254 64 -254 171c0 70 42 127 153 156c-82 26 -124 72 -124 142c0 98 87 160 226 160c135 0 218 -62 218 -157c0 -69 -42 -116 -133 -141zM292 573c-94 0 -157 -46 -157 -112
c0 -65 48 -103 165 -124c107 18 150 62 150 125c0 66 -63 111 -158 111zM289 45c112 0 182 45 182 120c0 69 -54 111 -202 134c-123 -22 -163 -71 -163 -133c0 -76 70 -121 183 -121z" />
    <glyph glyph-name="nine.osf" horiz-adv-x="564" 
d="M72 -65l20 48c55 -25 97 -30 142 -30c136 0 206 91 210 271c-40 -57 -105 -99 -203 -99c-123 0 -206 75 -206 191c0 134 92 209 231 209c158 0 244 -108 244 -291c0 -220 -98 -338 -271 -338c-62 0 -107 6 -167 39zM259 174c86 0 151 50 182 108
c-12 120 -73 186 -175 186c-97 0 -167 -53 -167 -154c0 -87 64 -140 160 -140z" />
    <glyph glyph-name="zero.tf" horiz-adv-x="555" 
d="M278 620c163 0 251 -113 251 -315c0 -201 -88 -314 -251 -314c-164 0 -252 113 -252 314c0 202 88 315 252 315zM278 53c120 0 182 90 182 252c0 163 -62 253 -182 253s-183 -90 -183 -253c0 -162 63 -252 183 -252z" />
    <glyph glyph-name="one.tf" horiz-adv-x="555" 
d="M482 0h-392v59h167v471c-54 -23 -109 -41 -173 -54l-13 45c78 24 142 53 201 89h54v-551h156v-59z" />
    <glyph glyph-name="two.tf" horiz-adv-x="555" 
d="M496 0h-445v50c179 148 360 266 360 381c0 82 -49 131 -134 131c-65 0 -138 -20 -208 -54l-20 50c80 39 159 62 238 62c122 0 194 -72 194 -188c0 -136 -166 -243 -340 -376c29 1 59 3 82 3h273v-59z" />
    <glyph glyph-name="three.tf" horiz-adv-x="555" 
d="M69 512l-17 47c75 37 161 58 237 58c115 0 195 -67 195 -167c0 -70 -45 -117 -112 -135c83 -22 130 -69 130 -152c0 -105 -85 -172 -215 -172c-79 0 -175 20 -248 60l20 48c74 -36 161 -52 225 -52c92 0 153 45 153 117c0 82 -65 121 -171 121h-90v59h90
c101 0 154 32 154 98c0 73 -55 120 -139 120c-64 0 -144 -19 -212 -50z" />
    <glyph glyph-name="four.tf" horiz-adv-x="555" 
d="M442 144v-144h-68v144h-357l-3 49l360 417h68v-410h102v-56h-102zM374 200v328c-14 -18 -30 -39 -46 -58l-185 -212c-25 -28 -41 -47 -53 -58h284z" />
    <glyph glyph-name="five.tf" horiz-adv-x="555" 
d="M167 551l-17 -222c55 24 112 38 163 38c121 0 199 -71 199 -182c0 -120 -93 -194 -223 -194c-78 0 -169 21 -243 60l21 50c73 -36 150 -51 215 -51c97 0 165 54 165 137c0 79 -60 132 -151 132c-49 0 -103 -15 -154 -40l-58 9l24 322h382v-59h-323z" />
    <glyph glyph-name="six.tf" horiz-adv-x="555" 
d="M491 589l-18 -50c-52 18 -93 25 -139 25c-134 -1 -222 -102 -227 -275c42 58 111 100 205 100c124 0 206 -74 206 -190c0 -133 -91 -208 -223 -208c-168 0 -254 107 -254 291c0 205 121 338 291 338c40 0 100 -5 159 -31zM295 47c89 0 159 53 159 155
c0 87 -63 140 -159 140c-88 0 -155 -50 -185 -111c14 -118 76 -184 185 -184z" />
    <glyph glyph-name="seven.tf" horiz-adv-x="555" 
d="M498 610v-52c-118 -145 -222 -366 -273 -558h-79c56 190 157 408 277 551h-361v59h436z" />
    <glyph glyph-name="eight.tf" horiz-adv-x="555" 
d="M366 322c113 -28 163 -81 163 -160c0 -107 -96 -171 -249 -171c-166 0 -254 64 -254 171c0 70 42 127 153 156c-82 26 -124 72 -124 142c0 98 87 160 226 160c135 0 218 -62 218 -157c0 -69 -42 -116 -133 -141zM278 573c-94 0 -157 -46 -157 -112
c0 -65 48 -103 165 -124c107 18 150 62 150 125c0 66 -63 111 -158 111zM275 45c112 0 182 45 182 120c0 69 -54 111 -202 134c-123 -22 -163 -71 -163 -133c0 -76 70 -121 183 -121z" />
    <glyph glyph-name="nine.tf" horiz-adv-x="555" 
d="M70 31l20 48c55 -25 97 -31 142 -31c136 0 206 92 210 272c-40 -57 -105 -100 -202 -100c-124 0 -207 76 -207 192c0 134 92 208 231 208c159 0 245 -107 245 -291c0 -219 -99 -338 -272 -338c-62 0 -106 6 -167 40zM257 269c86 0 151 51 183 108
c-13 120 -74 187 -176 187c-97 0 -166 -53 -166 -155c0 -87 63 -140 159 -140z" />
    <glyph glyph-name="zero.zero" horiz-adv-x="611" 
d="M299 620c166 0 254 -113 254 -315c0 -201 -88 -314 -254 -314s-254 113 -254 314c0 202 88 315 254 315zM139 156l295 341c-31 40 -76 61 -135 61c-123 0 -185 -90 -185 -254c0 -59 8 -109 25 -148zM456 460l-296 -342c31 -43 78 -65 139 -65c122 0 185 89 185 251
c0 63 -9 115 -28 156z" />
    <glyph glyph-name="fraction" unicode="&#x2044;" horiz-adv-x="216" 
d="M309 610l-359 -610h-44l359 610h44z" />
    <glyph glyph-name="onehalf" unicode="&#xbd;" horiz-adv-x="879" 
d="M290 231h-250v42h107v282c-33 -12 -71 -23 -107 -32l-10 32c49 18 88 35 126 55h38v-337h96v-42zM629 610l-359 -610h-44l359 610h44zM814 0h-276v36c111 92 218 160 218 232c0 49 -28 76 -78 76c-39 0 -85 -12 -127 -32l-15 34c51 25 100 39 148 39
c76 0 121 -44 121 -117c0 -83 -97 -146 -204 -228c15 1 31 1 43 1h170v-41z" />
    <glyph glyph-name="onequarter" unicode="&#xbc;" horiz-adv-x="873" 
d="M290 231h-250v42h107v282c-33 -12 -71 -23 -107 -32l-10 32c49 18 88 35 126 55h38v-337h96v-42zM629 610l-359 -610h-44l359 610h44zM739 84v-84h-47v84h-225l-1 36l226 259h47v-256h62v-39h-62zM692 123v200c-7 -10 -13 -18 -25 -31l-116 -129c-15 -17 -28 -31 -37 -40
h178z" />
    <glyph glyph-name="threequarters" unicode="&#xbe;" horiz-adv-x="862" 
d="M39 552l-13 33c46 23 99 36 146 36c75 0 121 -39 121 -104c1 -44 -26 -72 -65 -84c51 -15 77 -45 77 -93c0 -69 -49 -108 -134 -108c-49 0 -108 13 -153 38l15 34c45 -23 97 -33 137 -33c57 0 89 25 89 69c0 48 -34 73 -100 73h-64v40h64c59 0 90 20 90 59
c0 45 -30 69 -81 69c-40 0 -87 -10 -129 -29zM633 610l-359 -610h-44l358 610h45zM737 84v-84h-46v84h-226l-1 36l227 259h46v-255h62v-40h-62zM691 124v199c-7 -9 -14 -17 -25 -30l-117 -129c-15 -18 -28 -32 -36 -40h178z" />
    <glyph glyph-name="oneeighth" unicode="&#x215b;" horiz-adv-x="916" 
d="M290 231h-250v42h107v282c-33 -12 -71 -23 -107 -32l-10 32c49 18 88 35 126 55h38v-337h96v-42zM629 610l-359 -610h-44l359 610h44zM682 -9c-101 0 -158 42 -158 107c0 43 29 77 90 94c-45 18 -71 48 -71 91c0 60 54 98 140 98c83 0 135 -38 135 -96
c0 -43 -27 -73 -77 -90c61 -17 95 -48 95 -98c1 -65 -61 -107 -154 -106zM681 347c-55 0 -92 -25 -92 -63c0 -41 32 -65 96 -77c59 11 88 38 88 77c0 38 -37 63 -92 63zM679 30c64 0 107 28 107 69s-38 67 -120 80c-66 -13 -95 -41 -95 -79c0 -42 43 -70 108 -70z" />
    <glyph glyph-name="threeeighths" unicode="&#x215c;" horiz-adv-x="912" 
d="M39 552l-13 33c46 23 99 36 146 36c75 0 121 -39 121 -104c1 -44 -26 -72 -65 -84c51 -15 77 -45 77 -93c0 -69 -49 -108 -134 -108c-49 0 -108 13 -153 38l15 34c45 -23 97 -33 137 -33c57 0 89 25 89 69c0 48 -34 73 -100 73h-64v40h64c59 0 90 20 90 59
c0 45 -30 69 -81 69c-40 0 -87 -10 -129 -29zM633 610l-359 -610h-44l358 610h45zM685 -9c-100 0 -157 42 -157 107c0 43 29 77 90 94c-46 18 -72 48 -72 91c0 61 55 98 140 98c84 0 135 -37 135 -96c0 -43 -26 -73 -77 -90c62 -17 96 -48 96 -97c0 -66 -61 -108 -155 -107z
M685 347c-56 0 -93 -25 -93 -63c0 -41 33 -65 97 -77c58 11 87 38 87 77c0 38 -36 63 -91 63zM682 30c65 0 108 28 108 69s-38 67 -120 80c-66 -13 -95 -41 -95 -79c0 -42 43 -70 107 -70z" />
    <glyph glyph-name="fiveeighths" unicode="&#x215d;" horiz-adv-x="928" 
d="M107 569l-11 -131c37 17 73 27 104 27c79 0 123 -43 123 -119c0 -78 -54 -120 -138 -120c-49 0 -105 13 -151 38l16 36c45 -23 91 -33 130 -33c61 0 97 30 97 81c0 52 -32 82 -88 82c-28 0 -61 -9 -96 -25l-41 6l15 199h242v-41h-202zM647 610l-359 -610h-44l358 610h45z
M702 -9c-101 0 -158 41 -158 106c0 44 29 78 90 95c-45 18 -71 48 -71 91c0 60 54 98 140 98c83 0 135 -38 135 -96c0 -43 -27 -73 -77 -90c61 -17 95 -48 95 -98c1 -65 -61 -107 -154 -106zM701 347c-55 0 -92 -25 -92 -63c0 -41 32 -65 96 -77c59 11 88 38 88 77
c0 38 -37 63 -92 63zM699 30c64 0 107 28 107 69s-38 67 -120 80c-66 -13 -95 -41 -95 -79c0 -42 43 -70 108 -70z" />
    <glyph glyph-name="seveneighths" unicode="&#x215e;" horiz-adv-x="865" 
d="M304 610v-36c-74 -91 -139 -223 -170 -343h-55c34 118 98 249 173 338h-220v41h272zM553 610l-359 -610h-44l358 610h45zM630 -9c-100 0 -157 41 -157 106c0 44 29 78 90 95c-45 18 -72 48 -72 91c0 60 55 98 140 98c84 0 135 -38 135 -96c0 -43 -26 -73 -76 -90
c61 -17 95 -48 95 -98c0 -65 -61 -107 -155 -106zM630 347c-56 0 -93 -25 -93 -63c0 -41 33 -65 97 -77c58 11 87 38 87 77c0 38 -36 63 -91 63zM627 30c65 0 108 28 108 69s-38 67 -120 80c-66 -13 -95 -41 -95 -79c0 -42 43 -70 107 -70z" />
    <glyph glyph-name="zero.dnom" horiz-adv-x="393" 
d="M197 381c103 0 157 -69 157 -195c0 -125 -54 -195 -157 -195c-104 0 -158 70 -158 195c0 126 54 195 158 195zM197 35c76 0 109 50 109 151s-33 152 -109 152c-77 0 -110 -51 -110 -152s33 -151 110 -151z" />
    <glyph glyph-name="one.dnom" horiz-adv-x="313" 
d="M290 0h-250v42h107v282c-33 -12 -71 -23 -107 -32l-10 32c49 18 88 35 126 55h38v-337h96v-42z" />
    <glyph glyph-name="two.dnom" horiz-adv-x="340" 
d="M306 0h-276v36c111 92 218 160 218 232c0 49 -28 76 -78 76c-39 0 -85 -12 -127 -32l-15 35c51 24 100 38 148 38c76 0 121 -43 121 -117c0 -83 -97 -146 -204 -228c15 1 31 2 43 2h170v-42z" />
    <glyph glyph-name="three.dnom" horiz-adv-x="339" 
d="M39 311l-13 33c46 23 99 36 146 36c75 0 121 -39 121 -104c1 -44 -26 -72 -65 -84c51 -15 77 -45 77 -93c0 -69 -49 -108 -134 -108c-49 0 -108 13 -153 38l15 34c45 -23 97 -33 137 -33c57 0 89 25 89 69c0 48 -34 73 -100 73h-64v40h64c59 0 90 20 90 59
c0 45 -30 69 -81 69c-40 0 -87 -10 -129 -29z" />
    <glyph glyph-name="four.dnom" horiz-adv-x="374" 
d="M288 84v-84h-46v84h-225l-2 36l227 259h46v-255h62v-40h-62zM242 124v199c-7 -9 -14 -17 -25 -30l-117 -129c-14 -18 -28 -32 -36 -40h178z" />
    <glyph glyph-name="five.dnom" horiz-adv-x="346" 
d="M100 334l-11 -131c37 17 74 27 105 27c78 0 123 -43 123 -119c0 -78 -54 -120 -138 -120c-50 0 -106 13 -151 38l15 36c45 -23 91 -33 131 -33c60 0 97 30 97 81c0 52 -32 82 -88 82c-29 0 -62 -9 -96 -25l-41 6l15 199h242v-41h-203z" />
    <glyph glyph-name="six.dnom" horiz-adv-x="373" 
d="M324 362l-13 -34c-32 10 -56 13 -84 13c-86 0 -139 -61 -142 -162c30 38 77 58 129 58c77 0 127 -47 127 -117c1 -77 -53 -129 -139 -129c-105 0 -163 67 -163 181c0 127 75 209 186 209c32 0 68 -5 99 -19zM202 31c56 0 94 36 94 91c0 48 -37 82 -93 82
c-49 0 -95 -25 -116 -62c9 -72 50 -111 115 -111z" />
    <glyph glyph-name="seven.dnom" horiz-adv-x="311" 
d="M291 379v-36c-74 -91 -139 -223 -170 -343h-56c34 118 99 249 173 338h-219v41h272z" />
    <glyph glyph-name="eight.dnom" horiz-adv-x="374" 
d="M189 -9c-101 0 -158 42 -158 107c0 43 29 77 90 94c-45 18 -71 48 -71 91c0 60 54 98 140 98c83 0 135 -38 135 -96c0 -43 -27 -73 -77 -90c61 -17 95 -48 95 -98c1 -65 -61 -107 -154 -106zM188 347c-55 0 -92 -25 -92 -63c0 -41 32 -65 96 -77c59 11 88 38 88 77
c0 38 -37 63 -92 63zM186 30c64 0 107 28 107 69s-38 67 -120 80c-66 -13 -95 -41 -95 -79c0 -42 43 -70 108 -70z" />
    <glyph glyph-name="nine.dnom" horiz-adv-x="365" 
d="M54 15l13 35c35 -16 60 -19 88 -19c83 0 121 52 124 155c-26 -28 -66 -50 -120 -50c-77 0 -128 44 -128 116c0 83 57 129 143 129c99 0 152 -66 152 -180c0 -136 -60 -210 -170 -210c-32 0 -68 5 -102 24zM170 169c49 0 88 22 109 53c-5 79 -39 119 -105 119
c-60 0 -98 -27 -98 -90c0 -55 34 -82 94 -82z" />
    <glyph glyph-name="zero.numr" horiz-adv-x="393" 
d="M197 620c103 0 157 -69 157 -195c0 -125 -54 -195 -157 -195c-104 0 -158 70 -158 195c0 126 54 195 158 195zM197 274c76 0 109 50 109 151s-33 152 -109 152c-77 0 -110 -51 -110 -152s33 -151 110 -151z" />
    <glyph glyph-name="one.numr" horiz-adv-x="313" 
d="M290 231h-250v42h107v282c-33 -12 -71 -23 -107 -32l-10 32c49 18 88 35 126 55h38v-337h96v-42z" />
    <glyph glyph-name="two.numr" horiz-adv-x="340" 
d="M306 235h-276v36c111 92 218 160 218 232c0 49 -28 76 -78 76c-39 0 -85 -12 -127 -32l-15 35c51 24 100 38 148 38c76 0 121 -43 121 -117c0 -83 -97 -146 -204 -228c15 1 31 2 43 2h170v-42z" />
    <glyph glyph-name="three.numr" horiz-adv-x="339" 
d="M39 552l-13 33c46 23 99 36 146 36c75 0 121 -39 121 -104c1 -44 -26 -72 -65 -84c51 -15 77 -45 77 -93c0 -69 -49 -108 -134 -108c-49 0 -108 13 -153 38l15 34c45 -23 97 -33 137 -33c57 0 89 25 89 69c0 48 -34 73 -100 73h-64v40h64c59 0 90 20 90 59
c0 45 -30 69 -81 69c-40 0 -87 -10 -129 -29z" />
    <glyph glyph-name="four.numr" horiz-adv-x="374" 
d="M288 315v-84h-46v84h-225l-2 36l227 259h46v-255h62v-40h-62zM242 355v199c-7 -9 -14 -17 -25 -30l-117 -129c-14 -18 -28 -32 -36 -40h178z" />
    <glyph glyph-name="five.numr" horiz-adv-x="346" 
d="M100 569l-11 -131c37 17 74 27 105 27c78 0 123 -43 123 -119c0 -78 -54 -120 -138 -120c-50 0 -106 13 -151 38l15 36c45 -23 91 -33 131 -33c60 0 97 30 97 81c0 52 -32 82 -88 82c-29 0 -62 -9 -96 -25l-41 6l15 199h242v-41h-203z" />
    <glyph glyph-name="six.numr" horiz-adv-x="373" 
d="M324 601l-13 -34c-32 10 -56 13 -84 13c-86 0 -139 -61 -142 -162c30 38 77 58 129 58c77 0 127 -47 127 -117c1 -77 -53 -129 -139 -129c-105 0 -163 67 -163 181c0 127 75 209 186 209c32 0 68 -5 99 -19zM202 270c56 0 94 36 94 91c0 48 -37 82 -93 82
c-49 0 -95 -25 -116 -62c9 -72 50 -111 115 -111z" />
    <glyph glyph-name="seven.numr" horiz-adv-x="311" 
d="M291 610v-36c-74 -91 -139 -223 -170 -343h-56c34 118 99 249 173 338h-219v41h272z" />
    <glyph glyph-name="eight.numr" horiz-adv-x="374" 
d="M189 230c-101 0 -158 42 -158 107c0 43 29 77 90 94c-45 18 -71 48 -71 91c0 60 54 98 140 98c83 0 135 -38 135 -96c0 -43 -27 -73 -77 -90c61 -17 95 -48 95 -98c1 -65 -61 -107 -154 -106zM188 586c-55 0 -92 -25 -92 -63c0 -41 32 -65 96 -77c59 11 88 38 88 77
c0 38 -37 63 -92 63zM186 269c64 0 107 28 107 69s-38 67 -120 80c-66 -13 -95 -41 -95 -79c0 -42 43 -70 108 -70z" />
    <glyph glyph-name="nine.numr" horiz-adv-x="365" 
d="M54 254l13 35c35 -16 60 -19 88 -19c83 0 121 52 124 155c-26 -28 -66 -50 -120 -50c-77 0 -128 44 -128 116c0 83 57 129 143 129c99 0 152 -66 152 -180c0 -136 -60 -210 -170 -210c-32 0 -68 5 -102 24zM170 408c49 0 88 22 109 53c-5 79 -39 119 -105 119
c-60 0 -98 -27 -98 -90c0 -55 34 -82 94 -82z" />
    <glyph glyph-name="onesuperior" unicode="&#xb9;" horiz-adv-x="313" 
d="M290 331h-250v42h107v282c-33 -12 -71 -23 -107 -32l-10 32c49 18 88 35 126 55h38v-337h96v-42z" />
    <glyph glyph-name="twosuperior" unicode="&#xb2;" horiz-adv-x="340" 
d="M306 335h-276v36c111 92 218 160 218 232c0 49 -28 76 -78 76c-39 0 -85 -12 -127 -32l-15 35c51 24 100 38 148 38c76 0 121 -43 121 -117c0 -83 -97 -146 -204 -228c15 1 31 2 43 2h170v-42z" />
    <glyph glyph-name="threesuperior" unicode="&#xb3;" horiz-adv-x="339" 
d="M39 718l-13 34c46 22 99 35 146 35c75 0 121 -38 121 -103c1 -44 -26 -73 -65 -84c51 -15 77 -45 77 -94c0 -69 -49 -107 -134 -107c-49 0 -108 12 -153 37l15 34c45 -23 97 -32 137 -32c57 0 89 25 89 69c0 47 -34 73 -100 73h-64v40h64c59 0 90 19 90 59
c0 44 -30 69 -81 69c-40 0 -87 -11 -129 -30z" />
    <glyph glyph-name="asterisk" unicode="*" horiz-adv-x="413" 
d="M321 337l-27 -23l-87 97l-88 -97l-27 23l77 101l-116 47l11 34l119 -38l5 129h37l5 -129l120 38l11 -34l-117 -48z" />
    <glyph glyph-name="backslash" unicode="\" horiz-adv-x="408" 
d="M378 -205h-57l-260 869h59z" />
    <glyph glyph-name="bullet" unicode="&#x2022;" horiz-adv-x="308" 
d="M91 282c0 38 25 63 63 63c39 0 63 -25 63 -63c0 -36 -24 -62 -63 -62c-38 0 -63 26 -63 62z" />
    <glyph glyph-name="colon" unicode=":" horiz-adv-x="238" 
d="M76 381c0 25 17 43 43 43s43 -18 43 -43s-17 -43 -43 -43s-43 18 -43 43zM76 41c0 25 17 42 43 42s43 -17 43 -42s-17 -44 -43 -44s-43 19 -43 44z" />
    <glyph glyph-name="comma" unicode="," horiz-adv-x="248" 
d="M81 -126l-20 21c42 37 53 70 58 105c-20 4 -33 20 -33 40c0 25 17 43 43 43s43 -21 43 -48c0 -54 -25 -112 -91 -161z" />
    <glyph glyph-name="ellipsis" unicode="&#x2026;" horiz-adv-x="684" 
d="M112 83c26 0 43 -17 43 -42s-17 -44 -43 -44s-42 19 -42 44s16 42 42 42zM336 83c26 0 42 -17 42 -42s-16 -44 -42 -44s-43 19 -43 44s17 42 43 42zM558 83c26 0 43 -17 43 -42s-17 -44 -43 -44s-42 19 -42 44s16 42 42 42z" />
    <glyph glyph-name="exclam" unicode="!" horiz-adv-x="206" 
d="M75 193l-8 417h72l-9 -417h-55zM103 73c23 0 38 -15 38 -37s-15 -39 -38 -39s-38 17 -38 39s15 37 38 37z" />
    <glyph glyph-name="exclamdown" unicode="&#xa1;" horiz-adv-x="206" 
d="M96 402c-23 0 -37 16 -37 38s14 38 37 38s38 -16 38 -38s-15 -38 -38 -38zM132 -135h-72l9 418h54z" />
    <glyph glyph-name="numbersign" unicode="#" horiz-adv-x="685" 
d="M462 187h130l-10 -49h-132l-34 -138h-56l34 138h-171l-34 -138h-56l34 138h-122l10 49h124l43 177h-122l10 49h124l34 137h56l-34 -137h172l34 137h55l-34 -137h130l-10 -49h-131zM278 364l-44 -177h172l44 177h-172z" />
    <glyph glyph-name="period" unicode="." horiz-adv-x="238" 
d="M76 41c0 25 17 42 43 42s43 -17 43 -42s-17 -44 -43 -44s-43 19 -43 44z" />
    <glyph glyph-name="periodcentered" unicode="&#xb7;" horiz-adv-x="268" 
d="M84 283c0 25 17 43 43 43s43 -18 43 -43s-17 -43 -43 -43s-43 18 -43 43z" />
    <glyph glyph-name="question" unicode="?" horiz-adv-x="504" 
d="M44 505l-20 53c81 39 159 62 238 62c119 0 194 -72 195 -183c-1 -94 -80 -158 -214 -180l2 -79h-56l-10 129c130 12 208 57 208 124c0 78 -52 127 -135 127c-65 0 -138 -19 -208 -53zM218 73c23 0 38 -15 38 -37s-15 -39 -38 -39s-38 17 -38 39s15 37 38 37z" />
    <glyph glyph-name="questiondown" unicode="&#xbf;" horiz-adv-x="504" 
d="M294 402c-23 0 -37 15 -37 37s14 39 37 39s38 -17 38 -39s-15 -37 -38 -37zM468 -30l20 -53c-81 -39 -159 -62 -238 -62c-119 0 -194 72 -195 183c1 94 80 158 214 180l-2 79h56l10 -129c-130 -12 -208 -57 -208 -124c0 -78 52 -127 135 -127c65 0 138 19 208 53z" />
    <glyph glyph-name="quotedbl" unicode="&#x22;" horiz-adv-x="287" 
d="M120 655l-18 -256h-45v256h63zM228 655l-19 -256h-45v256h64z" />
    <glyph glyph-name="quotesingle" unicode="'" horiz-adv-x="180" 
d="M127 655l-19 -256h-45v256h64z" />
    <glyph glyph-name="semicolon" unicode=";" horiz-adv-x="248" 
d="M73 381c0 25 17 43 43 43s43 -18 43 -43s-17 -43 -43 -43s-43 18 -43 43zM74 -126l-19 21c42 37 53 70 58 105c-20 4 -34 20 -34 40c0 25 17 43 43 43s43 -21 43 -48c0 -54 -25 -112 -91 -161z" />
    <glyph glyph-name="slash" unicode="/" horiz-adv-x="408" 
d="M354 664l-259 -869h-58l258 869h59z" />
    <glyph glyph-name="underscore" unicode="_" horiz-adv-x="457" 
d="M58 -108v51h341v-51h-341z" />
    <glyph glyph-name="backslash.case" horiz-adv-x="400" 
d="M339 -71h-58l-220 735h59z" />
    <glyph glyph-name="bullet.case" horiz-adv-x="308" 
d="M91 312c0 38 25 63 63 63c39 0 63 -25 63 -63c0 -36 -24 -62 -63 -62c-38 0 -63 26 -63 62z" />
    <glyph glyph-name="exclamdown.case" horiz-adv-x="206" 
d="M96 537c-23 0 -37 16 -37 38s14 38 37 38s38 -16 38 -38s-15 -38 -38 -38zM132 0h-72l9 418h54z" />
    <glyph glyph-name="periodcentered.case" horiz-adv-x="268" 
d="M84 316c0 25 17 43 43 43s43 -18 43 -43s-17 -43 -43 -43s-43 18 -43 43z" />
    <glyph glyph-name="questiondown.case" horiz-adv-x="504" 
d="M294 537c-23 0 -37 16 -37 38s14 38 37 38s38 -16 38 -38s-15 -38 -38 -38zM468 106l20 -53c-81 -40 -159 -62 -238 -62c-119 0 -194 71 -195 183c1 94 80 158 214 180l-2 79h56l10 -129c-130 -12 -208 -57 -208 -124c0 -78 52 -127 135 -127c65 0 138 19 208 53z" />
    <glyph glyph-name="slash.case" horiz-adv-x="409" 
d="M348 664l-229 -768h-58l228 768h59z" />
    <glyph glyph-name="braceleft" unicode="{" horiz-adv-x="378" 
d="M235 81v-75c0 -70 30 -110 115 -125l-5 -47c-122 11 -172 66 -172 172v75c0 109 -24 138 -121 141v47c97 2 121 32 121 141v75c0 106 50 160 172 171l5 -47c-85 -14 -115 -55 -115 -124v-75c0 -111 -28 -152 -102 -165c74 -12 102 -53 102 -164z" />
    <glyph glyph-name="braceright" unicode="}" horiz-adv-x="378" 
d="M150 6v74c0 112 28 153 102 165c-74 13 -102 54 -102 165v75c0 69 -30 110 -115 124l6 47c121 -11 172 -66 172 -171v-75c0 -110 23 -139 120 -141v-47c-97 -3 -120 -32 -120 -142v-74c0 -106 -51 -161 -172 -172l-6 47c85 15 115 55 115 125z" />
    <glyph glyph-name="bracketleft" unicode="[" horiz-adv-x="353" 
d="M323 606h-163v-727h163v-54h-224v835h224v-54z" />
    <glyph glyph-name="bracketright" unicode="]" horiz-adv-x="353" 
d="M262 660v-835h-224v54h162v727h-162v54h224z" />
    <glyph glyph-name="parenleft" unicode="(" horiz-adv-x="308" 
d="M238 659l42 -27c-79 -107 -131 -238 -131 -388s52 -281 131 -389l-42 -27c-95 116 -150 257 -150 416s55 299 150 415z" />
    <glyph glyph-name="parenright" unicode=")" horiz-adv-x="305" 
d="M33 633l42 26c95 -116 150 -256 150 -415s-55 -300 -150 -416l-42 27c79 108 131 239 131 389s-52 281 -131 389z" />
    <glyph glyph-name="braceleft.case" horiz-adv-x="378" 
d="M235 142v-32c0 -65 30 -105 115 -120l-5 -47c-121 11 -172 66 -172 167v32c0 110 -24 136 -120 139v47c96 2 120 32 120 139v32c0 101 51 155 172 166l5 -47c-85 -14 -115 -55 -115 -119v-32c0 -110 -28 -150 -102 -163c74 -12 102 -51 102 -162z" />
    <glyph glyph-name="braceright.case" horiz-adv-x="378" 
d="M150 110v32c0 111 28 150 102 162c-74 13 -102 53 -102 162v33c0 64 -30 105 -115 119l6 47c121 -11 172 -66 172 -166v-33c0 -107 23 -136 120 -138v-47c-97 -3 -120 -30 -120 -139v-32c0 -101 -51 -156 -172 -167l-6 47c85 15 115 55 115 120z" />
    <glyph glyph-name="bracketleft.case" horiz-adv-x="353" 
d="M323 606h-163v-603h163v-54h-224v711h224v-54z" />
    <glyph glyph-name="bracketright.case" horiz-adv-x="353" 
d="M262 660v-711h-224v54h162v603h-162v54h224z" />
    <glyph glyph-name="parenleft.case" horiz-adv-x="306" 
d="M238 659l41 -26c-80 -93 -130 -179 -130 -329s50 -236 130 -329l-41 -27c-95 102 -150 197 -150 356s55 254 150 355z" />
    <glyph glyph-name="parenright.case" horiz-adv-x="304" 
d="M33 633l40 26c96 -101 151 -196 151 -355s-55 -254 -151 -356l-40 27c80 93 129 179 129 329s-49 236 -129 329z" />
    <glyph glyph-name="emdash" unicode="&#x2014;" horiz-adv-x="890" 
d="M824 303v-52h-758v52h758z" />
    <glyph glyph-name="endash" unicode="&#x2013;" horiz-adv-x="500" 
d="M434 303v-52h-368v52h368z" />
    <glyph glyph-name="hyphen" unicode="-" horiz-adv-x="390" 
d="M324 312v-60h-258v60h258z" />
    <glyph glyph-name="emdash.case" horiz-adv-x="890" 
d="M817 341v-53h-758v53h758z" />
    <glyph glyph-name="endash.case" horiz-adv-x="500" 
d="M427 341v-53h-368v53h368z" />
    <glyph glyph-name="hyphen.case" horiz-adv-x="390" 
d="M317 346v-60h-258v60h258z" />
    <glyph glyph-name="guillemotleft" unicode="&#xab;" horiz-adv-x="519" 
d="M285 412l-129 -134c-12 -13 -25 -25 -39 -36c14 -11 28 -23 40 -36l128 -133l-36 -33l-200 203l199 203zM450 412l-128 -134c-13 -13 -25 -25 -39 -36c14 -11 27 -23 40 -36l127 -133l-36 -33l-199 203l198 203z" />
    <glyph glyph-name="guillemotright" unicode="&#xbb;" horiz-adv-x="519" 
d="M90 40l-34 33l127 133c13 13 26 25 39 36c-13 12 -26 23 -38 36l-128 134l35 34l199 -203zM255 40l-34 33l127 133c13 13 26 25 40 36c-14 12 -26 23 -39 36l-128 134l35 34l199 -203z" />
    <glyph glyph-name="guilsinglleft" unicode="&#x2039;" horiz-adv-x="354" 
d="M291 412l-128 -134c-12 -13 -25 -25 -39 -36c14 -11 27 -23 40 -36l127 -133l-35 -33l-200 203l199 203z" />
    <glyph glyph-name="guilsinglright" unicode="&#x203a;" horiz-adv-x="354" 
d="M97 40l-34 33l127 133c13 13 25 25 39 36c-14 12 -26 23 -38 36l-128 134l35 34l198 -203z" />
    <glyph glyph-name="quotedblbase" unicode="&#x201e;" horiz-adv-x="388" 
d="M214 -103l-19 21c42 37 53 69 58 105c-20 4 -34 20 -34 40c0 25 17 43 43 43s43 -21 43 -48c0 -54 -25 -112 -91 -161zM74 -103l-19 21c42 37 53 69 58 105c-20 4 -34 20 -34 40c0 25 17 43 43 43s43 -21 43 -48c0 -54 -25 -112 -91 -161z" />
    <glyph glyph-name="quotedblleft" unicode="&#x201c;" horiz-adv-x="388" 
d="M175 666l19 -21c-42 -37 -53 -69 -58 -105c20 -4 34 -20 34 -40c0 -25 -17 -43 -43 -43s-43 21 -43 48c0 54 25 112 91 161zM315 666l19 -21c-42 -37 -53 -69 -58 -105c20 -4 34 -20 34 -40c0 -25 -17 -43 -43 -43s-43 21 -43 48c0 54 25 112 91 161z" />
    <glyph glyph-name="quotedblright" unicode="&#x201d;" horiz-adv-x="388" 
d="M214 457l-19 21c42 37 53 69 58 105c-20 4 -34 20 -34 40c0 25 17 43 43 43s43 -21 43 -48c0 -54 -25 -112 -91 -161zM74 457l-19 21c42 37 53 69 58 105c-20 4 -34 20 -34 40c0 25 17 43 43 43s43 -21 43 -48c0 -54 -25 -112 -91 -161z" />
    <glyph glyph-name="quoteleft" unicode="&#x2018;" horiz-adv-x="248" 
d="M175 666l19 -21c-42 -37 -53 -69 -58 -105c20 -4 34 -20 34 -40c0 -25 -17 -43 -43 -43s-43 21 -43 48c0 54 25 112 91 161z" />
    <glyph glyph-name="quoteright" unicode="&#x2019;" horiz-adv-x="248" 
d="M74 457l-19 21c42 37 53 69 58 105c-20 4 -34 20 -34 40c0 25 17 43 43 43s43 -21 43 -48c0 -54 -25 -112 -91 -161z" />
    <glyph glyph-name="quotesinglbase" unicode="&#x201a;" horiz-adv-x="248" 
d="M74 -103l-19 21c42 37 53 69 58 105c-20 4 -34 20 -34 40c0 25 17 43 43 43s43 -21 43 -48c0 -54 -25 -112 -91 -161z" />
    <glyph glyph-name="guillemotleft.case" horiz-adv-x="519" 
d="M285 471l-129 -134c-12 -13 -25 -25 -39 -36c14 -11 28 -23 40 -36l128 -133l-36 -33l-200 203l199 203zM450 471l-128 -134c-13 -13 -25 -25 -39 -36c14 -11 27 -23 40 -36l127 -133l-36 -33l-199 203l198 203z" />
    <glyph glyph-name="guillemotright.case" horiz-adv-x="519" 
d="M90 99l-34 33l127 133c13 13 26 25 39 36c-13 12 -26 23 -38 36l-128 134l35 34l199 -203zM255 99l-34 33l127 133c13 13 26 25 40 36c-14 12 -26 23 -39 36l-128 134l35 34l199 -203z" />
    <glyph glyph-name="guilsinglleft.case" horiz-adv-x="354" 
d="M285 471l-129 -134c-12 -13 -25 -25 -39 -36c14 -11 28 -23 40 -36l128 -133l-36 -33l-200 203l199 203z" />
    <glyph glyph-name="guilsinglright.case" horiz-adv-x="354" 
d="M90 99l-34 33l127 133c13 13 26 25 39 36c-13 12 -26 23 -38 36l-128 134l35 34l199 -203z" />
    <glyph glyph-name="space" unicode=" " horiz-adv-x="230" 
 />
    <glyph glyph-name="uni2009" unicode="&#x2009;" horiz-adv-x="95" 
 />
    <glyph glyph-name="florin" unicode="&#x192;" horiz-adv-x="544" 
d="M526 495l-22 -42c-47 29 -98 41 -144 41c-85 0 -148 -53 -177 -200l-9 -42h242l-10 -46h-241l-40 -206h-66l41 206h-65l9 46h65l8 42c35 181 114 254 236 254c59 0 120 -15 173 -53z" />
    <glyph glyph-name="florin.tf" horiz-adv-x="555" 
d="M522 495l-23 -42c-46 29 -98 41 -143 41c-86 0 -149 -53 -178 -200l-8 -42h241l-9 -46h-241l-40 -206h-66l40 206h-64l9 46h64l9 42c35 181 114 254 235 254c59 0 121 -15 174 -53z" />
    <glyph glyph-name="cent" unicode="&#xa2;" horiz-adv-x="514" 
d="M456 109l26 -40c-47 -49 -100 -72 -174 -77v-58h-48v58c-103 6 -209 77 -209 273c0 191 103 270 209 279v66h48v-66c56 -4 109 -20 155 -52l-23 -44c-46 31 -98 41 -150 41c-84 0 -173 -56 -173 -224c0 -164 86 -218 168 -218c70 0 123 17 171 62z" />
    <glyph glyph-name="dollar" unicode="$" horiz-adv-x="522" 
d="M444 491l-18 -47c-64 28 -132 48 -186 48c-68 0 -112 -32 -112 -80c0 -54 29 -71 157 -112c137 -42 181 -84 181 -164c0 -86 -73 -145 -190 -145v-58h-48v61c-72 7 -135 34 -192 84l26 47c64 -55 140 -80 213 -80c78 0 126 36 126 90c0 56 -33 78 -162 120
c-130 42 -175 74 -175 157c0 77 63 129 164 131v68h48v-70c57 -6 114 -24 168 -50z" />
    <glyph glyph-name="Euro" unicode="&#x20ac;" horiz-adv-x="593" 
d="M524 109l26 -40c-54 -55 -115 -78 -205 -78c-94 0 -195 51 -220 198h-78v39h73c-1 12 -1 24 -1 37c0 12 0 25 1 36h-73v40h78c25 147 126 204 225 204c66 0 127 -16 181 -53l-23 -44c-46 31 -98 43 -151 43c-65 0 -142 -36 -166 -150h265l-12 -40h-258
c-1 -11 -2 -23 -2 -36s1 -25 2 -37h240l-12 -39h-223c23 -113 97 -144 162 -144c70 0 123 19 171 64z" />
    <glyph glyph-name="sterling" unicode="&#xa3;" horiz-adv-x="542" 
d="M187 56h313v-56h-464v49l86 6l12 157h-94v47h97l3 35c14 183 87 254 208 254c59 0 122 -15 174 -53l-23 -44c-46 31 -98 43 -143 43c-86 0 -139 -50 -150 -200l-3 -35h208v-47h-212z" />
    <glyph glyph-name="yen" unicode="&#xa5;" horiz-adv-x="514" 
d="M312 236h134v-39h-155v-66h155v-39h-155v-92h-68v92h-150v39h150v66h-150v39h129l-186 307h71l154 -247c6 -12 11 -22 16 -34l17 34l153 247h71z" />
    <glyph glyph-name="cent.tf" horiz-adv-x="555" 
d="M468 109l27 -40c-48 -49 -101 -72 -174 -77v-58h-48v58c-104 6 -209 77 -209 273c0 191 102 270 209 279v66h48v-66c56 -4 109 -20 155 -52l-23 -44c-47 31 -98 41 -151 41c-82 0 -172 -54 -172 -224c0 -164 85 -218 168 -218c70 0 122 17 170 62z" />
    <glyph glyph-name="dollar.tf" horiz-adv-x="555" 
d="M465 491l-19 -47c-63 28 -132 48 -186 48c-68 0 -111 -32 -111 -81c0 -53 29 -70 156 -111c138 -42 181 -85 181 -164c0 -87 -73 -145 -190 -145v-58h-48v61c-72 7 -135 34 -192 84l27 47c63 -55 140 -81 212 -81c79 0 127 37 127 91c0 55 -34 78 -163 120
c-130 42 -175 74 -175 156c0 78 64 130 164 132v68h48v-70c58 -6 114 -24 169 -50z" />
    <glyph glyph-name="Euro.tf" horiz-adv-x="555" 
d="M496 109l26 -40c-54 -55 -115 -78 -205 -78c-94 0 -195 51 -220 198h-78v39h73c-1 12 -1 24 -1 37c0 12 0 25 1 36h-73v40h78c25 147 126 204 225 204c66 0 127 -16 181 -53l-23 -44c-46 31 -98 43 -151 43c-65 0 -142 -36 -166 -150h265l-12 -40h-258
c-1 -11 -2 -23 -2 -36s1 -25 2 -37h240l-12 -39h-223c23 -113 97 -144 162 -144c70 0 123 19 171 64z" />
    <glyph glyph-name="sterling.tf" horiz-adv-x="555" 
d="M189 56h313v-56h-463v49l85 6l12 157h-94v47h98l3 35c14 183 86 254 208 254c59 0 121 -15 173 -53l-22 -44c-47 31 -98 43 -144 43c-85 0 -138 -50 -150 -200l-3 -35h209v-47h-212z" />
    <glyph glyph-name="yen.tf" horiz-adv-x="555" 
d="M312 197v-66h155v-39h-155v-92h-68v92h-151v39h151v66h-151v39h131l-182 307h71l151 -247c7 -12 11 -22 14 -34c4 12 7 22 15 34l150 247h71l-182 -307h135v-39h-155z" />
    <glyph glyph-name="asciitilde" unicode="~" horiz-adv-x="425" 
d="M358 315l31 -20c-41 -79 -86 -94 -145 -68l-85 40c-40 18 -65 10 -95 -41l-31 19c40 77 84 91 145 64l85 -39c40 -18 66 -9 95 45z" />
    <glyph glyph-name="divide" unicode="&#xf7;" horiz-adv-x="463" 
d="M192 395c0 22 15 37 37 37c23 0 38 -15 38 -37s-15 -38 -38 -38c-22 0 -37 16 -37 38zM34 211v51h393v-51h-393zM192 87c0 22 15 38 37 38c23 0 38 -16 38 -38s-15 -37 -38 -37c-22 0 -37 15 -37 37z" />
    <glyph glyph-name="equal" unicode="=" horiz-adv-x="455" 
d="M34 296v45h386v-45h-386zM34 153v46h386v-46h-386z" />
    <glyph glyph-name="greater" unicode="&#x3e;" horiz-adv-x="399" 
d="M71 410l32 36l246 -203l-247 -203l-31 35l169 141l36 27c-12 8 -23 16 -35 25z" />
    <glyph glyph-name="less" unicode="&#x3c;" horiz-adv-x="397" 
d="M335 410l-171 -142c-12 -9 -23 -17 -35 -25l36 -27l170 -141l-32 -35l-247 203l246 203z" />
    <glyph glyph-name="minus" unicode="&#x2212;" horiz-adv-x="463" 
d="M34 211v50h393v-50h-393z" />
    <glyph glyph-name="multiply" unicode="&#xd7;" horiz-adv-x="462" 
d="M103 80l-36 36l130 130l-127 127l37 37l127 -126l126 125l36 -36l-125 -126l130 -130l-37 -37l-130 130z" />
    <glyph glyph-name="percent" unicode="%" horiz-adv-x="832" 
d="M192 620c96 0 147 -63 147 -181c0 -117 -51 -179 -147 -179s-148 62 -148 179c0 118 52 181 148 181zM612 610l-359 -610h-44l358 610h45zM192 303c66 0 100 48 100 136c0 90 -34 138 -100 138c-67 0 -101 -48 -101 -138c0 -88 34 -136 101 -136zM641 352
c96 0 147 -64 147 -181s-51 -180 -147 -180s-148 63 -148 180s52 181 148 181zM641 34c66 0 100 49 100 137c0 89 -34 138 -100 138c-67 0 -101 -49 -101 -138c0 -88 34 -137 101 -137z" />
    <glyph glyph-name="perthousand" unicode="&#x2030;" horiz-adv-x="1209" 
d="M192 620c96 0 147 -63 147 -181c0 -117 -51 -179 -147 -179s-148 62 -148 179c0 118 52 181 148 181zM612 610l-359 -610h-44l358 610h45zM192 303c66 0 100 48 100 136c0 90 -34 138 -100 138c-67 0 -101 -48 -101 -138c0 -88 34 -136 101 -136zM648 352
c96 0 148 -64 148 -181s-52 -180 -148 -180s-148 63 -148 180s52 181 148 181zM1018 352c96 0 147 -64 147 -181s-51 -180 -147 -180s-148 63 -148 180s52 181 148 181zM648 34c67 0 101 49 101 137c0 89 -34 138 -101 138s-100 -49 -100 -138c0 -88 33 -137 100 -137z
M1018 34c66 0 100 49 100 137c0 89 -34 138 -100 138c-67 0 -101 -49 -101 -138c0 -88 34 -137 101 -137z" />
    <glyph glyph-name="plus" unicode="+" horiz-adv-x="465" 
d="M256 210v-172h-50v172h-172v52h172v172h50v-173h174v-50z" />
    <glyph glyph-name="plusminus" unicode="&#xb1;" horiz-adv-x="465" 
d="M429 295h-175v-142h-46v142h-174v47h174v142h46v-142h175v-47zM427 108v-46h-394v46h394z" />
    <glyph glyph-name="arrowdown" unicode="&#x2193;" horiz-adv-x="640" 
d="M320 -7l-270 251l41 41l201 -187v512h57v-512l201 187l40 -41z" />
    <glyph glyph-name="arrowdownleft" unicode="&#x2199;" horiz-adv-x="694" 
d="M486 58v-58h-431v431h56v-334l515 514l40 -40l-514 -513h334z" />
    <glyph glyph-name="arrowdownright" unicode="&#x2198;" horiz-adv-x="694" 
d="M639 0h-431v56h333l-513 515l40 40l512 -514v334h59v-431z" />
    <glyph glyph-name="arrowleft" unicode="&#x2190;" horiz-adv-x="667" 
d="M133 277l216 -228l-41 -41l-280 297l280 298l41 -41l-216 -228h507v-57h-507z" />
    <glyph glyph-name="arrowright" unicode="&#x2192;" horiz-adv-x="667" 
d="M358 8l-41 41l217 228h-508v57h508l-217 228l41 41l281 -298z" />
    <glyph glyph-name="arrowup" unicode="&#x2191;" horiz-adv-x="640" 
d="M349 512v-512h-57v512l-201 -187l-41 41l270 251l270 -251l-40 -41z" />
    <glyph glyph-name="arrowupleft" unicode="&#x2196;" horiz-adv-x="694" 
d="M114 513v-334h-59v431h431v-56h-334l514 -515l-40 -40z" />
    <glyph glyph-name="arrowupright" unicode="&#x2197;" horiz-adv-x="694" 
d="M639 179h-56v334l-515 -514l-40 40l513 513h-333v58h431v-431z" />
    <glyph glyph-name="arrowdown.ss08" horiz-adv-x="679" 
d="M340 568c159 0 289 -130 289 -289c0 -160 -130 -290 -289 -290c-160 0 -290 130 -290 290c0 159 130 289 290 289zM322 187l-111 110l-26 -25l155 -151l155 150l-26 26l-110 -110v245h-37v-245z" />
    <glyph glyph-name="arrowdownleft.ss08" horiz-adv-x="679" 
d="M629 279c0 159 -130 289 -289 289c-160 0 -290 -130 -290 -289c0 -160 130 -290 290 -290c159 0 289 130 289 290zM225 383h37v-158l174 174l25 -25l-174 -174h157v-37h-219v220z" />
    <glyph glyph-name="arrowdownright.ss08" horiz-adv-x="679" 
d="M629 279c0 159 -130 289 -289 289c-160 0 -290 -130 -290 -289c0 -160 130 -290 290 -290c159 0 289 130 289 290zM392 200l-174 174l25 25l174 -174v158h37v-220h-219v37h157z" />
    <glyph glyph-name="arrowleft.ss08" horiz-adv-x="679" 
d="M340 568c159 0 289 -130 289 -289c0 -160 -130 -290 -289 -290c-160 0 -290 130 -290 290c0 159 130 289 290 289zM332 123l26 26l-110 111h245v37h-245l110 110l-25 26l-151 -154z" />
    <glyph glyph-name="arrowright.ss08" horiz-adv-x="679" 
d="M340 568c159 0 289 -130 289 -289c0 -160 -130 -290 -289 -290c-160 0 -290 130 -290 290c0 159 130 289 290 289zM432 297h-246v-37h246l-111 -111l26 -26l150 156l-150 154l-26 -26z" />
    <glyph glyph-name="arrowup.ss08" horiz-adv-x="679" 
d="M340 568c159 0 289 -130 289 -289c0 -160 -130 -290 -289 -290c-160 0 -290 130 -290 290c0 159 130 289 290 289zM211 260l111 111v-246h37v246l110 -110l26 25l-155 150l-155 -150z" />
    <glyph glyph-name="arrowupleft.ss08" horiz-adv-x="679" 
d="M629 279c0 159 -130 289 -289 289c-160 0 -290 -130 -290 -289c0 -160 130 -290 290 -290c159 0 289 130 289 290zM287 358l174 -175l-25 -25l-174 174v-158h-37v220h219v-36h-157z" />
    <glyph glyph-name="arrowupright.ss08" horiz-adv-x="679" 
d="M629 279c0 159 -130 289 -289 289c-160 0 -290 -130 -290 -289c0 -160 130 -290 290 -290c159 0 289 130 289 290zM454 174h-36v158l-175 -174l-25 25l174 175h-157v36h219v-220z" />
    <glyph glyph-name="arrowdown.ss13" horiz-adv-x="513" 
d="M257 485c113 0 206 -93 206 -206c0 -114 -93 -207 -206 -207c-114 0 -207 93 -207 207c0 113 93 206 207 206zM257 460c-100 0 -181 -82 -181 -181c0 -100 81 -181 181 -181c99 0 181 81 181 181c0 99 -82 181 -181 181zM243 214l-77 78l-19 -19l110 -107l110 107l-20 19
l-77 -78v174h-27v-174z" />
    <glyph glyph-name="arrowdownleft.ss13" horiz-adv-x="513" 
d="M257 485c113 0 206 -93 206 -206c0 -114 -93 -207 -206 -207c-114 0 -207 93 -207 207c0 110 90 206 207 206zM257 460c-101 0 -181 -81 -181 -181c0 -101 80 -181 181 -181c100 0 181 80 181 181c0 100 -81 181 -181 181zM222 223h110v-25h-155v155h26v-111l123 124
l20 -20z" />
    <glyph glyph-name="arrowdownright.ss13" horiz-adv-x="513" 
d="M256 485c118 0 207 -96 207 -206c0 -114 -93 -207 -207 -207c-113 0 -206 93 -206 207c0 113 93 206 206 206zM256 460c-100 0 -180 -81 -180 -181c0 -101 80 -181 180 -181c101 0 182 80 182 181c0 100 -81 181 -182 181zM309 353h27v-156h-155v26h110l-123 123l19 20
l122 -124v111z" />
    <glyph glyph-name="arrowleft.ss13" horiz-adv-x="513" 
d="M257 485c113 0 206 -93 206 -206c0 -114 -93 -207 -206 -207c-114 0 -207 93 -207 207c0 113 93 206 207 206zM257 460c-101 0 -181 -81 -181 -181c0 -101 80 -181 181 -181c100 0 181 80 181 181c0 100 -81 181 -181 181zM192 292l78 77l-19 19l-107 -109l107 -111
l19 20l-78 77h174v27h-174z" />
    <glyph glyph-name="arrowright.ss13" horiz-adv-x="513" 
d="M256 485c114 0 207 -93 207 -206c0 -114 -93 -207 -207 -207c-113 0 -206 93 -206 207c0 113 93 206 206 206zM256 460c-100 0 -180 -81 -180 -181c0 -101 80 -181 180 -181c101 0 182 80 182 181c0 100 -81 181 -182 181zM244 188l18 -20l107 111l-107 109l-19 -19
l78 -77h-174v-27h174z" />
    <glyph glyph-name="arrowup.ss13" horiz-adv-x="513" 
d="M257 72c-114 0 -207 93 -207 206c0 114 93 207 207 207c113 0 206 -93 206 -207c0 -113 -93 -206 -206 -206zM257 98c99 0 181 81 181 180c0 100 -82 182 -181 182c-100 0 -181 -82 -181 -182c0 -99 81 -180 181 -180zM347 266l20 18l-110 107l-110 -107l19 -19l77 78
v-174h27v174z" />
    <glyph glyph-name="arrowupleft.ss13" horiz-adv-x="513" 
d="M257 72c-117 0 -207 96 -207 206c0 114 93 207 207 207c113 0 206 -93 206 -207c0 -113 -93 -206 -206 -206zM257 98c100 0 181 80 181 180c0 101 -81 182 -181 182c-101 0 -181 -81 -181 -182c0 -100 80 -180 181 -180zM204 205h-27v155h155v-26h-110l124 -123l-20 -19
l-122 123v-110z" />
    <glyph glyph-name="arrowupright.ss13" horiz-adv-x="513" 
d="M256 72c-113 0 -206 93 -206 206c0 114 93 207 206 207c114 0 207 -93 207 -207c0 -110 -89 -206 -207 -206zM256 98c101 0 182 80 182 180c0 101 -81 182 -182 182c-100 0 -180 -81 -180 -182c0 -100 80 -180 180 -180zM291 334h-110v25h155v-154h-26v110l-123 -123
l-19 19z" />
    <glyph glyph-name="ampersand" unicode="&#x26;" horiz-adv-x="639" 
d="M577 0l-99 83c-59 -66 -120 -92 -200 -92c-143 0 -229 61 -229 171c0 72 48 113 148 159c-65 63 -87 102 -87 158c0 87 66 141 171 141c97 0 161 -54 161 -146c0 -64 -37 -120 -146 -165l174 -147c22 31 45 69 69 115l47 -28c-25 -48 -49 -88 -73 -121l97 -81zM171 478
c0 -49 23 -79 82 -133c107 44 135 77 135 126c0 66 -42 102 -107 102c-64 0 -110 -37 -110 -95zM435 119l-197 166c-81 -35 -123 -63 -123 -116c0 -79 67 -124 163 -124c62 0 110 22 157 74z" />
    <glyph glyph-name="asciicircum" unicode="^" horiz-adv-x="467" 
d="M361 345l-101 204c-10 20 -18 38 -26 59h-2c-7 -21 -14 -39 -25 -59l-101 -204h-53l158 310h46l158 -310h-54z" />
    <glyph glyph-name="at" unicode="@" horiz-adv-x="920" 
d="M648 413v-314c0 -52 18 -70 52 -70c59 0 131 60 133 224c0 200 -137 333 -358 333c-228 0 -387 -153 -387 -381c0 -222 149 -367 372 -367c95 0 172 22 240 60l16 -28c-67 -43 -158 -68 -256 -68c-245 0 -409 161 -409 403c0 249 177 415 424 415
c241 0 394 -148 394 -367c-2 -197 -101 -262 -181 -262c-50 0 -87 17 -97 76c-52 -51 -97 -76 -173 -76c-102 0 -168 58 -168 218c0 150 73 213 182 213c57 0 113 -22 157 -56v47h59zM589 120v189c-45 41 -89 62 -141 62c-82 0 -140 -45 -140 -162c0 -130 51 -170 127 -170
c65 0 107 33 154 81z" />
    <glyph glyph-name="bar" unicode="|" horiz-adv-x="287" 
d="M115 -200v855h57v-855h-57z" />
    <glyph glyph-name="brokenbar" unicode="&#xa6;" horiz-adv-x="287" 
d="M115 318v337h57v-337h-57zM115 -200v337h57v-337h-57z" />
    <glyph glyph-name="copyright" unicode="&#xa9;" horiz-adv-x="742" 
d="M372 -9c-175 0 -314 139 -314 314c0 174 139 315 314 315c174 0 313 -141 313 -315c0 -175 -139 -314 -313 -314zM372 17c158 0 288 128 288 288c0 158 -130 289 -288 289c-160 0 -289 -131 -289 -289c0 -160 129 -288 289 -288zM503 215l21 -31
c-38 -39 -88 -63 -148 -63c-98 0 -173 71 -173 179c0 114 67 186 169 186c49 0 100 -16 137 -44l-19 -33c-32 21 -74 33 -113 33c-75 0 -124 -54 -124 -142c0 -84 55 -136 128 -136c46 0 89 20 122 51z" />
    <glyph glyph-name="dagger" unicode="&#x2020;" horiz-adv-x="504" 
d="M275 377l-5 -459h-38l-5 459l-179 5v38l179 5l6 185h37l5 -185l181 -5v-38z" />
    <glyph glyph-name="daggerdbl" unicode="&#x2021;" horiz-adv-x="504" 
d="M276 153l180 -5v-38l-181 -5l-5 -185h-37l-6 185l-179 5v38l179 5v224l-179 5v38l179 5l6 185h37l5 -185l181 -5v-38l-180 -5v-224z" />
    <glyph glyph-name="degree" unicode="&#xb0;" horiz-adv-x="334" 
d="M167 620c69 0 114 -46 114 -116c0 -66 -46 -110 -115 -110c-68 0 -113 44 -113 110c0 70 45 116 114 116zM166 435c45 0 73 27 73 69c0 46 -28 76 -72 76s-73 -30 -73 -76c0 -42 29 -69 72 -69z" />
    <glyph glyph-name="uni2116" unicode="&#x2116;" horiz-adv-x="1163" 
d="M592 0h-63l-375 493v-493h-69v610h63l375 -495v17v478h69v-610zM889 534c132 0 186 -79 186 -200c0 -115 -54 -193 -186 -193s-186 78 -186 193c0 121 54 200 186 200zM889 193c95 0 128 57 128 141c0 89 -33 148 -128 148s-127 -59 -127 -148c0 -84 32 -141 127 -141z
M1056 0h-333v51h333v-51z" />
    <glyph glyph-name="paragraph" unicode="&#xb6;" horiz-adv-x="536" 
d="M489 557l-108 -6v-551h-63v211h-19c-177 0 -246 53 -246 197c0 148 69 202 246 202h190v-53z" />
    <glyph glyph-name="registered" unicode="&#xae;" horiz-adv-x="742" 
d="M372 -9c-175 0 -314 139 -314 314c0 174 139 315 314 315c174 0 313 -141 313 -315c0 -175 -139 -314 -313 -314zM372 17c158 0 288 128 288 288c0 158 -130 289 -288 289c-160 0 -289 -131 -289 -289c0 -160 129 -288 289 -288zM243 481h131c95 0 143 -40 143 -113
c0 -55 -29 -90 -81 -97c39 -17 69 -76 96 -142h-54c-33 78 -63 125 -91 125h-98v-125h-46v352zM292 293h101c50 0 76 27 76 74c0 48 -34 74 -95 74h-82v-148z" />
    <glyph glyph-name="section" unicode="&#xa7;" horiz-adv-x="584" 
d="M91 20l22 46c52 -45 132 -72 191 -72c62 0 97 28 97 73s-36 61 -139 93c-134 43 -193 78 -193 151c0 44 24 71 74 107c-23 21 -33 46 -33 79c0 75 58 123 155 123c63 0 135 -17 188 -42l-18 -48c-49 25 -117 40 -165 40c-62 0 -97 -27 -97 -72c0 -46 36 -62 139 -94
c134 -42 193 -78 193 -151c0 -43 -22 -70 -73 -107c22 -21 32 -45 32 -78c0 -76 -58 -126 -157 -126c-71 0 -163 30 -216 78zM176 396c-37 -35 -47 -52 -47 -77c0 -54 64 -78 177 -114c39 -12 69 -24 92 -36c37 34 47 52 47 77c0 54 -64 77 -177 113c-39 13 -69 24 -92 37z
" />
    <glyph glyph-name="trademark" unicode="&#x2122;" horiz-adv-x="762" 
d="M308 571h-119v-240h-44v240h-120v39h283v-39zM627 540l-98 -209h-36l-98 209l-7 -209h-43l12 279h44l104 -218c3 -6 4 -12 6 -17c2 5 3 11 6 17l104 218h44l12 -279h-43z" />
    <glyph glyph-name="at.case" horiz-adv-x="920" 
d="M641 491v-314c0 -52 18 -70 52 -70c59 0 131 60 133 224c0 200 -137 333 -358 333c-227 0 -387 -153 -387 -381c0 -222 149 -367 372 -367c96 0 173 22 241 60l16 -28c-68 -43 -159 -68 -257 -68c-245 0 -408 161 -408 403c0 249 177 415 423 415
c241 0 394 -148 394 -367c-1 -197 -101 -262 -181 -262c-50 0 -87 17 -97 76c-52 -51 -97 -76 -172 -76c-102 0 -169 58 -169 218c0 150 73 213 182 213c58 0 113 -22 157 -56v47h59zM582 198v189c-44 41 -89 62 -140 62c-82 0 -141 -45 -141 -162c0 -130 51 -170 128 -170
c64 0 106 33 153 81z" />
    <glyph glyph-name="registered.ss04" horiz-adv-x="742" 
d="M372 620c174 0 313 -141 313 -315c0 -175 -139 -314 -313 -314c-175 0 -314 139 -314 314c0 174 139 315 314 315zM372 17c158 0 288 128 288 288c0 158 -130 289 -288 289c-160 0 -289 -131 -289 -289c0 -160 129 -288 289 -288zM243 482h131c94 0 142 -40 142 -113
c0 -56 -25 -98 -82 -110l102 -128h-54l-97 124h-96v-127h-46v354zM289 295h105c51 0 77 26 77 73c0 48 -34 74 -96 74h-86v-147z" />
    <glyph glyph-name="ampersand.ss09" horiz-adv-x="596" 
d="M591 266v-58c-22 1 -45 1 -67 3c-12 -154 -81 -220 -246 -220c-144 0 -229 62 -229 171c0 72 47 113 146 159c-66 63 -88 102 -88 159c0 86 66 140 171 140c97 0 161 -54 161 -145c0 -64 -37 -118 -137 -160c-122 -51 -187 -73 -187 -146c0 -79 67 -120 163 -120
c141 0 186 60 186 217h127zM169 478c0 -49 22 -79 81 -133c108 44 135 77 135 126c0 65 -42 101 -107 101c-64 0 -109 -36 -109 -94z" />
    <glyph glyph-name="ampersand.ss10" horiz-adv-x="499" 
d="M445 82l23 -49c-48 -23 -102 -37 -158 -41v-59h-53v59c-141 4 -207 54 -207 145c0 75 40 118 121 136c-58 19 -89 56 -89 118c0 92 53 144 168 151v69h53v-68c48 -3 96 -12 139 -28l-20 -50c-49 15 -94 22 -139 22c-96 0 -142 -34 -142 -100c0 -65 50 -90 157 -90h72v-51
h-83c-116 0 -173 -28 -173 -101c0 -64 54 -98 165 -98c63 0 112 12 166 35z" />
    <glyph glyph-name="copyright.ss11" 
d="M243 244c-105 0 -188 84 -188 188s83 188 188 188c104 0 187 -84 187 -188s-83 -188 -187 -188zM243 268c90 0 164 74 164 164s-74 165 -164 165c-91 0 -164 -75 -164 -165s73 -164 164 -164zM314 383l15 -22c-24 -22 -51 -34 -86 -34c-58 0 -102 39 -102 101
c0 68 37 107 100 107c29 0 54 -8 82 -26l-13 -24c-25 14 -44 20 -66 20c-44 0 -67 -27 -67 -77c0 -45 29 -71 69 -71c24 0 49 11 68 26z" />
    <glyph glyph-name="registered.ss12" 
d="M243 244c-105 0 -188 84 -188 188s83 188 188 188c104 0 187 -84 187 -188s-83 -188 -187 -188zM243 268c90 0 164 74 164 164s-74 165 -164 165c-91 0 -164 -75 -164 -165s73 -164 164 -164zM165 536h78c57 0 87 -24 87 -66c0 -33 -17 -53 -45 -57c20 -10 37 -45 52 -82
h-37c-19 44 -37 73 -53 73h-51v-73h-31v205zM198 430h59c25 0 40 15 40 39c0 27 -18 40 -54 40h-45v-79z" />
    <glyph glyph-name="acute" unicode="&#xb4;" 
d="M338 652l-1 -14c-50 -45 -76 -68 -139 -108l-22 22l108 136z" />
    <glyph glyph-name="breve" unicode="&#x2d8;" 
d="M326 659h51c0 -82 -42 -126 -135 -126c-92 0 -133 44 -133 125h50c3 -48 26 -76 83 -76s80 28 84 77z" />
    <glyph glyph-name="caron" unicode="&#x2c7;" 
d="M268 533h-51l-120 118l27 28c43 -34 78 -59 119 -91c40 32 75 57 118 91l27 -28z" />
    <glyph glyph-name="cedilla" unicode="&#xb8;" 
d="M250 17l-6 -53c74 -1 100 -22 100 -81c0 -56 -37 -87 -97 -87c-31 0 -63 7 -90 15l9 40c25 -5 48 -8 68 -8c37 0 63 9 63 40c0 35 -20 42 -74 42h-33l20 92h40z" />
    <glyph glyph-name="circumflex" unicode="&#x2c6;" 
d="M388 561l-27 -27c-43 33 -78 59 -118 91c-41 -32 -76 -58 -119 -91l-27 27l120 118h51z" />
    <glyph glyph-name="dieresis" unicode="&#xa8;" 
d="M151 651c25 0 43 -16 43 -42s-18 -41 -43 -41c-22 0 -42 15 -42 41s20 42 42 42zM334 651c23 0 42 -16 42 -42s-19 -41 -42 -41c-25 0 -43 15 -43 41s18 42 43 42z" />
    <glyph glyph-name="dotaccent" unicode="&#x2d9;" 
d="M243 659c26 0 48 -18 48 -48s-22 -47 -48 -47c-28 0 -50 17 -50 47s22 48 50 48z" />
    <glyph glyph-name="grave" unicode="`" 
d="M307 561l-22 -22c-62 41 -88 63 -139 108l-1 14l55 36z" />
    <glyph glyph-name="hungarumlaut" unicode="&#x2dd;" 
d="M411 669l-1 -15c-45 -42 -75 -71 -123 -113l-29 16l102 138zM283 669v-15c-45 -42 -76 -71 -123 -113l-29 16l101 138z" />
    <glyph glyph-name="macron" unicode="&#xaf;" 
d="M359 574h-233v59h233v-59z" />
    <glyph glyph-name="ogonek" unicode="&#x2db;" 
d="M309 -121l10 -46c-29 -10 -59 -16 -91 -16c-66 0 -105 33 -105 94c0 51 47 94 118 119l25 -25c-57 -16 -93 -49 -93 -82c0 -32 28 -53 71 -53c21 0 42 5 65 9z" />
    <glyph glyph-name="ring" unicode="&#x2da;" 
d="M243 709c54 0 93 -37 93 -93c0 -52 -39 -89 -94 -89c-54 0 -92 37 -92 89c0 56 38 93 93 93zM242 568c32 0 53 18 53 48c0 33 -21 54 -52 54c-32 0 -52 -21 -52 -54c0 -30 20 -48 51 -48z" />
    <glyph glyph-name="tilde" unicode="&#x2dc;" 
d="M358 664l37 -10c-20 -80 -82 -101 -135 -74l-55 28c-38 19 -61 8 -77 -31l-37 10c20 77 78 96 134 69l55 -26c39 -19 62 -7 78 34z" />
    <glyph glyph-name="caron.alt" 
d="M262 677v-13c-4 -53 -12 -105 -25 -152h-40l7 165h58z" />
    <glyph glyph-name="acute.case" 
d="M338 779l-1 -14c-50 -45 -76 -68 -139 -102l-22 22l108 130z" />
    <glyph glyph-name="breve.case" 
d="M326 788h51c0 -76 -42 -119 -135 -119c-92 0 -133 43 -133 119h50c3 -42 26 -69 83 -69s80 27 84 69z" />
    <glyph glyph-name="caron.case" 
d="M268 666h-51l-120 112l27 27l119 -84l118 84l27 -27z" />
    <glyph glyph-name="circumflex.case" 
d="M243 742l-119 -85l-27 27l120 112h51l120 -112l-27 -27z" />
    <glyph glyph-name="dieresis.case" 
d="M151 770c25 0 43 -16 43 -42s-18 -41 -43 -41c-22 0 -42 15 -42 41s20 42 42 42zM334 770c23 0 42 -16 42 -42s-19 -41 -42 -41c-25 0 -43 15 -43 41s18 42 43 42z" />
    <glyph glyph-name="dotaccent.case" 
d="M243 776c26 0 48 -18 48 -48s-22 -48 -48 -48c-28 0 -50 18 -50 48s22 48 50 48z" />
    <glyph glyph-name="grave.case" 
d="M307 678l-22 -22c-62 34 -88 56 -139 101l-1 14l55 36z" />
    <glyph glyph-name="hungarumlaut.case" 
d="M283 789v-15c-45 -42 -76 -71 -123 -106l-29 16l101 131zM411 789l-1 -15c-45 -42 -75 -71 -123 -106l-29 16l102 131z" />
    <glyph glyph-name="macron.case" 
d="M359 698h-233v59h233v-59z" />
    <glyph glyph-name="ring.case" 
d="M243 841c54 0 93 -37 93 -94c0 -52 -39 -88 -94 -88c-54 0 -92 36 -92 88c0 57 38 94 93 94zM242 699c32 0 53 19 53 48c0 33 -21 54 -52 54c-32 0 -52 -21 -52 -54c0 -29 20 -48 51 -48z" />
    <glyph glyph-name="tilde.case" 
d="M358 775l37 -10c-20 -80 -82 -101 -135 -74l-55 28c-38 19 -61 7 -77 -31l-37 10c20 77 78 96 134 68l55 -26c39 -19 62 -6 78 35z" />
    <glyph glyph-name="commaaccentcomb" unicode="&#x326;" horiz-adv-x="0" 
d="M197 -223l-13 22c28 28 42 54 46 75c-19 5 -30 18 -30 37c0 23 15 40 39 40s39 -19 39 -43c0 -45 -28 -95 -81 -131z" />
    <glyph glyph-name="commaturnedabovecomb" unicode="&#x312;" horiz-adv-x="0" 
d="M262 697l14 -22c-26 -25 -40 -50 -46 -72c18 -3 31 -18 31 -37c0 -23 -16 -39 -40 -39s-39 19 -39 43c0 42 23 86 80 127z" />
    </font>
</defs>
</svg>
